<svg width="18" height="16" viewBox="0 0 18 16" fill="none" xmlns="http://www.w3.org/2000/svg">
	<path d="M4.32919 4.66687C3.94437 4.66687 3.63273 4.965 3.63273 5.33313V12C3.63273 12.3681 3.94437 12.6669 4.32919 12.6669H14.0861C14.4709 12.6669 14.7825 12.3681 14.7825 12V5.33313C14.7825 4.965 14.4709 4.66687 14.0861 4.66687H4.32919ZM4.32919 3.33313H14.0861C15.2405 3.33313 16.1767 4.22876 16.1767 5.33313V12C16.1767 13.1044 15.2405 14 14.0861 14H4.32919C3.17476 14 2.23853 13.1044 2.23853 12V5.33313C2.23853 4.22876 3.17476 3.33313 4.32919 3.33313V3.33313Z" fill="#1E55A9" />
	<path d="M8.5105 2.66688C8.5105 2.29875 8.82279 2 9.20761 2C9.59242 2 9.90472 2.29875 9.90472 2.66688V5.33312C9.90472 5.70125 9.59242 6 9.20761 6C8.82279 6 8.5105 5.70125 8.5105 5.33312V2.66688Z" fill="#1E55A9" />
	<path d="M5.72339 2.66688C5.72339 2.29875 6.03503 2 6.41985 2C6.80466 2 7.11695 2.29875 7.11695 2.66688V5.33312C7.11695 5.70125 6.80466 6 6.41985 6C6.03503 6 5.72339 5.70125 5.72339 5.33312V2.66688Z" fill="#1E55A9" />
	<path d="M11.2983 2.66688C11.2983 2.29875 11.6106 2 11.9954 2C12.3803 2 12.6919 2.29875 12.6919 2.66688V5.33312C12.6919 5.70125 12.3803 6 11.9954 6C11.6106 6 11.2983 5.70125 11.2983 5.33312V2.66688Z" fill="#1E55A9" />
	<path d="M2.93567 7.99999V6.66687H15.4796V7.99999H2.93567Z" fill="#1E55A9" />
</svg>
