<svg width="919" height="900" viewBox="0 0 919 900" fill="none" xmlns="http://www.w3.org/2000/svg">
	<g opacity="0.2">
		<path d="M381.202 192.488C338.721 205.471 295.439 221.575 258.212 248.33C203.474 287.664 166.903 349.105 165.676 403.928C164.607 450.399 186.717 489.108 200.656 530.476C217.84 581.428 222.741 637.578 225.492 693.851C226.976 724.079 228.053 755.255 241.789 780.22C260.865 814.879 303.572 833.431 350.774 833.204C397.977 832.978 448.932 815.289 494.002 788.526C517.985 774.285 541.277 756.779 556.329 734.864C572.255 711.677 577.645 685.555 593.741 662.43C608.655 641.001 631.532 623.981 654.879 609.711C685.362 591.078 717.723 576.049 751.007 565.067C788.717 552.647 826.915 545.741 864.599 533.525C902.284 521.308 941.052 502.527 968.245 473.17C993.812 445.575 1006.13 412.131 1015.95 380.059C1032.04 327.668 1043.65 274.999 1050.66 222.575C1055.34 187.434 1057.85 151.996 1049.19 120.558C1032.64 60.4461 972.672 20.4877 899.771 20.9839C839.372 21.3977 775.289 47.119 715.579 76.7724C661.129 103.813 603.085 142.366 545.393 156.034C490.364 169.047 436.682 175.542 381.202 192.488Z" fill="white" />
		<path d="M381.202 192.488C338.721 205.471 295.439 221.575 258.212 248.33C203.474 287.664 166.903 349.105 165.676 403.928C164.607 450.399 186.717 489.108 200.656 530.476C217.84 581.428 222.741 637.578 225.492 693.851C226.976 724.079 228.053 755.255 241.789 780.22C260.865 814.879 303.572 833.431 350.774 833.204C397.977 832.978 448.932 815.289 494.002 788.526C517.985 774.285 541.277 756.779 556.329 734.864C572.255 711.677 577.645 685.555 593.741 662.43C608.655 641.001 631.532 623.981 654.879 609.711C685.362 591.078 717.723 576.049 751.007 565.067C788.717 552.647 826.915 545.741 864.599 533.525C902.284 521.308 941.052 502.527 968.245 473.17C993.812 445.575 1006.13 412.131 1015.95 380.059C1032.04 327.668 1043.65 274.999 1050.66 222.575C1055.34 187.434 1057.85 151.996 1049.19 120.558C1032.64 60.4461 972.672 20.4877 899.771 20.9839C839.372 21.3977 775.289 47.119 715.579 76.7724C661.129 103.813 603.085 142.366 545.393 156.034C490.364 169.047 436.682 175.542 381.202 192.488Z" fill="#4DD5DE" fill-opacity="0.08" />
	</g>
	<g opacity="0.2">
		<path d="M359.573 406.336C337.021 424.717 315.172 445.286 301.445 471.234C281.257 509.384 281.568 557.375 302.285 592.749C319.826 622.742 349.407 642.272 374.714 665.44C405.893 693.973 431.119 728.744 454.994 764.104C467.823 783.096 480.759 802.792 499.495 815.512C525.512 833.169 560.587 834.915 591.218 823.579C621.85 812.242 648.07 788.84 666.899 761.028C676.918 746.227 685.207 729.502 686.403 711.908C687.668 693.294 680.924 675.299 682.325 656.684C683.621 639.434 691.83 623.118 701.424 608.45C713.951 589.298 729.114 572.008 746.466 557.088C766.134 540.199 788.283 526.723 808.014 509.97C827.746 493.217 845.606 472.006 851.783 446.772C857.592 423.05 852.486 398.726 846.289 375.874C836.197 338.532 823.083 302.074 807.076 266.861C796.329 243.264 784.056 219.989 766.083 201.924C731.722 167.379 677.009 156.027 629.759 173.629C590.613 188.215 559.001 219.869 531.778 253.003C506.953 283.218 484.307 321.652 452.125 344.078C421.418 365.453 389.03 382.338 359.573 406.336Z" fill="white" />
		<path d="M359.573 406.336C337.021 424.717 315.172 445.286 301.445 471.234C281.257 509.384 281.568 557.375 302.285 592.749C319.826 622.742 349.407 642.272 374.714 665.44C405.893 693.973 431.119 728.744 454.994 764.104C467.823 783.096 480.759 802.792 499.495 815.512C525.512 833.169 560.587 834.915 591.218 823.579C621.85 812.242 648.07 788.84 666.899 761.028C676.918 746.227 685.207 729.502 686.403 711.908C687.668 693.294 680.924 675.299 682.325 656.684C683.621 639.434 691.83 623.118 701.424 608.45C713.951 589.298 729.114 572.008 746.466 557.088C766.134 540.199 788.283 526.723 808.014 509.97C827.746 493.217 845.606 472.006 851.783 446.772C857.592 423.05 852.486 398.726 846.289 375.874C836.197 338.532 823.083 302.074 807.076 266.861C796.329 243.264 784.056 219.989 766.083 201.924C731.722 167.379 677.009 156.027 629.759 173.629C590.613 188.215 559.001 219.869 531.778 253.003C506.953 283.218 484.307 321.652 452.125 344.078C421.418 365.453 389.03 382.338 359.573 406.336Z" fill="#4DD5DE" fill-opacity="0.08" />
	</g>
	<path d="M693.013 447.551C693.013 447.551 755.681 395.04 769.617 368.564C783.553 342.088 801.292 319.274 801.292 319.274" stroke="white" stroke-width="2" />
	<path d="M793.052 378.461L765.944 372.349C765.944 372.349 772.341 400.941 793.052 378.461Z" fill="#ECA0A0" />
	<path d="M751.629 349.274L767.228 372.635C767.228 372.635 736.732 374.837 751.629 349.274Z" fill="#1E55A9" />
	<path d="M803.718 356.502L778.943 352.159C778.943 352.159 794.504 375.83 803.718 356.502Z" fill="#ECA0A0" />
	<path d="M767.054 335.623L779.259 351.607C779.259 351.607 757.654 353.654 767.054 335.623Z" fill="#1E55A9" />
	<path d="M791.755 332.44C791.755 332.44 812.852 333.445 815.333 335.462C817.815 337.478 812.188 349.298 804.165 347.369C796.142 345.439 791.755 332.44 791.755 332.44Z" fill="#1E55A9" />
	<path d="M783.323 313.584C783.323 313.584 791.942 329.288 791.619 332.279C791.296 335.269 778.483 338.626 775.896 327.315C773.309 316.004 783.323 313.584 783.323 313.584Z" fill="#1E55A9" />
	<path d="M810.124 325.578C811.1 322.489 809.386 319.193 806.297 318.218C803.207 317.242 799.912 318.956 798.936 322.045C797.961 325.134 799.674 328.43 802.764 329.405C805.853 330.381 809.149 328.667 810.124 325.578Z" fill="#1E55A9" />
	<path d="M800.941 319.541C801.916 316.452 800.203 313.156 797.113 312.181C794.024 311.205 790.729 312.919 789.753 316.008C788.777 319.097 790.491 322.393 793.58 323.368C796.67 324.344 799.965 322.63 800.941 319.541Z" fill="#1E55A9" />
	<path d="M497.544 653.394C497.544 653.394 507.602 623.474 443.842 587.406C443.842 587.406 379.102 568.525 385.722 503.685C385.722 503.685 311.091 558.361 361.592 628.01C412.092 697.658 455.681 682.457 455.681 682.457L497.544 653.394Z" fill="#1E55A9" />
	<path d="M478.105 666.908C478.105 666.908 446.994 633.284 417.174 620.285C411.217 617.604 405.744 613.958 400.974 609.495C381.962 592.122 373.673 565.906 378.574 540.622L385.741 503.685" stroke="white" stroke-width="2" />
	<rect x="400.508" y="277.739" width="354.05" height="411.084" fill="url(#paint0_linear_131_9793)" />
	<rect x="404.634" y="282.523" width="345.804" height="401.504" fill="#F7F7FD" />
	<rect x="425.52" y="327.78" width="87.4188" height="6.96174" fill="#E2E2EC" />
	<rect x="425.52" y="344.8" width="149.305" height="6.96174" fill="#E2E2EC" />
	<rect x="671.836" y="321.129" width="62.0414" height="53.5346" fill="white" />
	<path fill-rule="evenodd" clip-rule="evenodd" d="M671.501 320.819H734.169V374.974H671.501V320.819ZM733.549 374.353V321.439H672.121V374.353H733.549Z" fill="#E2E2EC" />
	<rect x="609.174" y="321.129" width="62.0414" height="53.5346" fill="white" />
	<path fill-rule="evenodd" clip-rule="evenodd" d="M608.833 320.819H671.501V374.974H608.833V320.819ZM670.881 374.353V321.439H609.453V374.353H670.881Z" fill="#E2E2EC" />
	<rect x="671.836" y="375.284" width="62.0414" height="53.5346" fill="white" />
	<path fill-rule="evenodd" clip-rule="evenodd" d="M671.501 374.974H734.169V429.129H671.501V374.974ZM733.549 428.508V375.594H672.121V428.508H733.549Z" fill="#E2E2EC" />
	<rect x="609.174" y="375.284" width="62.0414" height="53.5346" fill="white" />
	<path fill-rule="evenodd" clip-rule="evenodd" d="M608.833 374.974H671.501V429.129H608.833V374.974ZM670.881 428.508V375.594H609.453V428.508H670.881Z" fill="#E2E2EC" />
	<rect x="546.512" y="375.284" width="62.0414" height="53.5346" fill="white" />
	<path fill-rule="evenodd" clip-rule="evenodd" d="M546.196 374.974H608.864V429.129H546.196V374.974ZM608.243 428.508V375.594H546.816V428.508H608.243Z" fill="#E2E2EC" />
	<rect x="483.851" y="375.284" width="62.0414" height="53.5346" fill="white" />
	<path fill-rule="evenodd" clip-rule="evenodd" d="M483.534 374.974H546.202V429.129H483.534V374.974ZM545.582 428.508V375.594H484.155V428.508H545.582Z" fill="#E2E2EC" />
	<rect x="421.189" y="375.284" width="62.0414" height="53.5346" fill="white" />
	<path fill-rule="evenodd" clip-rule="evenodd" d="M420.872 374.974H483.54V429.129H420.872V374.974ZM482.92 428.508V375.594H421.493V428.508H482.92Z" fill="#E2E2EC" />
	<rect x="671.836" y="429.433" width="62.0414" height="53.5346" fill="white" />
	<path fill-rule="evenodd" clip-rule="evenodd" d="M671.501 429.129H734.169V483.284H671.501V429.129ZM733.549 482.664V429.749H672.121V482.664H733.549Z" fill="#E2E2EC" />
	<rect x="609.174" y="429.433" width="62.0414" height="53.5346" fill="white" />
	<path fill-rule="evenodd" clip-rule="evenodd" d="M608.833 429.129H671.501V483.284H608.833V429.129ZM670.881 482.664V429.749H609.453V482.664H670.881Z" fill="#E2E2EC" />
	<rect x="546.512" y="429.433" width="62.0414" height="53.5346" fill="white" />
	<path fill-rule="evenodd" clip-rule="evenodd" d="M546.196 429.129H608.864V483.284H546.196V429.129ZM608.243 482.664V429.749H546.816V482.664H608.243Z" fill="#E2E2EC" />
	<rect x="483.851" y="429.433" width="62.0414" height="53.5346" fill="white" />
	<path fill-rule="evenodd" clip-rule="evenodd" d="M483.534 429.129H546.202V483.284H483.534V429.129ZM545.582 482.664V429.749H484.155V482.664H545.582Z" fill="#E2E2EC" />
	<rect x="421.189" y="429.433" width="62.0414" height="53.5346" fill="white" />
	<path fill-rule="evenodd" clip-rule="evenodd" d="M420.872 429.129H483.54V483.284H420.872V429.129ZM482.92 482.664V429.749H421.493V482.664H482.92Z" fill="#E2E2EC" />
	<rect x="671.836" y="483.588" width="62.0414" height="53.5346" fill="white" />
	<path fill-rule="evenodd" clip-rule="evenodd" d="M671.501 483.278H734.169V537.433H671.501V483.278ZM733.549 536.812V483.898H672.121V536.812H733.549Z" fill="#E2E2EC" />
	<rect x="609.174" y="483.588" width="62.0414" height="53.5346" fill="white" />
	<path fill-rule="evenodd" clip-rule="evenodd" d="M608.833 483.278H671.501V537.433H608.833V483.278ZM670.881 536.812V483.898H609.453V536.812H670.881Z" fill="#E2E2EC" />
	<rect x="546.512" y="483.588" width="62.0414" height="53.5346" fill="white" />
	<path fill-rule="evenodd" clip-rule="evenodd" d="M546.196 483.278H608.864V537.433H546.196V483.278ZM608.243 536.812V483.898H546.816V536.812H608.243Z" fill="#E2E2EC" />
	<rect x="483.851" y="483.588" width="62.0414" height="53.5346" fill="white" />
	<path fill-rule="evenodd" clip-rule="evenodd" d="M483.534 483.278H546.202V537.433H483.534V483.278ZM545.582 536.812V483.898H484.155V536.812H545.582Z" fill="#E2E2EC" />
	<rect x="421.189" y="483.588" width="62.0414" height="53.5346" fill="white" />
	<path fill-rule="evenodd" clip-rule="evenodd" d="M420.872 483.278H483.54V537.433H420.872V483.278ZM482.92 536.812V483.898H421.493V536.812H482.92Z" fill="#E2E2EC" />
	<rect x="671.836" y="537.737" width="62.0414" height="53.5346" fill="white" />
	<path fill-rule="evenodd" clip-rule="evenodd" d="M671.501 537.433H734.169V591.582H671.501V537.433ZM733.549 590.961V538.053H672.121V590.961H733.549Z" fill="#E2E2EC" />
	<rect x="609.174" y="537.737" width="62.0414" height="53.5346" fill="white" />
	<path fill-rule="evenodd" clip-rule="evenodd" d="M608.833 537.433H671.501V591.582H608.833V537.433ZM670.881 590.961V538.053H609.453V590.961H670.881Z" fill="#E2E2EC" />
	<rect x="546.512" y="537.737" width="62.0414" height="53.5346" fill="white" />
	<path fill-rule="evenodd" clip-rule="evenodd" d="M546.196 537.433H608.864V591.582H546.196V537.433ZM608.243 590.961V538.053H546.816V590.961H608.243Z" fill="#E2E2EC" />
	<rect x="483.851" y="537.737" width="62.0414" height="53.5346" fill="white" />
	<path fill-rule="evenodd" clip-rule="evenodd" d="M483.534 537.433H546.202V591.582H483.534V537.433ZM545.582 590.961V538.053H484.155V590.961H545.582Z" fill="#E2E2EC" />
	<rect x="421.189" y="537.737" width="62.0414" height="53.5346" fill="white" />
	<path fill-rule="evenodd" clip-rule="evenodd" d="M420.872 537.433H483.54V591.582H420.872V537.433ZM482.92 590.961V538.053H421.493V590.961H482.92Z" fill="#E2E2EC" />
	<rect x="671.836" y="591.892" width="62.0414" height="53.5346" fill="white" />
	<path fill-rule="evenodd" clip-rule="evenodd" d="M671.501 591.582H734.169V645.737H671.501V591.582ZM733.549 645.116V592.202H672.121V645.116H733.549Z" fill="#E2E2EC" />
	<rect x="609.174" y="591.892" width="62.0414" height="53.5346" fill="white" />
	<path fill-rule="evenodd" clip-rule="evenodd" d="M608.833 591.582H671.501V645.737H608.833V591.582ZM670.881 645.116V592.202H609.453V645.116H670.881Z" fill="#E2E2EC" />
	<rect x="546.512" y="591.892" width="62.0414" height="53.5346" fill="white" />
	<path fill-rule="evenodd" clip-rule="evenodd" d="M546.196 591.582H608.864V645.737H546.196V591.582ZM608.243 645.116V592.202H546.816V645.116H608.243Z" fill="#E2E2EC" />
	<rect x="483.851" y="591.892" width="62.0414" height="53.5346" fill="white" />
	<path fill-rule="evenodd" clip-rule="evenodd" d="M483.534 591.582H546.202V645.737H483.534V591.582ZM545.582 645.116V592.202H484.155V645.116H545.582Z" fill="#E2E2EC" />
	<rect x="421.189" y="591.892" width="62.0414" height="53.5346" fill="white" />
	<path fill-rule="evenodd" clip-rule="evenodd" d="M420.872 591.582H483.54V645.737H420.872V591.582ZM482.92 645.116V592.202H421.493V645.116H482.92Z" fill="#E2E2EC" />
	<path d="M551.501 694.506C553.276 693.16 554.945 691.572 555.46 689.636C556.009 687.508 554.791 685.324 552.692 684.672C550.155 683.878 547.443 685.292 545.383 686.763C543.323 688.233 540.972 689.865 538.279 689.561C541.065 687.545 542.392 684.275 541.623 681.303C541.491 680.662 541.166 680.078 540.692 679.627C539.284 678.386 536.727 678.926 535.04 679.894C529.673 682.997 528.177 688.922 528.146 694.277C527.606 692.347 528.059 690.337 528.047 688.351C528.035 686.366 527.371 684.175 525.323 683.108C524.013 682.54 522.594 682.267 521.166 682.308C518.752 682.233 516.066 682.432 514.421 683.871C512.374 685.658 512.907 688.661 514.688 690.628C516.469 692.595 519.18 693.83 521.669 695.189C523.567 696.225 525.491 697.435 526.632 699.073C526.782 699.29 526.907 699.523 527.005 699.768H542.126C545.456 698.409 548.606 696.641 551.501 694.506Z" fill="#1E55A9" />
	<path d="M429.373 386.961C431.326 386.961 432.909 385.378 432.909 383.425C432.909 381.471 431.326 379.888 429.373 379.888C427.419 379.888 425.836 381.471 425.836 383.425C425.836 385.378 427.419 386.961 429.373 386.961Z" fill="#ECA0A0" />
	<path d="M438.208 386.961C440.162 386.961 441.745 385.378 441.745 383.425C441.745 381.471 440.162 379.888 438.208 379.888C436.255 379.888 434.672 381.471 434.672 383.425C434.672 385.378 436.255 386.961 438.208 386.961Z" fill="#4B40D1" />
	<path d="M554.262 439.392C556.215 439.392 557.799 437.808 557.799 435.855C557.799 433.902 556.215 432.318 554.262 432.318C552.309 432.318 550.725 433.902 550.725 435.855C550.725 437.808 552.309 439.392 554.262 439.392Z" fill="#ECA0A0" />
	<path d="M563.104 439.392C565.057 439.392 566.641 437.808 566.641 435.855C566.641 433.902 565.057 432.318 563.104 432.318C561.151 432.318 559.567 433.902 559.567 435.855C559.567 437.808 561.151 439.392 563.104 439.392Z" fill="#ECA0A0" />
	<path d="M743.365 540.715C745.318 540.715 746.901 539.132 746.901 537.178C746.901 535.225 745.318 533.642 743.365 533.642C741.411 533.642 739.828 535.225 739.828 537.178C739.828 539.132 741.411 540.715 743.365 540.715Z" fill="#ECA0A0" />
	<path d="M745.133 536.595C747.086 536.595 748.67 535.012 748.67 533.058C748.67 531.105 747.086 529.522 745.133 529.522C743.18 529.522 741.596 531.105 741.596 533.058C741.596 535.012 743.18 536.595 745.133 536.595Z" fill="#ECA0A0" />
	<path d="M746.901 533.059C748.854 533.059 750.438 531.475 750.438 529.522C750.438 527.569 748.854 525.985 746.901 525.985C744.948 525.985 743.365 527.569 743.365 529.522C743.365 531.475 744.948 533.059 746.901 533.059Z" fill="#ECA0A0" />
	<path d="M680.92 386.961C682.873 386.961 684.456 385.378 684.456 383.425C684.456 381.471 682.873 379.888 680.92 379.888C678.966 379.888 677.383 381.471 677.383 383.425C677.383 385.378 678.966 386.961 680.92 386.961Z" fill="#ECA0A0" />
	<path d="M689.755 386.961C691.709 386.961 693.292 385.378 693.292 383.425C693.292 381.471 691.709 379.888 689.755 379.888C687.802 379.888 686.219 381.471 686.219 383.425C686.219 385.378 687.802 386.961 689.755 386.961Z" fill="#ECA0A0" />
	<path d="M698.597 386.961C700.551 386.961 702.134 385.378 702.134 383.425C702.134 381.471 700.551 379.888 698.597 379.888C696.644 379.888 695.061 381.471 695.061 383.425C695.061 385.378 696.644 386.961 698.597 386.961Z" fill="#ECA0A0" />
	<path d="M707.433 386.961C709.386 386.961 710.969 385.378 710.969 383.425C710.969 381.471 709.386 379.888 707.433 379.888C705.479 379.888 703.896 381.471 703.896 383.425C703.896 385.378 705.479 386.961 707.433 386.961Z" fill="#ECA0A0" />
	<path d="M680.92 496.531C682.873 496.531 684.456 494.948 684.456 492.994C684.456 491.041 682.873 489.458 680.92 489.458C678.966 489.458 677.383 491.041 677.383 492.994C677.383 494.948 678.966 496.531 680.92 496.531Z" fill="#ECA0A0" />
	<path d="M689.755 496.531C691.709 496.531 693.292 494.948 693.292 492.994C693.292 491.041 691.709 489.458 689.755 489.458C687.802 489.458 686.219 491.041 686.219 492.994C686.219 494.948 687.802 496.531 689.755 496.531Z" fill="#ECA0A0" />
	<path d="M698.597 496.531C700.551 496.531 702.134 494.948 702.134 492.994C702.134 491.041 700.551 489.458 698.597 489.458C696.644 489.458 695.061 491.041 695.061 492.994C695.061 494.948 696.644 496.531 698.597 496.531Z" fill="#ECA0A0" />
	<path d="M707.433 496.531C709.386 496.531 710.969 494.948 710.969 492.994C710.969 491.041 709.386 489.458 707.433 489.458C705.479 489.458 703.896 491.041 703.896 492.994C703.896 494.948 705.479 496.531 707.433 496.531Z" fill="#ECA0A0" />
	<path d="M491.817 439.392C493.771 439.392 495.354 437.808 495.354 435.855C495.354 433.902 493.771 432.318 491.817 432.318C489.864 432.318 488.281 433.902 488.281 435.855C488.281 437.808 489.864 439.392 491.817 439.392Z" fill="#4B40D1" />
	<path d="M429.373 493.001C431.326 493.001 432.909 491.417 432.909 489.464C432.909 487.511 431.326 485.927 429.373 485.927C427.419 485.927 425.836 487.511 425.836 489.464C425.836 491.417 427.419 493.001 429.373 493.001Z" fill="#ECA0A0" />
	<path fill-rule="evenodd" clip-rule="evenodd" d="M757.902 544.91C750.239 549.83 744.19 548.341 740.312 546.051C739.135 545.374 738.359 544.168 738.23 542.816C738.1 541.464 738.633 540.133 739.66 539.245C741.863 537.185 743.777 534.837 745.35 532.264C748.676 527.034 754.254 524.204 758.07 522.802V521.102L757.834 521.058L757.939 519.476H757.834L758.107 515.3V515.263L759.466 494.397C759.466 494.397 764.361 480.523 755.662 467.716C746.963 454.91 755.116 442.63 763.269 437.828C763.269 437.828 767.079 417.545 763.815 412.742C768.235 410.174 772.792 407.85 777.466 405.78C777.536 405.528 777.602 405.271 777.664 405.011C777.731 403.567 777.815 402.108 777.898 400.67C777.924 400.224 777.95 399.781 777.975 399.34C777.866 398.358 777.688 397.386 777.441 396.43C777.342 396.033 777.224 395.629 777.094 395.22C769.115 392.124 763.843 384.462 763.803 375.904C763.798 373.472 764.227 371.057 765.069 368.775C764.655 368.062 764.34 367.296 764.132 366.498C763.604 364.333 764.181 362.031 765.422 359.84C767.582 355.075 773.017 350.632 776.963 349.019C782.616 346.723 791.123 347.251 797.005 347.964C800.306 348.361 804.078 349.472 805.269 352.525C805.532 353.19 805.642 353.897 805.753 354.605C805.828 355.086 805.903 355.567 806.026 356.037C806.832 359.098 809.411 361.085 812.021 363.096C813.389 364.15 814.765 365.211 815.898 366.436C818.808 369.582 820.093 373.838 821.036 377.989C823.742 389.886 824.386 402.16 822.941 414.275C822.612 417.061 822.171 419.834 821.7 422.608C823.679 425.4 825.472 430.345 824.653 438.932L831.174 469.888L833.892 488.037C833.892 488.037 835.524 495.513 829.003 501.917C824.839 506 819.795 512.905 816.692 517.373C818.059 521.321 818.743 525.474 818.715 529.652C818.647 531.557 818.541 533.394 818.411 535.143C818.135 538.857 817.435 542.527 816.326 546.082C815.563 553.534 814.055 563.065 811.108 569.145L810.004 601.702C810.004 601.702 811.635 631.59 814.893 637.46C818.15 643.329 807.826 692.967 807.826 692.967V699.898L809.569 705.03L810.004 704.701C818.157 714.858 810.004 718.581 810.004 718.581C810.004 718.581 807.789 718.686 804.239 718.823C804.866 721.744 803.437 724.72 800.765 726.057C800.765 726.057 754.57 728.192 746.417 726.057C738.264 723.923 740.442 716.452 744.785 716.986C746.442 717.191 748.899 716.75 751.294 716.13C748.756 713.158 750.785 709.118 754.024 709.516C758.368 710.049 768.146 706.171 768.146 706.171L768.19 706.233C768.503 706.114 768.825 706.017 769.151 705.942C772.785 705.117 776.374 704.106 779.904 702.914C782.002 698.415 786.835 686.335 783.367 676.959C781.797 672.721 781.288 667.087 781.288 661.621C781.206 645.123 778.796 628.719 774.128 612.895L767.613 590.496C767.613 590.496 758.374 563.251 757.828 555.805L757.902 544.91ZM805.933 490.598C805.933 490.6 805.933 490.603 805.933 490.606L805.927 490.599C805.929 490.599 805.931 490.598 805.933 490.598ZM805.933 490.598C808.874 489.641 813.279 487.389 812.175 482.688C811.989 481.906 811.834 481.05 811.704 480.15C810.421 480.146 809.141 480.132 807.863 480.107C806.275 483.362 805.607 486.99 805.933 490.598Z" fill="url(#paint1_linear_131_9793)" />
	<path d="M807.007 697.466L809.098 703.739L802.273 710.564L779.787 715.795L763.573 714.225L764.622 708.473C765.254 705.952 767.241 703.996 769.772 703.404C776.436 701.84 789.143 698.266 791.811 693.309L807.007 697.466Z" fill="white" />
	<path d="M807.007 697.466L809.098 703.739L802.273 710.564L779.787 715.795L763.573 714.225L764.622 708.473C765.254 705.952 767.241 703.996 769.772 703.404C776.436 701.84 789.143 698.266 791.811 693.309L807.007 697.466Z" fill="#F2DEB7" fill-opacity="0.25" />
	<path opacity="0.1" d="M807.007 697.466L809.098 703.739L802.273 710.564L779.787 715.795L763.573 714.225L764.622 708.473C765.254 705.952 767.241 703.996 769.772 703.404C776.436 701.84 789.143 698.266 791.811 693.309L807.007 697.466Z" fill="black" />
	<path d="M768.829 712.63L771.968 708.448L768.829 703.602C768.829 703.602 759.416 707.4 755.234 706.878C751.052 706.357 748.961 713.704 756.804 715.77C764.647 717.836 809.098 715.77 809.098 715.77C809.098 715.77 816.941 712.109 809.098 702.175L802.272 707.406C802.272 707.406 790.769 713.679 785.017 712.637L768.829 712.63Z" fill="#2E3037" />
	<path d="M754.707 721.509L770.92 723.079L793.406 717.849L800.231 711.023L799.679 709.36L798.897 707.027L798.115 704.756L782.951 700.574C782.176 701.839 781.113 702.902 779.848 703.677C774.922 707.046 766.074 709.478 760.881 710.694C760.67 710.746 760.463 710.81 760.26 710.887C758.025 711.638 756.327 713.476 755.755 715.764L754.707 721.509Z" fill="white" />
	<path d="M754.707 721.509L770.92 723.079L793.406 717.849L800.231 711.023L799.679 709.36L798.897 707.027L798.115 704.756L782.951 700.574C782.176 701.839 781.113 702.902 779.848 703.677C774.922 707.046 766.074 709.478 760.881 710.694C760.67 710.746 760.463 710.81 760.26 710.887C758.025 711.638 756.327 713.476 755.755 715.764L754.707 721.509Z" fill="#F2DEB7" fill-opacity="0.25" />
	<path opacity="0.1" d="M754.707 721.509L770.92 723.079L793.406 717.849L800.231 711.023L799.679 709.36L793.437 714.163C793.437 714.163 781.933 720.436 776.181 719.394H759.937L763.077 715.212L760.26 710.868C758.025 711.619 756.327 713.458 755.755 715.745L754.707 721.509Z" fill="black" />
	<path d="M759.937 719.952L763.077 715.77L759.937 710.924C759.937 710.924 750.525 714.721 746.343 714.2C742.161 713.679 740.07 721.025 747.913 723.092C755.755 725.158 800.206 723.092 800.206 723.092C800.206 723.092 808.049 719.431 800.206 709.497L793.381 714.728C793.381 714.728 781.877 721.001 776.126 719.958L759.937 719.952Z" fill="#2E3037" />
	<path d="M773.011 416.645C773.011 416.645 798.115 419.257 794.454 408.802C793.431 405.837 793.164 402.663 793.679 399.569C794.33 395.733 795.847 392.096 798.115 388.934L774.581 392.595C775.991 394.953 777.064 397.497 777.77 400.153C780.574 411.24 773.011 416.645 773.011 416.645Z" fill="white" />
	<path d="M773.011 416.645C773.011 416.645 798.115 419.257 794.454 408.802C793.431 405.837 793.164 402.663 793.679 399.569C794.33 395.733 795.847 392.096 798.115 388.934L774.581 392.595C775.991 394.953 777.064 397.497 777.77 400.153C780.574 411.24 773.011 416.645 773.011 416.645Z" fill="#F2DEB7" fill-opacity="0.25" />
	<path d="M815.892 535.875C815.892 535.875 815.371 558.362 810.14 569.344L809.091 601.243C809.091 601.243 810.661 630.529 813.801 636.281C816.94 642.033 806.976 690.666 806.976 690.666V699.036C806.976 699.036 790.223 705.309 785.532 697.987L790.241 635.753L788.15 549.47L815.892 535.875Z" fill="#474463" />
	<path opacity="0.1" d="M815.892 535.875C815.892 535.875 815.371 558.362 810.14 569.344L809.091 601.243C809.091 601.243 810.661 630.529 813.801 636.281C816.94 642.033 806.976 690.666 806.976 690.666V699.036C806.976 699.036 790.223 705.309 785.532 697.987L790.241 635.753L788.15 549.47L815.892 535.875Z" fill="black" />
	<path d="M826.353 463.708L829.493 472.078L832.105 489.861C832.821 494.887 831.067 499.95 827.396 503.456C821.123 509.729 812.752 522.802 812.752 522.802L802.825 493.019C802.825 493.019 812.752 491.449 811.195 484.649C809.638 477.849 810.14 465.253 810.14 465.253L826.353 463.708Z" fill="#ECA0A0" />
	<path opacity="0.05" d="M826.353 463.708L829.493 472.078L832.105 489.861C832.821 494.887 831.067 499.95 827.396 503.456C821.123 509.729 812.752 522.802 812.752 522.802L802.825 493.019C802.825 493.019 812.752 491.449 811.195 484.649C809.638 477.849 810.14 465.253 810.14 465.253L826.353 463.708Z" fill="black" />
	<path opacity="0.1" d="M779.873 703.683C786.581 714.231 797.023 708.256 798.872 707.065L798.115 704.756L782.951 700.574C782.184 701.838 781.129 702.903 779.873 703.683H779.873Z" fill="black" />
	<path d="M758.895 556.271C759.416 563.592 768.308 590.26 768.308 590.26L774.581 612.206C779.076 627.724 781.396 643.79 781.474 659.946C781.474 665.301 781.964 670.823 783.478 674.974C787.66 686.477 779.296 702.169 779.296 702.169C786.618 715.243 799.151 706.351 799.151 706.351V697.987C799.151 697.987 809.079 652.488 806.473 643.602C803.867 634.717 802.812 610.655 802.812 610.655V567.222C811.189 558.875 816.283 547.792 817.164 536C817.288 534.287 817.387 532.488 817.456 530.62C817.877 518.831 809.811 504.988 806.659 500.062C805.902 498.87 805.418 498.2 805.418 498.2L759.242 516.517L759.137 516.56V518.347V522.299L758.895 556.271Z" fill="#474463" />
	<path opacity="0.1" d="M774.581 392.589C775.991 394.947 777.064 397.491 777.77 400.146C782.934 402.106 788.672 401.895 793.679 399.563C794.331 395.729 795.848 392.094 798.115 388.934L774.581 392.589Z" fill="black" />
	<path d="M785.042 400.426C796.306 400.426 805.437 391.294 805.437 380.031C805.437 368.767 796.306 359.635 785.042 359.635C773.778 359.635 764.647 368.767 764.647 380.031C764.647 391.294 773.778 400.426 785.042 400.426Z" fill="white" />
	<path d="M785.042 400.426C796.306 400.426 805.437 391.294 805.437 380.031C805.437 368.767 796.306 359.635 785.042 359.635C773.778 359.635 764.647 368.767 764.647 380.031C764.647 391.294 773.778 400.426 785.042 400.426Z" fill="#F2DEB7" fill-opacity="0.25" />
	<path opacity="0.1" d="M758.895 522.281L759.118 522.324C781.046 526.835 808.577 503.977 808.577 503.977C807.839 502.733 807.202 501.432 806.672 500.086C805.915 498.895 805.431 498.225 805.431 498.225L759.255 516.541L759.137 518.372L758.895 522.281Z" fill="black" />
	<path d="M764.647 416.117C764.647 416.117 793.933 398.335 803.346 405.656L816.419 422.409C816.419 422.409 824.789 425.021 823.244 441.755L829.493 472.078L810.667 476.787C810.667 476.787 799.685 487.249 808.576 502.413C808.576 502.413 780.86 525.42 758.895 520.717L760.465 496.14C760.465 496.14 765.174 482.545 756.804 469.993C748.434 457.441 756.283 445.416 764.126 440.707C764.126 440.701 767.78 420.827 764.647 416.117Z" fill="#ECA0A0" />
	<path d="M763.077 522.802C763.077 522.802 752.095 524.893 746.864 533.263C745.355 535.774 743.514 538.07 741.391 540.088C740.423 540.967 739.925 542.249 740.047 543.551C740.169 544.852 740.897 546.02 742.012 546.703C746.163 549.185 752.932 550.73 761.482 543.706C776.15 531.693 763.077 522.802 763.077 522.802Z" fill="white" />
	<path d="M763.077 522.802C763.077 522.802 752.095 524.893 746.864 533.263C745.355 535.774 743.514 538.07 741.391 540.088C740.423 540.967 739.925 542.249 740.047 543.551C740.169 544.852 740.897 546.02 742.012 546.703C746.163 549.185 752.932 550.73 761.482 543.706C776.15 531.693 763.077 522.802 763.077 522.802Z" fill="#F2DEB7" fill-opacity="0.25" />
	<path opacity="0.1" d="M779.29 426.057C779.29 426.057 789.751 425.009 792.363 452.204C794.976 479.4 799.189 485.673 799.189 485.673C799.189 485.673 801.801 499.795 795.528 508.159C789.255 516.523 777.224 534.306 777.224 534.306C777.224 534.306 764.15 537.966 761.538 524.893L777.751 494.564C777.751 494.564 780.363 484.103 774.09 476.781C767.817 469.46 763.077 420.827 779.29 426.057Z" fill="black" />
	<path d="M778.223 424.488C778.223 424.488 788.684 423.439 791.296 450.634C793.908 477.83 798.121 484.103 798.121 484.103C798.121 484.103 800.734 498.225 794.461 506.589C788.188 514.953 776.157 532.736 776.157 532.736C776.157 532.736 763.083 536.397 760.471 523.323L776.684 492.994C776.684 492.994 779.296 482.533 773.023 475.211C766.75 467.89 762.028 419.257 778.223 424.488Z" fill="#ECA0A0" />
	<path opacity="0.1" d="M769.611 444.095C769.611 444.095 768.568 460.289 773.259 469.199C777.95 478.109 777.968 489.594 773.259 495.88" fill="black" />
	<path opacity="0.1" d="M766.998 424.227C766.998 424.227 771.18 420.045 783.211 419.518C795.242 418.99 800.467 415.336 800.467 415.336" fill="black" />
	<path opacity="0.1" d="M796.086 353.679C799.263 354.07 802.912 355.162 804.041 358.146C804.463 359.245 804.475 360.455 804.767 361.59C805.952 366.157 811.096 368.285 814.266 371.778C817.065 374.881 818.299 379.032 819.23 383.096C821.841 394.75 822.47 406.761 821.091 418.624C820.074 427.311 817.989 435.836 817.406 444.548C816.823 453.259 817.89 462.423 822.649 469.745C824.696 472.891 827.402 475.658 828.854 479.12C825.857 481.553 821.718 481.9 817.853 482.031C813.356 482.184 808.858 482.184 804.357 482.031C801.999 481.95 799.536 481.795 797.501 480.603C795.994 479.64 794.756 478.31 793.902 476.738C791.327 472.395 790.682 467.12 790.8 462.057C790.918 456.994 791.712 451.956 791.805 446.887C791.855 444.126 791.637 441.191 790.049 438.932C788.901 437.3 787.158 436.202 785.669 434.881C780.084 429.917 778.148 421.962 777.962 414.486C777.776 407.009 779.011 399.52 778.378 392.068C778.13 389.152 777.038 385.646 774.171 385.081C773.265 384.901 772.31 385.081 771.441 384.734C769.139 383.846 769.362 380.601 768.705 378.225C767.966 375.557 765.689 373.497 765.05 370.779C763.542 364.45 771.596 356.899 776.876 354.696C782.243 352.45 790.428 352.984 796.086 353.679Z" fill="black" />
	<path d="M796.608 352.637C799.784 353.028 803.433 354.12 804.562 357.104C804.984 358.202 804.996 359.412 805.288 360.548C806.473 365.114 811.617 367.243 814.787 370.736C817.586 373.838 818.821 377.989 819.751 382.053C822.362 393.708 822.992 405.719 821.613 417.582C820.595 426.269 818.51 434.794 817.927 443.505C817.344 452.217 818.411 461.381 823.17 468.703C825.218 471.849 827.923 474.616 829.375 478.078C826.378 480.51 822.239 480.858 818.374 480.988C813.877 481.141 809.379 481.141 804.878 480.988C802.521 480.908 800.057 480.752 798.022 479.561C796.515 478.597 795.277 477.267 794.423 475.696C791.848 471.352 791.203 466.078 791.321 461.015C791.439 455.952 792.233 450.914 792.326 445.845C792.376 443.083 792.159 440.149 790.57 437.89C789.422 436.258 787.679 435.16 786.19 433.838C780.605 428.875 778.67 420.92 778.483 413.443C778.297 405.967 779.532 398.477 778.899 391.025C778.651 388.109 777.559 384.604 774.692 384.039C773.786 383.859 772.831 384.039 771.962 383.691C769.66 382.804 769.884 379.559 769.226 377.183C768.488 374.515 766.21 372.455 765.571 369.737C764.064 363.408 772.117 355.857 777.398 353.654C782.765 351.402 790.949 351.936 796.608 352.637Z" fill="#472727" />
	<defs>
		<linearGradient id="paint0_linear_131_9793" x1="754.558" y1="688.817" x2="754.558" y2="277.739" gradientUnits="userSpaceOnUse">
			<stop stop-color="#808080" stop-opacity="0.25" />
			<stop offset="0.54" stop-color="#808080" stop-opacity="0.12" />
			<stop offset="1" stop-color="#808080" stop-opacity="0.1" />
		</linearGradient>
		<linearGradient id="paint1_linear_131_9793" x1="834.092" y1="727.013" x2="834.092" y2="347.35" gradientUnits="userSpaceOnUse">
			<stop stop-color="#808080" stop-opacity="0.25" />
			<stop offset="0.54" stop-color="#808080" stop-opacity="0.12" />
			<stop offset="1" stop-color="#808080" stop-opacity="0.1" />
		</linearGradient>
	</defs>
</svg>
