<?xml version="1.0" encoding="utf-8"?>
<!-- Generator: Adobe Illustrator 23.0.1, SVG Export Plug-In . SVG Version: 6.00 Build 0)  -->
<svg version="1.1" id="Layer_1" xmlns="http://www.w3.org/2000/svg" xmlns:xlink="http://www.w3.org/1999/xlink" x="0px" y="0px"
	 viewBox="0 0 34 26" style="enable-background:new 0 0 34 26;" xml:space="preserve">
<style type="text/css">
	.st0{clip-path:url(#SVGID_2_);}
	.st1{fill:#4ACBD3;}
	.st2{fill:#1E55A9;}
	.st3{fill:#4B40D1;}
</style>
<g>
	<defs>
		<rect id="SVGID_1_" y="-11" width="34" height="37"/>
	</defs>
	<clipPath id="SVGID_2_">
		<use xlink:href="#SVGID_1_"  style="overflow:visible;"/>
	</clipPath>
	<g class="st0">
		<path class="st1" d="M0,8.5c0-2.2,1.8-4,4-4h21.8c2.2,0,4,1.8,4,4v15.2c0,0.6-0.4,1.2-1.2,1.6c-0.8,0.4-1.8,0.7-2.9,0.7H4
			c-1.1,0-2.1-0.2-2.9-0.7c-0.8-0.4-1.2-1-1.2-1.6V8.5z"/>
		<g>
			<path class="st2" d="M30,16.1c2.2,0,4,1.8,4,4V22c0,1.1-0.4,2.1-1.2,2.8C32.1,25.6,31.1,26,30,26H3.8c1.1,0,2.1-0.4,2.8-1.2
				c0.8-0.7,1.2-1.8,1.2-2.8v-1.9c0-2.2,1.8-4,4-4H30z"/>
		</g>
	</g>
</g>
<path class="st3" d="M20,0H10C7.8,0,6,1.8,6,4s1.8,4,4,4h10c2.2,0,4-1.8,4-4S22.2,0,20,0z"/>
</svg>
