<svg width="98" height="94" viewBox="0 0 98 94" fill="none" xmlns="http://www.w3.org/2000/svg">
	<path opacity="0.5" d="M2.96907 1.1699C1.99128 1.57517 1.20913 2.35696 0.803615 3.33435L1.26544 3.52596C1.09456 3.93783 1 4.38985 1 4.8652V6.79636H0.5V10.6587H1V14.521H0.5V18.3833H1V22.2456H0.5V26.1079H1V29.9702H0.5V33.8325H1V37.6948H0.5V41.5571H1V45.4194H0.5V49.2817H1V53.1441H0.5V57.0064H1V60.8687H0.5V64.731H1V68.5933H0.5V72.4556H1V76.3179H0.5V80.1802H1V84.0425H0.5V87.9048H1V89.836C1 90.3113 1.09456 90.7633 1.26544 91.1752L0.803615 91.3668C1.20913 92.3442 1.99128 93.126 2.96907 93.5313L3.16052 93.0694C3.57246 93.2401 4.02456 93.3346 4.5 93.3346H6.52273V93.8346H10.5682V93.3346H14.6136V93.8346H18.6591V93.3346H22.7045V93.8346H26.75V93.3346H30.7955V93.8346H34.8409V93.3346H38.8864V93.8346H42.9318V93.3346H46.9773V93.8346H51.0227V93.3346H55.0682V93.8346H59.1136V93.3346H63.1591V93.8346H67.2046V93.3346H71.25V93.8346H75.2955V93.3346H79.3409V93.8346H83.3864V93.3346H87.4318V93.8346H91.4773V93.3346H93.5C93.9754 93.3346 94.4275 93.2401 94.8395 93.0694L95.0309 93.5313C96.0087 93.126 96.7909 92.3442 97.1964 91.3668L96.7346 91.1752C96.9054 90.7633 97 90.3113 97 89.836V87.9048H97.5V84.0425H97V80.1802H97.5V76.3179H97V72.4556H97.5V68.5933H97V64.731H97.5V60.8687H97V57.0063H97.5V53.144H97V49.2817H97.5V45.4194H97V41.5571H97.5V37.6948H97V33.8325H97.5V29.9702H97V26.1079H97.5V22.2456H97V18.3833H97.5V14.521H97V10.6587H97.5V6.79635H97V4.8652C97 4.38985 96.9054 3.93783 96.7346 3.52596L97.1964 3.33435C96.7909 2.35696 96.0087 1.57517 95.0309 1.1699L94.8395 1.6318C94.4275 1.46106 93.9754 1.36658 93.5 1.36658H91.4773V0.866577H87.4318V1.36658H83.3864V0.866577H79.3409V1.36658H75.2955V0.866577H71.25V1.36658H67.2045V0.866577H63.1591V1.36658H59.1136V0.866577H55.0682V1.36658H51.0227V0.866577H46.9773V1.36658H42.9318V0.866577H38.8864V1.36658H34.8409V0.866577H30.7955V1.36658H26.75V0.866577H22.7045V1.36658H18.6591V0.866577H14.6136V1.36658H10.5682V0.866577H6.52271V1.36658H4.5C4.02456 1.36658 3.57246 1.46106 3.16052 1.6318L2.96907 1.1699Z" fill="#F2F2F2" stroke="#9C9C9C" stroke-dasharray="4 4" />
	<path d="M19.5634 76.588C19.5274 76.648 19.4874 76.694 19.4434 76.726C19.4034 76.754 19.3534 76.768 19.2934 76.768C19.2254 76.768 19.1454 76.734 19.0534 76.666C18.9614 76.598 18.8454 76.524 18.7054 76.444C18.5694 76.36 18.4034 76.284 18.2074 76.216C18.0154 76.148 17.7814 76.114 17.5054 76.114C17.2454 76.114 17.0154 76.15 16.8154 76.222C16.6194 76.29 16.4534 76.384 16.3174 76.504C16.1854 76.624 16.0854 76.766 16.0174 76.93C15.9494 77.09 15.9154 77.264 15.9154 77.452C15.9154 77.692 15.9734 77.892 16.0894 78.052C16.2094 78.208 16.3654 78.342 16.5574 78.454C16.7534 78.566 16.9734 78.664 17.2174 78.748C17.4654 78.828 17.7174 78.912 17.9734 79C18.2334 79.088 18.4854 79.188 18.7294 79.3C18.9774 79.408 19.1974 79.546 19.3894 79.714C19.5854 79.882 19.7414 80.088 19.8574 80.332C19.9774 80.576 20.0374 80.876 20.0374 81.232C20.0374 81.608 19.9734 81.962 19.8454 82.294C19.7174 82.622 19.5294 82.908 19.2814 83.152C19.0374 83.396 18.7354 83.588 18.3754 83.728C18.0194 83.868 17.6134 83.938 17.1574 83.938C16.5974 83.938 16.0894 83.838 15.6334 83.638C15.1774 83.434 14.7874 83.16 14.4634 82.816L14.7994 82.264C14.8314 82.22 14.8694 82.184 14.9134 82.156C14.9614 82.124 15.0134 82.108 15.0694 82.108C15.1214 82.108 15.1794 82.13 15.2434 82.174C15.3114 82.214 15.3874 82.266 15.4714 82.33C15.5554 82.394 15.6514 82.464 15.7594 82.54C15.8674 82.616 15.9894 82.686 16.1254 82.75C16.2654 82.814 16.4234 82.868 16.5994 82.912C16.7754 82.952 16.9734 82.972 17.1934 82.972C17.4694 82.972 17.7154 82.934 17.9314 82.858C18.1474 82.782 18.3294 82.676 18.4774 82.54C18.6294 82.4 18.7454 82.234 18.8254 82.042C18.9054 81.85 18.9454 81.636 18.9454 81.4C18.9454 81.14 18.8854 80.928 18.7654 80.764C18.6494 80.596 18.4954 80.456 18.3034 80.344C18.1114 80.232 17.8914 80.138 17.6434 80.062C17.3954 79.982 17.1434 79.902 16.8874 79.822C16.6314 79.738 16.3794 79.642 16.1314 79.534C15.8834 79.426 15.6634 79.286 15.4714 79.114C15.2794 78.942 15.1234 78.728 15.0034 78.472C14.8874 78.212 14.8294 77.892 14.8294 77.512C14.8294 77.208 14.8874 76.914 15.0034 76.63C15.1234 76.346 15.2954 76.094 15.5194 75.874C15.7474 75.654 16.0254 75.478 16.3534 75.346C16.6854 75.214 17.0654 75.148 17.4934 75.148C17.9734 75.148 18.4094 75.224 18.8014 75.376C19.1974 75.528 19.5454 75.748 19.8454 76.036L19.5634 76.588ZM22.4984 77.764V83.842H21.4304V77.764H22.4984ZM22.7264 75.856C22.7264 75.96 22.7044 76.058 22.6604 76.15C22.6204 76.238 22.5644 76.318 22.4924 76.39C22.4244 76.458 22.3424 76.512 22.2464 76.552C22.1544 76.592 22.0564 76.612 21.9524 76.612C21.8484 76.612 21.7504 76.592 21.6584 76.552C21.5704 76.512 21.4924 76.458 21.4244 76.39C21.3564 76.318 21.3024 76.238 21.2624 76.15C21.2224 76.058 21.2024 75.96 21.2024 75.856C21.2024 75.752 21.2224 75.654 21.2624 75.562C21.3024 75.466 21.3564 75.384 21.4244 75.316C21.4924 75.244 21.5704 75.188 21.6584 75.148C21.7504 75.108 21.8484 75.088 21.9524 75.088C22.0564 75.088 22.1544 75.108 22.2464 75.148C22.3424 75.188 22.4244 75.244 22.4924 75.316C22.5644 75.384 22.6204 75.466 22.6604 75.562C22.7044 75.654 22.7264 75.752 22.7264 75.856ZM25.2612 78.646C25.3932 78.498 25.5332 78.364 25.6812 78.244C25.8292 78.124 25.9852 78.022 26.1492 77.938C26.3172 77.85 26.4932 77.784 26.6772 77.74C26.8652 77.692 27.0672 77.668 27.2832 77.668C27.6152 77.668 27.9072 77.724 28.1592 77.836C28.4152 77.944 28.6272 78.1 28.7952 78.304C28.9672 78.504 29.0972 78.746 29.1852 79.03C29.2732 79.314 29.3172 79.628 29.3172 79.972V83.842H28.2432V79.972C28.2432 79.512 28.1372 79.156 27.9252 78.904C27.7172 78.648 27.3992 78.52 26.9712 78.52C26.6552 78.52 26.3592 78.596 26.0832 78.748C25.8112 78.9 25.5592 79.106 25.3272 79.366V83.842H24.2532V77.764H24.8952C25.0472 77.764 25.1412 77.838 25.1772 77.986L25.2612 78.646ZM33.0626 80.872C33.2786 80.872 33.4686 80.842 33.6326 80.782C33.7966 80.722 33.9346 80.638 34.0466 80.53C34.1586 80.422 34.2426 80.294 34.2986 80.146C34.3546 79.994 34.3826 79.828 34.3826 79.648C34.3826 79.276 34.2686 78.98 34.0406 78.76C33.8166 78.54 33.4906 78.43 33.0626 78.43C32.6306 78.43 32.3006 78.54 32.0726 78.76C31.8486 78.98 31.7366 79.276 31.7366 79.648C31.7366 79.828 31.7646 79.994 31.8206 80.146C31.8806 80.294 31.9666 80.422 32.0786 80.53C32.1906 80.638 32.3286 80.722 32.4926 80.782C32.6566 80.842 32.8466 80.872 33.0626 80.872ZM34.9886 84.172C34.9886 84.024 34.9466 83.904 34.8626 83.812C34.7786 83.72 34.6646 83.648 34.5206 83.596C34.3806 83.544 34.2166 83.508 34.0286 83.488C33.8406 83.464 33.6406 83.446 33.4286 83.434C33.2206 83.422 33.0086 83.41 32.7926 83.398C32.5766 83.386 32.3686 83.366 32.1686 83.338C31.9446 83.442 31.7606 83.574 31.6166 83.734C31.4766 83.89 31.4066 84.074 31.4066 84.286C31.4066 84.422 31.4406 84.548 31.5086 84.664C31.5806 84.784 31.6886 84.886 31.8326 84.97C31.9766 85.058 32.1566 85.126 32.3726 85.174C32.5926 85.226 32.8506 85.252 33.1466 85.252C33.4346 85.252 33.6926 85.226 33.9206 85.174C34.1486 85.122 34.3406 85.048 34.4966 84.952C34.6566 84.856 34.7786 84.742 34.8626 84.61C34.9466 84.478 34.9886 84.332 34.9886 84.172ZM36.0746 78.004V78.4C36.0746 78.532 35.9906 78.616 35.8226 78.652L35.1326 78.742C35.2686 79.006 35.3366 79.298 35.3366 79.618C35.3366 79.914 35.2786 80.184 35.1626 80.428C35.0506 80.668 34.8946 80.874 34.6946 81.046C34.4946 81.218 34.2546 81.35 33.9746 81.442C33.6946 81.534 33.3906 81.58 33.0626 81.58C32.7786 81.58 32.5106 81.546 32.2586 81.478C32.1306 81.558 32.0326 81.644 31.9646 81.736C31.8966 81.824 31.8626 81.914 31.8626 82.006C31.8626 82.15 31.9206 82.26 32.0366 82.336C32.1566 82.408 32.3126 82.46 32.5046 82.492C32.6966 82.524 32.9146 82.544 33.1586 82.552C33.4066 82.56 33.6586 82.574 33.9146 82.594C34.1746 82.61 34.4266 82.64 34.6706 82.684C34.9186 82.728 35.1386 82.8 35.3306 82.9C35.5226 83 35.6766 83.138 35.7926 83.314C35.9126 83.49 35.9726 83.718 35.9726 83.998C35.9726 84.258 35.9066 84.51 35.7746 84.754C35.6466 84.998 35.4606 85.214 35.2166 85.402C34.9726 85.594 34.6726 85.746 34.3166 85.858C33.9646 85.974 33.5666 86.032 33.1226 86.032C32.6786 86.032 32.2906 85.988 31.9586 85.9C31.6266 85.812 31.3506 85.694 31.1306 85.546C30.9106 85.398 30.7446 85.226 30.6326 85.03C30.5246 84.838 30.4706 84.636 30.4706 84.424C30.4706 84.124 30.5646 83.87 30.7526 83.662C30.9406 83.454 31.1986 83.288 31.5266 83.164C31.3466 83.084 31.2026 82.978 31.0946 82.846C30.9906 82.71 30.9386 82.528 30.9386 82.3C30.9386 82.212 30.9546 82.122 30.9866 82.03C31.0186 81.934 31.0666 81.84 31.1306 81.748C31.1986 81.652 31.2806 81.562 31.3766 81.478C31.4726 81.394 31.5846 81.32 31.7126 81.256C31.4126 81.088 31.1786 80.866 31.0106 80.59C30.8426 80.31 30.7586 79.986 30.7586 79.618C30.7586 79.322 30.8146 79.054 30.9266 78.814C31.0426 78.57 31.2026 78.364 31.4066 78.196C31.6106 78.024 31.8526 77.892 32.1326 77.8C32.4166 77.708 32.7266 77.662 33.0626 77.662C33.3266 77.662 33.5726 77.692 33.8006 77.752C34.0286 77.808 34.2366 77.892 34.4246 78.004H36.0746ZM38.283 75.004V83.842H37.215V75.004H38.283ZM44.0829 80.14C44.0829 79.892 44.0469 79.666 43.9749 79.462C43.9069 79.254 43.8049 79.076 43.6689 78.928C43.5369 78.776 43.3749 78.66 43.1829 78.58C42.9909 78.496 42.7729 78.454 42.5289 78.454C42.0169 78.454 41.6109 78.604 41.3109 78.904C41.0149 79.2 40.8309 79.612 40.7589 80.14H44.0829ZM44.9469 82.99C44.8149 83.15 44.6569 83.29 44.4729 83.41C44.2889 83.526 44.0909 83.622 43.8789 83.698C43.6709 83.774 43.4549 83.83 43.2309 83.866C43.0069 83.906 42.7849 83.926 42.5649 83.926C42.1449 83.926 41.7569 83.856 41.4009 83.716C41.0489 83.572 40.7429 83.364 40.4829 83.092C40.2269 82.816 40.0269 82.476 39.8829 82.072C39.7389 81.668 39.6669 81.204 39.6669 80.68C39.6669 80.256 39.7309 79.86 39.8589 79.492C39.9909 79.124 40.1789 78.806 40.4229 78.538C40.6669 78.266 40.9649 78.054 41.3169 77.902C41.6689 77.746 42.0649 77.668 42.5049 77.668C42.8689 77.668 43.2049 77.73 43.5129 77.854C43.8249 77.974 44.0929 78.15 44.3169 78.382C44.5449 78.61 44.7229 78.894 44.8509 79.234C44.9789 79.57 45.0429 79.954 45.0429 80.386C45.0429 80.554 45.0249 80.666 44.9889 80.722C44.9529 80.778 44.8849 80.806 44.7849 80.806H40.7229C40.7349 81.19 40.7869 81.524 40.8789 81.808C40.9749 82.092 41.1069 82.33 41.2749 82.522C41.4429 82.71 41.6429 82.852 41.8749 82.948C42.1069 83.04 42.3669 83.086 42.6549 83.086C42.9229 83.086 43.1529 83.056 43.3449 82.996C43.5409 82.932 43.7089 82.864 43.8489 82.792C43.9889 82.72 44.1049 82.654 44.1969 82.594C44.2929 82.53 44.3749 82.498 44.4429 82.498C44.5309 82.498 44.5989 82.532 44.6469 82.6L44.9469 82.99ZM55.7131 82.066C55.7771 82.066 55.8331 82.092 55.8811 82.144L56.3431 82.642C55.9911 83.05 55.5631 83.368 55.0591 83.596C54.5591 83.824 53.9531 83.938 53.2411 83.938C52.6251 83.938 52.0651 83.832 51.5611 83.62C51.0571 83.404 50.6271 83.104 50.2711 82.72C49.9151 82.332 49.6391 81.868 49.4431 81.328C49.2471 80.788 49.1491 80.194 49.1491 79.546C49.1491 78.898 49.2511 78.304 49.4551 77.764C49.6591 77.224 49.9451 76.76 50.3131 76.372C50.6851 75.984 51.1291 75.684 51.6451 75.472C52.1611 75.256 52.7311 75.148 53.3551 75.148C53.9671 75.148 54.5071 75.246 54.9751 75.442C55.4431 75.638 55.8551 75.904 56.2111 76.24L55.8271 76.774C55.8031 76.814 55.7711 76.848 55.7311 76.876C55.6951 76.9 55.6451 76.912 55.5811 76.912C55.5091 76.912 55.4211 76.874 55.3171 76.798C55.2131 76.718 55.0771 76.63 54.9091 76.534C54.7411 76.438 54.5311 76.352 54.2791 76.276C54.0271 76.196 53.7171 76.156 53.3491 76.156C52.9051 76.156 52.4991 76.234 52.1311 76.39C51.7631 76.542 51.4451 76.764 51.1771 77.056C50.9131 77.348 50.7071 77.704 50.5591 78.124C50.4111 78.544 50.3371 79.018 50.3371 79.546C50.3371 80.082 50.4131 80.56 50.5651 80.98C50.7211 81.4 50.9311 81.756 51.1951 82.048C51.4631 82.336 51.7771 82.556 52.1371 82.708C52.5011 82.86 52.8931 82.936 53.3131 82.936C53.5691 82.936 53.7991 82.922 54.0031 82.894C54.2111 82.862 54.4011 82.814 54.5731 82.75C54.7491 82.686 54.9111 82.606 55.0591 82.51C55.2111 82.41 55.3611 82.292 55.5091 82.156C55.5771 82.096 55.6451 82.066 55.7131 82.066ZM58.5147 78.574C58.7747 78.298 59.0627 78.078 59.3787 77.914C59.6947 77.75 60.0587 77.668 60.4707 77.668C60.8027 77.668 61.0947 77.724 61.3467 77.836C61.6027 77.944 61.8147 78.1 61.9827 78.304C62.1547 78.504 62.2847 78.746 62.3727 79.03C62.4607 79.314 62.5047 79.628 62.5047 79.972V83.842H61.4307V79.972C61.4307 79.512 61.3247 79.156 61.1127 78.904C60.9047 78.648 60.5867 78.52 60.1587 78.52C59.8427 78.52 59.5467 78.596 59.2707 78.748C58.9987 78.9 58.7467 79.106 58.5147 79.366V83.842H57.4407V75.004H58.5147V78.574ZM66.6941 77.668C67.1381 77.668 67.5381 77.742 67.8941 77.89C68.2501 78.038 68.5541 78.248 68.8061 78.52C69.0581 78.792 69.2501 79.122 69.3821 79.51C69.5181 79.894 69.5861 80.324 69.5861 80.8C69.5861 81.28 69.5181 81.712 69.3821 82.096C69.2501 82.48 69.0581 82.808 68.8061 83.08C68.5541 83.352 68.2501 83.562 67.8941 83.71C67.5381 83.854 67.1381 83.926 66.6941 83.926C66.2461 83.926 65.8421 83.854 65.4821 83.71C65.1261 83.562 64.8221 83.352 64.5701 83.08C64.3181 82.808 64.1241 82.48 63.9881 82.096C63.8561 81.712 63.7901 81.28 63.7901 80.8C63.7901 80.324 63.8561 79.894 63.9881 79.51C64.1241 79.122 64.3181 78.792 64.5701 78.52C64.8221 78.248 65.1261 78.038 65.4821 77.89C65.8421 77.742 66.2461 77.668 66.6941 77.668ZM66.6941 83.092C67.2941 83.092 67.7421 82.892 68.0381 82.492C68.3341 82.088 68.4821 81.526 68.4821 80.806C68.4821 80.082 68.3341 79.518 68.0381 79.114C67.7421 78.71 67.2941 78.508 66.6941 78.508C66.3901 78.508 66.1241 78.56 65.8961 78.664C65.6721 78.768 65.4841 78.918 65.3321 79.114C65.1841 79.31 65.0721 79.552 64.9961 79.84C64.9241 80.124 64.8881 80.446 64.8881 80.806C64.8881 81.526 65.0361 82.088 65.3321 82.492C65.6321 82.892 66.0861 83.092 66.6941 83.092ZM72.0687 77.764V83.842H71.0007V77.764H72.0687ZM72.2967 75.856C72.2967 75.96 72.2747 76.058 72.2307 76.15C72.1907 76.238 72.1347 76.318 72.0627 76.39C71.9947 76.458 71.9127 76.512 71.8167 76.552C71.7247 76.592 71.6267 76.612 71.5227 76.612C71.4187 76.612 71.3207 76.592 71.2287 76.552C71.1407 76.512 71.0627 76.458 70.9947 76.39C70.9267 76.318 70.8727 76.238 70.8327 76.15C70.7927 76.058 70.7727 75.96 70.7727 75.856C70.7727 75.752 70.7927 75.654 70.8327 75.562C70.8727 75.466 70.9267 75.384 70.9947 75.316C71.0627 75.244 71.1407 75.188 71.2287 75.148C71.3207 75.108 71.4187 75.088 71.5227 75.088C71.6267 75.088 71.7247 75.108 71.8167 75.148C71.9127 75.188 71.9947 75.244 72.0627 75.316C72.1347 75.384 72.1907 75.466 72.2307 75.562C72.2747 75.654 72.2967 75.752 72.2967 75.856ZM78.0535 78.844C78.0215 78.888 77.9895 78.922 77.9575 78.946C77.9255 78.97 77.8815 78.982 77.8255 78.982C77.7655 78.982 77.6995 78.958 77.6275 78.91C77.5555 78.858 77.4655 78.802 77.3575 78.742C77.2535 78.682 77.1235 78.628 76.9675 78.58C76.8155 78.528 76.6275 78.502 76.4035 78.502C76.1035 78.502 75.8395 78.556 75.6115 78.664C75.3835 78.768 75.1915 78.92 75.0355 79.12C74.8835 79.32 74.7675 79.562 74.6875 79.846C74.6115 80.13 74.5735 80.448 74.5735 80.8C74.5735 81.168 74.6155 81.496 74.6995 81.784C74.7835 82.068 74.9015 82.308 75.0535 82.504C75.2095 82.696 75.3955 82.844 75.6115 82.948C75.8315 83.048 76.0775 83.098 76.3495 83.098C76.6095 83.098 76.8235 83.068 76.9915 83.008C77.1595 82.944 77.2975 82.874 77.4055 82.798C77.5175 82.722 77.6095 82.654 77.6815 82.594C77.7575 82.53 77.8315 82.498 77.9035 82.498C77.9915 82.498 78.0595 82.532 78.1075 82.6L78.4075 82.99C78.2755 83.154 78.1255 83.294 77.9575 83.41C77.7895 83.526 77.6075 83.624 77.4115 83.704C77.2195 83.78 77.0175 83.836 76.8055 83.872C76.5935 83.908 76.3775 83.926 76.1575 83.926C75.7775 83.926 75.4235 83.856 75.0955 83.716C74.7715 83.576 74.4895 83.374 74.2495 83.11C74.0095 82.842 73.8215 82.514 73.6855 82.126C73.5495 81.738 73.4815 81.296 73.4815 80.8C73.4815 80.348 73.5435 79.93 73.6675 79.546C73.7955 79.162 73.9795 78.832 74.2195 78.556C74.4635 78.276 74.7615 78.058 75.1135 77.902C75.4695 77.746 75.8775 77.668 76.3375 77.668C76.7655 77.668 77.1415 77.738 77.4655 77.878C77.7935 78.014 78.0835 78.208 78.3355 78.46L78.0535 78.844ZM83.5165 80.14C83.5165 79.892 83.4805 79.666 83.4085 79.462C83.3405 79.254 83.2385 79.076 83.1025 78.928C82.9705 78.776 82.8085 78.66 82.6165 78.58C82.4245 78.496 82.2065 78.454 81.9625 78.454C81.4505 78.454 81.0445 78.604 80.7445 78.904C80.4485 79.2 80.2645 79.612 80.1925 80.14H83.5165ZM84.3805 82.99C84.2485 83.15 84.0905 83.29 83.9065 83.41C83.7225 83.526 83.5245 83.622 83.3125 83.698C83.1045 83.774 82.8885 83.83 82.6645 83.866C82.4405 83.906 82.2185 83.926 81.9985 83.926C81.5785 83.926 81.1905 83.856 80.8345 83.716C80.4825 83.572 80.1765 83.364 79.9165 83.092C79.6605 82.816 79.4605 82.476 79.3165 82.072C79.1725 81.668 79.1005 81.204 79.1005 80.68C79.1005 80.256 79.1645 79.86 79.2925 79.492C79.4245 79.124 79.6125 78.806 79.8565 78.538C80.1005 78.266 80.3985 78.054 80.7505 77.902C81.1025 77.746 81.4985 77.668 81.9385 77.668C82.3025 77.668 82.6385 77.73 82.9465 77.854C83.2585 77.974 83.5265 78.15 83.7505 78.382C83.9785 78.61 84.1565 78.894 84.2845 79.234C84.4125 79.57 84.4765 79.954 84.4765 80.386C84.4765 80.554 84.4585 80.666 84.4225 80.722C84.3865 80.778 84.3185 80.806 84.2185 80.806H80.1565C80.1685 81.19 80.2205 81.524 80.3125 81.808C80.4085 82.092 80.5405 82.33 80.7085 82.522C80.8765 82.71 81.0765 82.852 81.3085 82.948C81.5405 83.04 81.8005 83.086 82.0885 83.086C82.3565 83.086 82.5865 83.056 82.7785 82.996C82.9745 82.932 83.1425 82.864 83.2825 82.792C83.4225 82.72 83.5385 82.654 83.6305 82.594C83.7265 82.53 83.8085 82.498 83.8765 82.498C83.9645 82.498 84.0325 82.532 84.0805 82.6L84.3805 82.99Z" fill="#3E4244" />
	<path d="M19.5634 76.588L20.4209 77.1025L20.4384 77.0733L20.4539 77.043L19.5634 76.588ZM19.4434 76.726L20.0169 77.5453L20.0242 77.5401L20.0315 77.5348L19.4434 76.726ZM19.0534 76.666L19.6478 75.8619L19.6478 75.8619L19.0534 76.666ZM18.7054 76.444L18.1799 77.2948L18.1944 77.3038L18.2092 77.3123L18.7054 76.444ZM18.2074 76.216L17.8735 77.1587L17.8796 77.1608L18.2074 76.216ZM16.8154 76.222L17.1432 77.1669L17.1541 77.1629L16.8154 76.222ZM16.3174 76.504L15.6558 75.7542L15.6502 75.7591L15.6447 75.7641L16.3174 76.504ZM16.0174 76.93L16.9377 77.3212L16.9411 77.3131L16.0174 76.93ZM16.0894 78.052L15.2798 78.639L15.2881 78.6505L15.2968 78.6618L16.0894 78.052ZM16.5574 78.454L16.0535 79.3179L16.0612 79.3223L16.5574 78.454ZM17.2174 78.748L16.8919 79.6936L16.9011 79.6968L16.9104 79.6997L17.2174 78.748ZM17.9734 79L17.6483 79.9457L17.6528 79.9473L17.9734 79ZM18.7294 79.3L18.3122 80.2089L18.3211 80.213L18.3301 80.2169L18.7294 79.3ZM19.3894 79.714L18.7308 80.4667L18.7386 80.4733L19.3894 79.714ZM19.8574 80.332L18.9542 80.7614L18.96 80.7734L19.8574 80.332ZM19.8454 82.294L20.777 82.6576L20.7784 82.6538L19.8454 82.294ZM19.2814 83.152L18.58 82.4392L18.5743 82.4449L19.2814 83.152ZM18.3754 83.728L18.0129 82.796L18.0094 82.7974L18.3754 83.728ZM15.6334 83.638L15.225 84.5509L15.2317 84.5538L15.6334 83.638ZM14.4634 82.816L13.6092 82.2961L13.213 82.947L13.7354 83.5017L14.4634 82.816ZM14.7994 82.264L13.9906 81.6759L13.9665 81.709L13.9452 81.7441L14.7994 82.264ZM14.9134 82.156L15.4503 82.9997L15.4592 82.994L15.4681 82.9881L14.9134 82.156ZM15.2434 82.174L14.6769 82.9981L14.7059 83.0181L14.7364 83.036L15.2434 82.174ZM15.4714 82.33L14.8653 83.1255H14.8653L15.4714 82.33ZM15.7594 82.54L15.1839 83.3578H15.1839L15.7594 82.54ZM16.1254 82.75L15.6996 83.6549L15.7096 83.6595L16.1254 82.75ZM16.5994 82.912L16.3568 83.8822L16.3673 83.8848L16.3778 83.8872L16.5994 82.912ZM17.9314 82.858L18.2633 83.8014H18.2633L17.9314 82.858ZM18.4774 82.54L19.154 83.2764L19.1549 83.2756L18.4774 82.54ZM18.7654 80.764L17.9425 81.3322L17.9503 81.3435L17.9584 81.3546L18.7654 80.764ZM17.6434 80.062L17.3364 81.0137L17.3434 81.016L17.3504 81.0182L17.6434 80.062ZM16.8874 79.822L16.5756 80.7722L16.5823 80.7744L16.5891 80.7765L16.8874 79.822ZM15.4714 79.114L16.1386 78.3692V78.3692L15.4714 79.114ZM15.0034 78.472L14.0902 78.8795L14.094 78.888L14.0979 78.8965L15.0034 78.472ZM15.0034 76.63L14.0822 76.2408L14.0776 76.2519L15.0034 76.63ZM15.5194 75.874L14.825 75.1544L14.8187 75.1606L15.5194 75.874ZM16.3534 75.346L15.9839 74.4168L15.98 74.4183L16.3534 75.346ZM18.8014 75.376L18.4399 76.3084L18.443 76.3096L18.8014 75.376ZM19.8454 76.036L20.7359 76.491L21.074 75.8293L20.5379 75.3147L19.8454 76.036ZM18.7059 76.0735C18.7201 76.0499 18.7643 75.9834 18.8552 75.9173L20.0315 77.5348C20.2104 77.4047 20.3347 77.2461 20.4209 77.1025L18.7059 76.0735ZM18.8699 75.9068C19.0331 75.7925 19.1958 75.768 19.2934 75.768V77.768C19.511 77.768 19.7736 77.7155 20.0169 77.5453L18.8699 75.9068ZM19.2934 75.768C19.4256 75.768 19.5229 75.8007 19.5735 75.8222C19.6 75.8335 19.619 75.8439 19.6302 75.8505C19.6415 75.8572 19.6474 75.8616 19.6478 75.8619L18.459 77.4702C18.6168 77.5869 18.909 77.768 19.2934 77.768V75.768ZM19.6478 75.8619C19.5145 75.7634 19.3629 75.668 19.2015 75.5758L18.2092 77.3123C18.3278 77.38 18.4083 77.4327 18.459 77.4702L19.6478 75.8619ZM19.2309 75.5932C19.0174 75.4614 18.781 75.3566 18.5352 75.2713L17.8796 77.1608C18.0257 77.2115 18.1214 77.2587 18.1799 77.2948L19.2309 75.5932ZM18.5412 75.2734C18.2115 75.1566 17.8574 75.114 17.5054 75.114V77.114C17.7053 77.114 17.8193 77.1395 17.8735 77.1587L18.5412 75.2734ZM17.5054 75.114C17.1548 75.114 16.8065 75.1624 16.4767 75.2812L17.1541 77.1629C17.2243 77.1377 17.336 77.114 17.5054 77.114V75.114ZM16.4876 75.2773C16.1862 75.3818 15.9023 75.5366 15.6558 75.7542L16.979 77.2539C17.0044 77.2314 17.0525 77.1982 17.1432 77.1668L16.4876 75.2773ZM15.6447 75.7641C15.4043 75.9826 15.2183 76.2463 15.0936 76.547L16.9411 77.3131C16.9525 77.2857 16.9665 77.2654 16.9901 77.244L15.6447 75.7641ZM15.0971 76.5389C14.9723 76.8324 14.9154 77.1407 14.9154 77.452H16.9154C16.9154 77.3874 16.9264 77.3477 16.9377 77.3212L15.0971 76.5389ZM14.9154 77.452C14.9154 77.8567 15.0154 78.2744 15.2798 78.639L16.899 77.4651C16.9051 77.4734 16.91 77.4818 16.9136 77.4894C16.9172 77.4969 16.9189 77.5019 16.9193 77.5035C16.9202 77.5066 16.9154 77.4918 16.9154 77.452H14.9154ZM15.2968 78.6618C15.5052 78.9328 15.7641 79.149 16.0535 79.3178L17.0613 77.5903C16.9666 77.5351 16.9135 77.4833 16.882 77.4423L15.2968 78.6618ZM16.0612 79.3223C16.3186 79.4694 16.5969 79.592 16.8919 79.6936L17.5429 77.8025C17.3498 77.736 17.1881 77.6627 17.0535 77.5858L16.0612 79.3223ZM16.9104 79.6997C17.1521 79.7777 17.3981 79.8597 17.6483 79.9457L18.2985 78.0544C18.0367 77.9644 17.7787 77.8784 17.5244 77.7963L16.9104 79.6997ZM17.6528 79.9473C17.8807 80.0244 18.1004 80.1117 18.3122 80.2089L19.1466 78.3912C18.8704 78.2644 18.5861 78.1517 18.294 78.0528L17.6528 79.9473ZM18.3301 80.2169C18.4895 80.2863 18.6209 80.3704 18.7309 80.4666L20.0479 78.9615C19.7739 78.7217 19.4653 78.5298 19.1286 78.3832L18.3301 80.2169ZM18.7386 80.4733C18.8234 80.546 18.8955 80.6378 18.9542 80.7614L20.7605 79.9027C20.5873 79.5383 20.3474 79.2181 20.0402 78.9548L18.7386 80.4733ZM18.96 80.7734C18.995 80.8444 19.0374 80.9836 19.0374 81.232H21.0374C21.0374 80.7685 20.9598 80.3077 20.7547 79.8907L18.96 80.7734ZM19.0374 81.232C19.0374 81.4921 18.9936 81.7235 18.9123 81.9343L20.7784 82.6538C20.9532 82.2006 21.0374 81.724 21.0374 81.232H19.0374ZM18.9138 81.9305C18.8364 82.1288 18.7263 82.2953 18.58 82.4392L19.9827 83.8649C20.3325 83.5208 20.5983 83.1153 20.777 82.6576L18.9138 81.9305ZM18.5743 82.4449C18.4394 82.5798 18.2592 82.7003 18.0129 82.796L18.7378 84.66C19.2116 84.4758 19.6353 84.2123 19.9885 83.8591L18.5743 82.4449ZM18.0094 82.7974C17.79 82.8837 17.5116 82.938 17.1574 82.938V84.938C17.7151 84.938 18.2487 84.8524 18.7414 84.6587L18.0094 82.7974ZM17.1574 82.938C16.7184 82.938 16.3495 82.8602 16.035 82.7223L15.2317 84.5538C15.8292 84.8159 16.4764 84.938 17.1574 84.938V82.938ZM16.0417 82.7252C15.6992 82.572 15.4197 82.3729 15.1913 82.1304L13.7354 83.5017C14.155 83.9472 14.6555 84.2961 15.225 84.5509L16.0417 82.7252ZM15.3176 83.336L15.6536 82.784L13.9452 81.7441L13.6092 82.2961L15.3176 83.336ZM15.6081 82.8522C15.5696 82.9052 15.5166 82.9575 15.4503 82.9997L14.3765 81.3124C14.2221 81.4106 14.0932 81.5349 13.9906 81.6759L15.6081 82.8522ZM15.4681 82.9881C15.3571 83.0621 15.217 83.108 15.0694 83.108V81.108C14.8097 81.108 14.5657 81.186 14.3587 81.324L15.4681 82.9881ZM15.0694 83.108C14.8419 83.108 14.702 83.0154 14.6769 82.9981L15.8099 81.35C15.6568 81.2447 15.4009 81.108 15.0694 81.108V83.108ZM14.7364 83.036C14.7608 83.0504 14.8031 83.0781 14.8653 83.1255L16.0774 81.5346C15.9716 81.454 15.8619 81.3777 15.7504 81.3121L14.7364 83.036ZM14.8653 83.1255C14.9615 83.1987 15.068 83.2763 15.1839 83.3578L16.3349 81.7222C16.2348 81.6518 16.1493 81.5893 16.0774 81.5346L14.8653 83.1255ZM15.1839 83.3578C15.3451 83.4713 15.5183 83.5695 15.6996 83.6549L16.5512 81.8452C16.4605 81.8025 16.3896 81.7608 16.3349 81.7222L15.1839 83.3578ZM15.7096 83.6595C15.9142 83.753 16.1316 83.8259 16.3568 83.8822L16.8419 81.9419C16.7152 81.9102 16.6166 81.875 16.5411 81.8406L15.7096 83.6595ZM16.3778 83.8872C16.6402 83.9468 16.9144 83.972 17.1934 83.972V81.972C17.0324 81.972 16.9105 81.9573 16.821 81.9369L16.3778 83.8872ZM17.1934 83.972C17.5599 83.972 17.9213 83.9217 18.2633 83.8014L17.5995 81.9147C17.5095 81.9464 17.3788 81.972 17.1934 81.972V83.972ZM18.2633 83.8014C18.5893 83.6866 18.8934 83.5159 19.154 83.2764L17.8008 81.8037C17.7654 81.8362 17.7054 81.8774 17.5995 81.9147L18.2633 83.8014ZM19.1549 83.2756C19.4138 83.0371 19.6133 82.7511 19.7485 82.4267L17.9023 81.6574C17.8775 81.717 17.8449 81.763 17.7999 81.8045L19.1549 83.2756ZM19.7485 82.4267C19.8856 82.0975 19.9454 81.7504 19.9454 81.4H17.9454C17.9454 81.5217 17.9251 81.6026 17.9023 81.6574L19.7485 82.4267ZM19.9454 81.4C19.9454 80.9873 19.8489 80.5514 19.5724 80.1735L17.9584 81.3546C17.9509 81.3444 17.9457 81.3351 17.9422 81.3278C17.9387 81.3207 17.9378 81.317 17.9382 81.3184C17.9391 81.3215 17.9454 81.3461 17.9454 81.4H19.9454ZM19.5883 80.1958C19.3817 79.8967 19.1146 79.6595 18.8073 79.4803L17.7995 81.2078C17.8762 81.2525 17.917 81.2954 17.9425 81.3322L19.5883 80.1958ZM18.8073 79.4803C18.5388 79.3237 18.2461 79.2008 17.9364 79.1059L17.3504 81.0182C17.5367 81.0752 17.684 81.1404 17.7995 81.2078L18.8073 79.4803ZM17.9504 79.1103C17.6994 79.0294 17.4445 78.9484 17.1857 78.8676L16.5891 80.7765C16.8423 80.8556 17.0914 80.9347 17.3364 81.0137L17.9504 79.1103ZM17.1992 78.8719C16.9729 78.7977 16.7501 78.7128 16.5306 78.6172L15.7321 80.4509C16.0086 80.5713 16.2898 80.6784 16.5756 80.7722L17.1992 78.8719ZM16.5306 78.6172C16.3757 78.5497 16.2472 78.4665 16.1386 78.3692L14.8041 79.8589C15.0796 80.1056 15.391 80.3023 15.7321 80.4509L16.5306 78.6172ZM16.1386 78.3692C16.0561 78.2953 15.9773 78.1937 15.9088 78.0476L14.0979 78.8965C14.2694 79.2623 14.5027 79.5888 14.8041 79.8589L16.1386 78.3692ZM15.9166 78.0646C15.8736 77.9681 15.8294 77.7962 15.8294 77.512H13.8294C13.8294 77.9879 13.9012 78.456 14.0902 78.8795L15.9166 78.0646ZM15.8294 77.512C15.8294 77.3389 15.8617 77.1733 15.9291 77.0082L14.0776 76.2519C13.9131 76.6548 13.8294 77.0772 13.8294 77.512H15.8294ZM15.9245 77.0193C15.9922 76.8591 16.0885 76.7168 16.2201 76.5875L14.8187 75.1606C14.5023 75.4713 14.2546 75.833 14.0822 76.2408L15.9245 77.0193ZM16.2138 76.5937C16.339 76.4728 16.5043 76.3632 16.7267 76.2737L15.98 74.4183C15.5465 74.5928 15.1558 74.8353 14.825 75.1544L16.2138 76.5937ZM16.7228 76.2753C16.9165 76.1983 17.1674 76.148 17.4934 76.148V74.148C16.9633 74.148 16.4543 74.2298 15.9839 74.4168L16.7228 76.2753ZM17.4934 76.148C17.8671 76.148 18.1783 76.207 18.4399 76.3084L19.1629 74.4437C18.6405 74.2411 18.0797 74.148 17.4934 74.148V76.148ZM18.443 76.3096C18.7172 76.4148 18.9509 76.5636 19.1529 76.7574L20.5379 75.3147C20.1398 74.9325 19.6776 74.6412 19.1597 74.4425L18.443 76.3096ZM18.9549 75.5811L18.6729 76.1331L20.4539 77.043L20.7359 76.491L18.9549 75.5811ZM22.4984 77.764H23.4984V76.764H22.4984V77.764ZM22.4984 83.842V84.842H23.4984V83.842H22.4984ZM21.4304 83.842H20.4304V84.842H21.4304V83.842ZM21.4304 77.764V76.764H20.4304V77.764H21.4304ZM22.6604 76.15L21.7583 75.7186L21.7541 75.7274L21.75 75.7362L22.6604 76.15ZM22.4924 76.39L21.7853 75.6829L21.7853 75.6829L22.4924 76.39ZM22.2464 76.552L21.8618 75.629L21.8547 75.6319L21.8477 75.635L22.2464 76.552ZM21.6584 76.552L21.2446 77.4624L21.2521 77.4658L21.2597 77.4691L21.6584 76.552ZM21.4244 76.39L20.6974 77.0767L20.7072 77.087L20.7173 77.0971L21.4244 76.39ZM21.2624 76.15L20.3453 76.5488L20.3486 76.5563L20.352 76.5638L21.2624 76.15ZM21.2624 75.562L22.1795 75.9608L22.1825 75.9537L22.1855 75.9467L21.2624 75.562ZM21.4244 75.316L22.1315 76.0231L22.1416 76.013L22.1514 76.0027L21.4244 75.316ZM21.6584 75.148L21.2597 74.231L21.2521 74.2343L21.2446 74.2377L21.6584 75.148ZM22.2464 75.148L21.8477 76.0651L21.8547 76.0682L21.8618 76.0711L22.2464 75.148ZM22.4924 75.316L21.7654 76.0027L21.785 76.0234L21.8058 76.0431L22.4924 75.316ZM22.6604 75.562L21.7373 75.9467L21.7472 75.9703L21.7583 75.9935L22.6604 75.562ZM21.4984 77.764V83.842H23.4984V77.764H21.4984ZM22.4984 82.842H21.4304V84.842H22.4984V82.842ZM22.4304 83.842V77.764H20.4304V83.842H22.4304ZM21.4304 78.764H22.4984V76.764H21.4304V78.764ZM21.7264 75.856C21.7264 75.837 21.7285 75.8139 21.7342 75.7885C21.7399 75.763 21.7483 75.7394 21.7583 75.7186L23.5625 76.5815C23.6723 76.3521 23.7264 76.1063 23.7264 75.856H21.7264ZM21.75 75.7362C21.7557 75.7238 21.7623 75.7124 21.7692 75.7026C21.776 75.6929 21.7819 75.6864 21.7853 75.6829L23.1995 77.0971C23.3517 76.9449 23.4786 76.7667 23.5708 76.5638L21.75 75.7362ZM21.7853 75.6829C21.817 75.6513 21.8471 75.6351 21.8618 75.629L22.631 77.4751C22.8377 77.389 23.0319 77.2648 23.1995 77.0971L21.7853 75.6829ZM21.8477 75.635C21.8654 75.6273 21.8845 75.6212 21.904 75.6172C21.9233 75.6133 21.9399 75.612 21.9524 75.612V77.612C22.1885 77.612 22.4227 77.5658 22.6451 77.4691L21.8477 75.635ZM21.9524 75.612C21.9649 75.612 21.9815 75.6133 22.0009 75.6172C22.0203 75.6212 22.0394 75.6273 22.0571 75.635L21.2597 77.4691C21.4821 77.5658 21.7164 77.612 21.9524 77.612V75.612ZM22.0722 75.6417C22.0815 75.6459 22.0921 75.6517 22.1031 75.6593C22.1141 75.667 22.1237 75.6751 22.1315 75.6829L20.7173 77.0971C20.8705 77.2504 21.048 77.373 21.2446 77.4624L22.0722 75.6417ZM22.1514 75.7034C22.1538 75.7059 22.1575 75.7103 22.1618 75.7166C22.166 75.7228 22.1698 75.7296 22.1728 75.7362L20.352 76.5638C20.4388 76.7547 20.5555 76.9265 20.6974 77.0767L22.1514 75.7034ZM22.1795 75.7513C22.1872 75.769 22.1932 75.7881 22.1972 75.8076C22.2012 75.8269 22.2024 75.8435 22.2024 75.856H20.2024C20.2024 76.0921 20.2486 76.3263 20.3453 76.5488L22.1795 75.7513ZM22.2024 75.856C22.2024 75.8685 22.2012 75.8851 22.1972 75.9045C22.1932 75.924 22.1872 75.9431 22.1795 75.9608L20.3453 75.1633C20.2486 75.3858 20.2024 75.62 20.2024 75.856H22.2024ZM22.1855 75.9467C22.1794 75.9613 22.1632 75.9915 22.1315 76.0231L20.7173 74.6089C20.5497 74.7766 20.4254 74.9708 20.3393 75.1774L22.1855 75.9467ZM22.1514 76.0027C22.1327 76.0225 22.105 76.0435 22.0722 76.0584L21.2446 74.2377C21.0358 74.3326 20.8521 74.4656 20.6974 74.6294L22.1514 76.0027ZM22.0571 76.0651C22.0394 76.0728 22.0203 76.0789 22.0009 76.0828C21.9815 76.0868 21.9649 76.088 21.9524 76.088V74.088C21.7164 74.088 21.4821 74.1343 21.2597 74.231L22.0571 76.0651ZM21.9524 76.088C21.9399 76.088 21.9233 76.0868 21.904 76.0828C21.8845 76.0789 21.8654 76.0728 21.8477 76.0651L22.6451 74.231C22.4227 74.1343 22.1885 74.088 21.9524 74.088V76.088ZM21.8618 76.0711C21.835 76.0599 21.7985 76.0377 21.7654 76.0027L23.2194 74.6294C23.0503 74.4504 22.8499 74.3161 22.631 74.225L21.8618 76.0711ZM21.8058 76.0431C21.7707 76.01 21.7485 75.9735 21.7373 75.9467L23.5835 75.1774C23.4923 74.9586 23.3581 74.7581 23.179 74.589L21.8058 76.0431ZM21.7583 75.9935C21.7483 75.9727 21.7399 75.949 21.7342 75.9236C21.7285 75.8982 21.7264 75.8751 21.7264 75.856H23.7264C23.7264 75.6058 23.6723 75.36 23.5625 75.1306L21.7583 75.9935ZM25.2612 78.646L24.2692 78.7723L24.5464 80.9499L26.0075 79.3117L25.2612 78.646ZM25.6812 78.244L26.311 79.0208V79.0208L25.6812 78.244ZM26.1492 77.938L26.6051 78.8281L26.6132 78.8239L26.1492 77.938ZM26.6772 77.74L26.9098 78.7126L26.9172 78.7108L26.9246 78.709L26.6772 77.74ZM28.1592 77.836L27.7531 78.7499L27.7618 78.7537L27.7705 78.7574L28.1592 77.836ZM28.7952 78.304L28.0233 78.9397L28.0301 78.948L28.037 78.9561L28.7952 78.304ZM29.1852 79.03L30.1404 78.7341L29.1852 79.03ZM29.3172 83.842V84.842H30.3172V83.842H29.3172ZM28.2432 83.842H27.2432V84.842H28.2432V83.842ZM27.9252 78.904L27.1491 79.5346L27.1545 79.5413L27.16 79.5478L27.9252 78.904ZM26.0832 78.748L25.6008 77.8721L25.5954 77.8751L26.0832 78.748ZM25.3272 79.366L24.5811 78.7003L24.3272 78.9847V79.366H25.3272ZM25.3272 83.842V84.842H26.3272V83.842H25.3272ZM24.2532 83.842H23.2532V84.842H24.2532V83.842ZM24.2532 77.764V76.764H23.2532V77.764H24.2532ZM25.1772 77.986L26.1692 77.8598L26.1621 77.8042L26.1489 77.7497L25.1772 77.986ZM26.0075 79.3117C26.1052 79.2021 26.2064 79.1056 26.311 79.0208L25.0514 77.4673C24.86 77.6225 24.6813 77.7939 24.5149 77.9804L26.0075 79.3117ZM26.311 79.0208C26.407 78.943 26.5049 78.8794 26.6051 78.8281L25.6934 77.048C25.4655 77.1647 25.2515 77.3051 25.0514 77.4673L26.311 79.0208ZM26.6132 78.8239C26.7082 78.7742 26.8064 78.7373 26.9098 78.7126L26.4447 76.7675C26.18 76.8307 25.9263 76.9259 25.6852 77.0522L26.6132 78.8239ZM26.9246 78.709C27.0232 78.6838 27.1414 78.668 27.2832 78.668V76.668C26.9931 76.668 26.7072 76.7003 26.4298 76.7711L26.9246 78.709ZM27.2832 78.668C27.5033 78.668 27.6523 78.705 27.7531 78.7499L28.5654 76.9222C28.1622 76.743 27.7271 76.668 27.2832 76.668V78.668ZM27.7705 78.7574C27.8855 78.8059 27.9634 78.867 28.0233 78.9397L29.5672 77.6683C29.2911 77.3331 28.945 77.0822 28.5479 76.9147L27.7705 78.7574ZM28.037 78.9561C28.109 79.0397 28.1774 79.1563 28.23 79.326L30.1404 78.7341C30.017 78.3358 29.8255 77.9684 29.5534 77.652L28.037 78.9561ZM28.23 79.326C28.2841 79.5005 28.3172 79.713 28.3172 79.972H30.3172C30.3172 79.5431 30.2624 79.1276 30.1404 78.7341L28.23 79.326ZM28.3172 79.972V83.842H30.3172V79.972H28.3172ZM29.3172 82.842H28.2432V84.842H29.3172V82.842ZM29.2432 83.842V79.972H27.2432V83.842H29.2432ZM29.2432 79.972C29.2432 79.3691 29.1046 78.7526 28.6905 78.2603L27.16 79.5478C27.1699 79.5595 27.2432 79.655 27.2432 79.972H29.2432ZM28.7013 78.2734C28.2499 77.7178 27.6036 77.52 26.9712 77.52V79.52C27.088 79.52 27.1425 79.5377 27.1573 79.5437C27.1641 79.5464 27.1635 79.547 27.159 79.5437C27.1543 79.5403 27.1507 79.5366 27.1491 79.5346L28.7013 78.2734ZM26.9712 77.52C26.487 77.52 26.025 77.6385 25.6008 77.8721L26.5656 79.624C26.6934 79.5536 26.8234 79.52 26.9712 79.52V77.52ZM25.5954 77.8751C25.2156 78.0873 24.8784 78.367 24.5811 78.7003L26.0734 80.0318C26.24 79.845 26.4068 79.7128 26.571 79.621L25.5954 77.8751ZM24.3272 79.366V83.842H26.3272V79.366H24.3272ZM25.3272 82.842H24.2532V84.842H25.3272V82.842ZM25.2532 83.842V77.764H23.2532V83.842H25.2532ZM24.2532 78.764H24.8952V76.764H24.2532V78.764ZM24.8952 78.764C24.8085 78.764 24.6335 78.7409 24.4612 78.6053C24.2891 78.4698 24.2258 78.3056 24.2056 78.2224L26.1489 77.7497C26.0927 77.5185 25.9644 77.2433 25.6983 77.0338C25.432 76.8242 25.134 76.764 24.8952 76.764V78.764ZM24.1852 78.1123L24.2692 78.7723L26.2532 78.5198L26.1692 77.8598L24.1852 78.1123ZM33.6326 80.782L33.2891 79.8429V79.8429L33.6326 80.782ZM34.2986 80.146L35.234 80.4999L35.237 80.4917L34.2986 80.146ZM34.0406 78.76L33.3399 79.4735L33.3463 79.4797L34.0406 78.76ZM32.0726 78.76L31.3782 78.0404L31.3719 78.0466L32.0726 78.76ZM31.8206 80.146L30.8823 80.4917L30.8878 80.5068L30.8939 80.5217L31.8206 80.146ZM32.4926 80.782L32.8362 79.8429V79.8429L32.4926 80.782ZM34.8626 83.812L34.1241 84.4863V84.4863L34.8626 83.812ZM34.5206 83.596L34.1724 84.5335L34.181 84.5366L34.5206 83.596ZM34.0286 83.488L33.902 84.48L33.9124 84.4813L33.9228 84.4824L34.0286 83.488ZM33.4286 83.434L33.371 84.4324L33.3721 84.4324L33.4286 83.434ZM32.7926 83.398L32.7372 84.3965L32.7926 83.398ZM32.1686 83.338L32.3073 82.3477L32.0151 82.3068L31.7475 82.431L32.1686 83.338ZM31.6166 83.734L30.8733 83.0651L30.8724 83.0661L31.6166 83.734ZM31.5086 84.664L30.6459 85.1698L30.6511 85.1785L31.5086 84.664ZM31.8326 84.97L32.3541 84.1168L32.3453 84.1114L32.3365 84.1063L31.8326 84.97ZM32.3726 85.174L32.6027 84.2008L32.5896 84.1979L32.3726 85.174ZM33.9206 85.174L34.143 86.149L33.9206 85.174ZM34.4966 84.952L33.9821 84.0945L33.9725 84.1004L34.4966 84.952ZM34.8626 84.61L34.019 84.0732L34.019 84.0732L34.8626 84.61ZM36.0746 78.004H37.0746V77.004H36.0746V78.004ZM35.8226 78.652L35.952 79.6436L35.9923 79.6384L36.0322 79.6298L35.8226 78.652ZM35.1326 78.742L35.0033 77.7504L33.5918 77.9346L34.2437 79.2L35.1326 78.742ZM35.1626 80.428L34.2595 79.9987L34.2565 80.0052L35.1626 80.428ZM34.6946 81.046L34.0426 80.2879L34.0426 80.2879L34.6946 81.046ZM32.2586 81.478L32.5192 80.5126L32.0983 80.399L31.7286 80.63L32.2586 81.478ZM31.9646 81.736L32.7559 82.3475L32.7625 82.339L32.7688 82.3304L31.9646 81.736ZM32.0366 82.336L31.4886 83.1725L31.5052 83.1833L31.5221 83.1935L32.0366 82.336ZM33.1586 82.552L33.1259 83.5515L33.1264 83.5515L33.1586 82.552ZM33.9146 82.594L33.8367 83.591L33.845 83.5916L33.8532 83.5922L33.9146 82.594ZM34.6706 82.684L34.4932 83.6682L34.4959 83.6687L34.6706 82.684ZM35.7926 83.314L34.9577 83.8644L34.962 83.8709L34.9664 83.8774L35.7926 83.314ZM35.7746 84.754L34.895 84.2782L34.8891 84.2895L35.7746 84.754ZM35.2166 85.402L34.6063 84.6099L34.5982 84.6162L35.2166 85.402ZM34.3166 85.858L34.0165 84.904L34.0036 84.9083L34.3166 85.858ZM31.9586 85.9L31.7024 86.8667H31.7024L31.9586 85.9ZM31.1306 85.546L30.5725 86.3758L31.1306 85.546ZM30.6326 85.03L29.761 85.5203L29.7644 85.5262L30.6326 85.03ZM30.7526 83.662L31.4945 84.3326L30.7526 83.662ZM31.5266 83.164L31.8803 84.0994L34.1569 83.2387L31.9328 82.2502L31.5266 83.164ZM31.0946 82.846L30.3003 83.4535L30.3103 83.4666L30.3207 83.4793L31.0946 82.846ZM30.9866 82.03L31.9312 82.3586L31.9353 82.3463L30.9866 82.03ZM31.1306 81.748L30.3146 81.17L30.3097 81.177L31.1306 81.748ZM31.7126 81.256L32.1598 82.1505L33.8486 81.3061L32.2012 80.3835L31.7126 81.256ZM31.0106 80.59L30.1531 81.1045L30.1564 81.11L31.0106 80.59ZM30.9266 78.814L30.0235 78.3847L30.0204 78.3912L30.9266 78.814ZM31.4066 78.196L32.0424 78.968L32.0512 78.9606L31.4066 78.196ZM32.1326 77.8L31.8245 76.8487L31.8205 76.85L32.1326 77.8ZM33.8006 77.752L33.5461 78.7191L33.5541 78.7212L33.5621 78.7232L33.8006 77.752ZM34.4246 78.004L33.9128 78.8631L34.1493 79.004H34.4246V78.004ZM33.0626 81.872C33.3691 81.872 33.6795 81.8297 33.9762 81.7212L33.2891 79.8429C33.2577 79.8544 33.1882 79.872 33.0626 79.872V81.872ZM33.9762 81.7212C34.255 81.6192 34.5169 81.4658 34.7408 81.2499L33.3525 79.8102C33.3524 79.8103 33.3382 79.8249 33.2891 79.8429L33.9762 81.7212ZM34.7408 81.2499C34.9611 81.0374 35.1265 80.7838 35.2339 80.4999L33.3633 79.7921C33.3603 79.8001 33.3582 79.8035 33.3576 79.8044C33.357 79.8052 33.3559 79.807 33.3525 79.8102L34.7408 81.2499ZM35.237 80.4917C35.338 80.2174 35.3826 79.933 35.3826 79.648H33.3826C33.3826 79.7231 33.3712 79.7707 33.3603 79.8003L35.237 80.4917ZM35.3826 79.648C35.3826 79.0558 35.1923 78.4817 34.735 78.0404L33.3463 79.4797C33.3552 79.4883 33.3593 79.4943 33.364 79.5064C33.3699 79.5218 33.3826 79.5641 33.3826 79.648H35.3826ZM34.7413 78.0466C34.2708 77.5845 33.6554 77.43 33.0626 77.43V79.43C33.1933 79.43 33.27 79.4471 33.3084 79.4601C33.3423 79.4715 33.3456 79.4791 33.3399 79.4735L34.7413 78.0466ZM33.0626 77.43C32.4676 77.43 31.8519 77.5834 31.3783 78.0404L32.767 79.4797C32.767 79.4796 32.7672 79.4795 32.7677 79.4791C32.7682 79.4787 32.7694 79.4778 32.7718 79.4764C32.7763 79.4737 32.7872 79.4679 32.8074 79.4612C32.8492 79.4473 32.9292 79.43 33.0626 79.43V77.43ZM31.3719 78.0466C30.9214 78.489 30.7366 79.0612 30.7366 79.648H32.7366C32.7366 79.5622 32.7495 79.5179 32.7559 79.5009C32.7611 79.4872 32.7655 79.4812 32.7733 79.4735L31.3719 78.0466ZM30.7366 79.648C30.7366 79.933 30.7812 80.2174 30.8823 80.4917L32.759 79.8003C32.748 79.7707 32.7366 79.7231 32.7366 79.648H30.7366ZM30.8939 80.5217C31.0051 80.796 31.169 81.0421 31.3845 81.2499L32.7728 79.8102C32.7642 79.802 32.7562 79.7921 32.7474 79.7703L30.8939 80.5217ZM31.3845 81.2499C31.6084 81.4658 31.8702 81.6192 32.1491 81.7212L32.8362 79.8429C32.787 79.8249 32.7729 79.8103 32.7728 79.8102L31.3845 81.2499ZM32.1491 81.7212C32.4457 81.8297 32.7562 81.872 33.0626 81.872V79.872C32.9371 79.872 32.8675 79.8544 32.8362 79.8429L32.1491 81.7212ZM35.9886 84.172C35.9886 83.8242 35.8841 83.4477 35.6011 83.1378L34.1241 84.4863C34.0733 84.4306 34.0359 84.366 34.0133 84.3014C33.9916 84.2394 33.9886 84.1924 33.9886 84.172H35.9886ZM35.6011 83.1378C35.3855 82.9016 35.1224 82.7501 34.8603 82.6555L34.181 84.5366C34.2069 84.5459 34.1718 84.5385 34.1241 84.4863L35.6011 83.1378ZM34.8688 82.6586C34.6332 82.5711 34.3844 82.5203 34.1344 82.4937L33.9228 84.4824C34.0488 84.4958 34.128 84.517 34.1724 84.5335L34.8688 82.6586ZM34.1553 82.4961C33.9414 82.4688 33.7178 82.4488 33.4851 82.4356L33.3721 84.4324C33.5634 84.4433 33.7399 84.4593 33.902 84.48L34.1553 82.4961ZM33.4862 82.4357C33.2775 82.4237 33.0648 82.4116 32.8481 82.3996L32.7372 84.3965C32.9525 84.4085 33.1638 84.4204 33.371 84.4324L33.4862 82.4357ZM32.8481 82.3996C32.658 82.389 32.4778 82.3716 32.3073 82.3477L32.03 84.3284C32.2595 84.3605 32.4953 84.3831 32.7372 84.3965L32.8481 82.3996ZM31.7475 82.431C31.4191 82.5835 31.1199 82.7911 30.8733 83.0651L32.3599 84.403C32.4014 84.357 32.4702 84.3006 32.5897 84.2451L31.7475 82.431ZM30.8724 83.0661C30.5657 83.4079 30.4066 83.8306 30.4066 84.286H32.4066C32.4066 84.2922 32.4052 84.3146 32.3938 84.3446C32.3823 84.3748 32.3676 84.3944 32.3609 84.402L30.8724 83.0661ZM30.4066 84.286C30.4066 84.5977 30.487 84.8986 30.6459 85.1698L32.3713 84.1583C32.381 84.1748 32.3907 84.1965 32.3976 84.222C32.4045 84.2475 32.4066 84.2698 32.4066 84.286H30.4066ZM30.6511 85.1785C30.8249 85.4681 31.0672 85.6812 31.3288 85.8338L32.3365 84.1063C32.3226 84.0981 32.3225 84.0962 32.3303 84.1035C32.3386 84.1114 32.3523 84.1266 32.3661 84.1495L30.6511 85.1785ZM31.3112 85.8233C31.5733 85.9835 31.8637 86.0853 32.1557 86.1502L32.5896 84.1979C32.4496 84.1668 32.3799 84.1326 32.3541 84.1168L31.3112 85.8233ZM32.1426 86.1472C32.457 86.2215 32.7955 86.252 33.1466 86.252V84.252C32.9057 84.252 32.7282 84.2305 32.6027 84.2009L32.1426 86.1472ZM33.1466 86.252C33.493 86.252 33.8276 86.2209 34.143 86.149L33.6983 84.1991C33.5577 84.2311 33.3763 84.252 33.1466 84.252V86.252ZM34.143 86.149C34.4496 86.0791 34.7499 85.9704 35.0207 85.8037L33.9725 84.1004C33.9314 84.1257 33.8477 84.165 33.6983 84.1991L34.143 86.149ZM35.0111 85.8095C35.2788 85.6489 35.5244 85.4328 35.7063 85.1469L34.019 84.0732C34.0252 84.0634 34.0289 84.0606 34.0254 84.0639C34.0214 84.0676 34.0087 84.0786 33.9821 84.0945L35.0111 85.8095ZM35.7063 85.1469C35.8948 84.8507 35.9886 84.5177 35.9886 84.172H33.9886C33.9886 84.1635 33.9899 84.1466 33.9961 84.1251C34.0024 84.1034 34.0111 84.0855 34.019 84.0732L35.7063 85.1469ZM35.0746 78.004V78.4H37.0746V78.004H35.0746ZM35.0746 78.4C35.0746 78.2331 35.1373 78.0221 35.3045 77.8549C35.4469 77.7126 35.5884 77.6795 35.6131 77.6742L36.0322 79.6298C36.2248 79.5886 36.4924 79.4955 36.7187 79.2691C36.9699 79.0179 37.0746 78.699 37.0746 78.4H35.0746ZM35.6933 77.6604L35.0033 77.7504L35.262 79.7336L35.952 79.6436L35.6933 77.6604ZM34.2437 79.2C34.3011 79.3115 34.3366 79.4447 34.3366 79.618H36.3366C36.3366 79.1514 36.2361 78.7005 36.0216 78.2841L34.2437 79.2ZM34.3366 79.618C34.3366 79.7799 34.3058 79.9012 34.2595 79.9987L36.0658 80.8574C36.2514 80.4668 36.3366 80.0482 36.3366 79.618H34.3366ZM34.2565 80.0052C34.2042 80.1172 34.1346 80.2087 34.0426 80.2879L35.3467 81.8042C35.6547 81.5394 35.8971 81.2189 36.0688 80.8509L34.2565 80.0052ZM34.0426 80.2879C33.9532 80.3647 33.8323 80.4362 33.6625 80.492L34.2868 82.3921C34.677 82.2639 35.036 82.0714 35.3467 81.8042L34.0426 80.2879ZM33.6625 80.492C33.4939 80.5474 33.2964 80.58 33.0626 80.58V82.58C33.4848 82.58 33.8954 82.5207 34.2868 82.3921L33.6625 80.492ZM33.0626 80.58C32.8589 80.58 32.6791 80.5557 32.5192 80.5126L31.9981 82.4435C32.3422 82.5363 32.6983 82.58 33.0626 82.58V80.58ZM31.7286 80.63C31.5263 80.7565 31.3228 80.9221 31.1605 81.1417L32.7688 82.3304C32.755 82.3492 32.7461 82.3565 32.7487 82.3542C32.7515 82.3518 32.7634 82.3418 32.7886 82.326L31.7286 80.63ZM31.1733 81.1246C30.9991 81.35 30.8626 81.6495 30.8626 82.006H32.8626C32.8626 82.1786 32.7941 82.298 32.7559 82.3475L31.1733 81.1246ZM30.8626 82.006C30.8626 82.4717 31.0778 82.9033 31.4886 83.1725L32.5847 81.4996C32.6517 81.5435 32.7319 81.6186 32.7907 81.7301C32.8487 81.8401 32.8626 81.9413 32.8626 82.006H30.8626ZM31.5221 83.1935C31.7829 83.35 32.0694 83.4333 32.3402 83.4784L32.669 81.5056C32.6155 81.4967 32.5803 81.4872 32.5599 81.4804C32.5394 81.4735 32.5388 81.4712 32.5511 81.4785L31.5221 83.1935ZM32.3402 83.4784C32.5851 83.5192 32.8483 83.5424 33.1259 83.5515L33.1914 81.5526C32.981 81.5457 32.8082 81.5288 32.669 81.5056L32.3402 83.4784ZM33.1264 83.5515C33.3586 83.559 33.5954 83.5721 33.8367 83.591L33.9925 81.5971C33.7219 81.5759 33.4546 81.5611 33.1909 81.5526L33.1264 83.5515ZM33.8532 83.5922C34.0762 83.6059 34.2894 83.6314 34.4932 83.6682L34.8481 81.6999C34.5638 81.6487 34.273 81.6142 33.9761 81.5959L33.8532 83.5922ZM34.4959 83.6687C34.6598 83.6977 34.7803 83.7409 34.8687 83.787L35.7926 82.0131C35.497 81.8592 35.1775 81.7584 34.8453 81.6994L34.4959 83.6687ZM34.8687 83.787C34.914 83.8105 34.9379 83.8344 34.9577 83.8644L36.6276 82.7637C36.4153 82.4417 36.1313 82.1895 35.7926 82.0131L34.8687 83.787ZM34.9664 83.8774C34.9425 83.8423 34.9726 83.8566 34.9726 83.998H36.9726C36.9726 83.5795 36.8828 83.1378 36.6189 82.7507L34.9664 83.8774ZM34.9726 83.998C34.9726 84.0808 34.9535 84.1703 34.8951 84.2782L36.6542 85.2299C36.8598 84.8498 36.9726 84.4353 36.9726 83.998H34.9726ZM34.8891 84.2895C34.8356 84.3914 34.7495 84.4995 34.6063 84.6099L35.827 86.1942C36.1717 85.9286 36.4576 85.6047 36.6602 85.2186L34.8891 84.2895ZM34.5982 84.6162C34.4664 84.7199 34.2798 84.8213 34.0165 84.9041L34.6167 86.8119C35.0654 86.6708 35.4789 86.4681 35.835 86.1879L34.5982 84.6162ZM34.0036 84.9083C33.7703 84.9852 33.4807 85.032 33.1226 85.032V87.032C33.6526 87.032 34.1589 86.9629 34.6296 86.8078L34.0036 84.9083ZM33.1226 85.032C32.7413 85.032 32.443 84.9939 32.2148 84.9334L31.7024 86.8667C32.1383 86.9822 32.6159 87.032 33.1226 87.032V85.032ZM32.2148 84.9334C31.9603 84.866 31.7938 84.7869 31.6888 84.7163L30.5725 86.3758C30.9075 86.6012 31.2929 86.7581 31.7024 86.8667L32.2148 84.9334ZM31.6888 84.7163C31.5743 84.6393 31.5243 84.5749 31.5009 84.5339L29.7644 85.5262C29.965 85.8772 30.247 86.1568 30.5725 86.3758L31.6888 84.7163ZM31.5042 84.5398C31.477 84.4914 31.4706 84.4574 31.4706 84.424H29.4706C29.4706 84.8146 29.5723 85.1847 29.7611 85.5203L31.5042 84.5398ZM31.4706 84.424C31.4706 84.3798 31.4773 84.3602 31.479 84.3556C31.4803 84.3521 31.4827 84.3456 31.4945 84.3326L30.0108 82.9915C29.6444 83.3969 29.4706 83.8952 29.4706 84.424H31.4706ZM31.4945 84.3326C31.5526 84.2683 31.6644 84.181 31.8803 84.0994L31.173 82.2287C30.7329 82.3951 30.3287 82.6398 30.0108 82.9915L31.4945 84.3326ZM31.9328 82.2502C31.9021 82.2366 31.8848 82.2253 31.8764 82.2192C31.8685 82.2134 31.8671 82.211 31.8686 82.2128L30.3207 83.4793C30.542 83.7497 30.8198 83.9442 31.1205 84.0779L31.9328 82.2502ZM31.889 82.2386C31.9207 82.28 31.9344 82.3161 31.9392 82.3328C31.9433 82.3472 31.9386 82.3394 31.9386 82.3H29.9386C29.9386 82.6751 30.0247 83.0931 30.3003 83.4535L31.889 82.2386ZM31.9386 82.3C31.9386 82.3352 31.932 82.3562 31.9311 82.3586L30.0421 81.7015C29.9773 81.8879 29.9386 82.0889 29.9386 82.3H31.9386ZM31.9353 82.3463C31.9341 82.35 31.9363 82.341 31.9515 82.3191L30.3097 81.177C30.197 81.3391 30.1032 81.5181 30.0379 81.7138L31.9353 82.3463ZM31.9467 82.3261C31.9656 82.2994 31.9934 82.2671 32.0351 82.2306L30.7181 80.7255C30.5679 80.8569 30.4317 81.0047 30.3146 81.17L31.9467 82.3261ZM32.0351 82.2306C32.0598 82.209 32.0989 82.1809 32.1598 82.1505L31.2654 80.3616C31.0703 80.4591 30.8855 80.579 30.7181 80.7255L32.0351 82.2306ZM32.2012 80.3835C32.0414 80.2941 31.9376 80.1896 31.8648 80.0701L30.1564 81.11C30.4197 81.5425 30.7838 81.882 31.224 82.1285L32.2012 80.3835ZM31.8681 80.0755C31.8048 79.97 31.7586 79.8284 31.7586 79.618H29.7586C29.7586 80.1437 29.8805 80.6501 30.1531 81.1045L31.8681 80.0755ZM31.7586 79.618C31.7586 79.4509 31.7895 79.3297 31.8328 79.2369L30.0204 78.3912C29.8397 78.7784 29.7586 79.1932 29.7586 79.618H31.7586ZM31.8298 79.2434C31.8843 79.1288 31.9541 79.0406 32.0423 78.968L30.7709 77.4241C30.4512 77.6874 30.201 78.0113 30.0235 78.3847L31.8298 79.2434ZM32.0512 78.9606C32.1476 78.8793 32.2737 78.8063 32.4448 78.7501L31.8205 76.85C31.4315 76.9778 31.0737 77.1687 30.762 77.4315L32.0512 78.9606ZM32.4408 78.7514C32.6136 78.6954 32.8183 78.662 33.0626 78.662V76.662C32.635 76.662 32.2196 76.7207 31.8245 76.8487L32.4408 78.7514ZM33.0626 78.662C33.2508 78.662 33.4104 78.6834 33.5461 78.7191L34.0551 76.785C33.7348 76.7007 33.4024 76.662 33.0626 76.662V78.662ZM33.5621 78.7232C33.701 78.7573 33.8158 78.8054 33.9128 78.8631L34.9364 77.1449C34.6574 76.9787 34.3563 76.8588 34.0392 76.7809L33.5621 78.7232ZM34.4246 79.004H36.0746V77.004H34.4246V79.004ZM38.283 75.004H39.283V74.004H38.283V75.004ZM38.283 83.842V84.842H39.283V83.842H38.283ZM37.215 83.842H36.215V84.842H37.215V83.842ZM37.215 75.004V74.004H36.215V75.004H37.215ZM37.283 75.004V83.842H39.283V75.004H37.283ZM38.283 82.842H37.215V84.842H38.283V82.842ZM38.215 83.842V75.004H36.215V83.842H38.215ZM37.215 76.004H38.283V74.004H37.215V76.004ZM44.0829 80.14V81.14H45.0829V80.14H44.0829ZM43.9749 79.462L43.0245 79.7728L43.0281 79.7839L43.032 79.7949L43.9749 79.462ZM43.6689 78.928L42.9139 79.5837L42.9231 79.5943L42.9326 79.6047L43.6689 78.928ZM43.1829 78.58L42.7821 79.4962L42.7902 79.4997L42.7983 79.5031L43.1829 78.58ZM41.3109 78.904L42.0181 79.6111V79.6111L41.3109 78.904ZM40.7589 80.14L39.7681 80.0049L39.6133 81.14H40.7589V80.14ZM44.9469 82.99L45.7183 83.6264L46.2253 83.0118L45.7396 82.3803L44.9469 82.99ZM44.4729 83.41L45.0062 84.256L45.0128 84.2519L45.0192 84.2477L44.4729 83.41ZM43.8789 83.698L43.5415 82.7567L43.5358 82.7588L43.8789 83.698ZM43.2309 83.866L43.0723 82.8787L43.0637 82.8801L43.0552 82.8816L43.2309 83.866ZM41.4009 83.716L41.0223 84.6417L41.035 84.6467L41.4009 83.716ZM40.4829 83.092L39.7498 83.7721L39.7549 83.7776L39.7601 83.783L40.4829 83.092ZM39.8589 79.492L38.9176 79.1544L38.9144 79.1635L39.8589 79.492ZM40.4229 78.538L41.1624 79.2113L41.1673 79.2058L40.4229 78.538ZM41.3169 77.902L41.7134 78.8201L41.7221 78.8163L41.3169 77.902ZM43.5129 77.854L43.1395 78.7817L43.1467 78.7846L43.154 78.7874L43.5129 77.854ZM44.3169 78.382L43.5975 79.0766L43.6036 79.0829L43.6098 79.0891L44.3169 78.382ZM44.8509 79.234L43.9151 79.5864L43.9165 79.59L44.8509 79.234ZM40.7229 80.806V79.806H39.6912L39.7234 80.8373L40.7229 80.806ZM40.8789 81.808L39.9275 82.1162L39.9316 82.1283L40.8789 81.808ZM41.2749 82.522L40.5223 83.1806L40.5293 83.1884L41.2749 82.522ZM41.8749 82.948L41.4926 83.8721L41.4994 83.8749L41.5063 83.8776L41.8749 82.948ZM43.3449 82.996L43.6432 83.9506L43.6553 83.9466L43.3449 82.996ZM43.8489 82.792L43.3916 81.9028V81.9028L43.8489 82.792ZM44.1969 82.594L44.7432 83.4317L44.7516 83.4261L44.1969 82.594ZM44.6469 82.6L43.83 83.1767L43.8418 83.1935L43.8543 83.2098L44.6469 82.6ZM45.0829 80.14C45.0829 79.795 45.0327 79.4545 44.9179 79.1292L43.032 79.7949C43.0611 79.8776 43.0829 79.9891 43.0829 80.14H45.0829ZM44.9254 79.1513C44.817 78.8196 44.6463 78.5137 44.4053 78.2514L42.9326 79.6047C42.9636 79.6384 42.9969 79.6884 43.0245 79.7728L44.9254 79.1513ZM44.424 78.2724C44.1874 77.9999 43.8971 77.7943 43.5676 77.657L42.7983 79.5031C42.8528 79.5258 42.8865 79.5522 42.9139 79.5837L44.424 78.2724ZM43.5838 77.6639C43.2463 77.5162 42.8885 77.454 42.5289 77.454V79.454C42.6574 79.454 42.7356 79.4758 42.7821 79.4962L43.5838 77.6639ZM42.5289 77.454C41.8103 77.454 41.1291 77.6717 40.6038 78.1969L42.0181 79.6111C42.0928 79.5364 42.2236 79.454 42.5289 79.454V77.454ZM40.6038 78.1969C40.1155 78.6853 39.8615 79.3201 39.7681 80.0049L41.7498 80.2752C41.8004 79.904 41.9144 79.7148 42.0181 79.6111L40.6038 78.1969ZM40.7589 81.14H44.0829V79.14H40.7589V81.14ZM44.1756 82.3537C44.1117 82.4311 44.0309 82.5045 43.9267 82.5724L45.0192 84.2477C45.283 84.0756 45.5182 83.869 45.7183 83.6264L44.1756 82.3537ZM43.9396 82.5641C43.8194 82.6399 43.6874 82.7044 43.5415 82.7567L44.2164 84.6394C44.4945 84.5397 44.7585 84.4122 45.0062 84.256L43.9396 82.5641ZM43.5358 82.7588C43.389 82.8124 43.2349 82.8526 43.0723 82.8787L43.3896 84.8534C43.675 84.8075 43.9529 84.7357 44.2221 84.6373L43.5358 82.7588ZM43.0552 82.8816C42.8872 82.9116 42.724 82.926 42.5649 82.926V84.926C42.8459 84.926 43.1267 84.9005 43.4067 84.8505L43.0552 82.8816ZM42.5649 82.926C42.2579 82.926 41.9954 82.8753 41.7669 82.7854L41.035 84.6467C41.5185 84.8368 42.032 84.926 42.5649 84.926V82.926ZM41.7796 82.7905C41.5561 82.6991 41.3677 82.5705 41.2058 82.4011L39.7601 83.783C40.1181 84.1576 40.5418 84.445 41.0223 84.6416L41.7796 82.7905ZM41.2161 82.412C41.0643 82.2483 40.9297 82.0303 40.8249 81.7363L38.941 82.4078C39.1242 82.9218 39.3896 83.3837 39.7498 83.7721L41.2161 82.412ZM40.8249 81.7363C40.7268 81.461 40.6669 81.1141 40.6669 80.68H38.6669C38.6669 81.2939 38.7511 81.8751 38.941 82.4078L40.8249 81.7363ZM40.6669 80.68C40.6669 80.358 40.7153 80.074 40.8034 79.8206L38.9144 79.1635C38.7466 79.6461 38.6669 80.1541 38.6669 80.68H40.6669ZM40.8002 79.8297C40.8913 79.5759 41.0139 79.3743 41.1624 79.2113L39.6835 77.8648C39.344 78.2377 39.0906 78.6722 38.9177 79.1544L40.8002 79.8297ZM41.1673 79.2058C41.31 79.0467 41.4874 78.9177 41.7134 78.8201L40.9205 76.984C40.4425 77.1904 40.0238 77.4854 39.6786 77.8703L41.1673 79.2058ZM41.7221 78.8163C41.9295 78.7244 42.1846 78.668 42.5049 78.668V76.668C41.9452 76.668 41.4084 76.7677 40.9118 76.9878L41.7221 78.8163ZM42.5049 78.668C42.7533 78.668 42.9611 78.7099 43.1395 78.7817L43.8864 76.9264C43.4487 76.7502 42.9846 76.668 42.5049 76.668V78.668ZM43.154 78.7874C43.335 78.857 43.4786 78.9534 43.5975 79.0766L45.0363 77.6874C44.7073 77.3467 44.3149 77.0911 43.8719 76.9207L43.154 78.7874ZM43.6098 79.0891C43.7252 79.2045 43.8308 79.3626 43.9151 79.5864L45.7868 78.8817C45.615 78.4254 45.3647 78.0156 45.0241 77.6749L43.6098 79.0891ZM43.9165 79.59C43.9934 79.792 44.0429 80.0518 44.0429 80.386H46.0429C46.0429 79.8563 45.9645 79.3481 45.7854 78.878L43.9165 79.59ZM44.0429 80.386C44.0429 80.4396 44.0397 80.4523 44.0421 80.4374C44.0435 80.4287 44.0482 80.402 44.0605 80.3635C44.0723 80.3269 44.0974 80.2596 44.1478 80.1813L45.8301 81.2628C45.9575 81.0647 45.9992 80.8642 46.0168 80.7547C46.0372 80.6278 46.0429 80.5005 46.0429 80.386H44.0429ZM44.1478 80.1813C44.2519 80.0193 44.3958 79.9157 44.5302 79.8604C44.652 79.8102 44.7484 79.806 44.7849 79.806V81.806C45.0432 81.806 45.5296 81.7303 45.8301 81.2628L44.1478 80.1813ZM44.7849 79.806H40.7229V81.806H44.7849V79.806ZM39.7234 80.8373C39.7376 81.2899 39.7997 81.7212 39.9276 82.1162L41.8303 81.4999C41.7742 81.3268 41.7323 81.0902 41.7225 80.7748L39.7234 80.8373ZM39.9316 82.1283C40.0624 82.5153 40.2541 82.874 40.5224 83.1805L42.0275 81.8635C41.9598 81.7861 41.8875 81.6688 41.8263 81.4878L39.9316 82.1283ZM40.5293 83.1884C40.797 83.488 41.1211 83.7183 41.4926 83.8721L42.2573 82.024C42.1648 81.9858 42.0888 81.9321 42.0206 81.8557L40.5293 83.1884ZM41.5063 83.8776C41.8723 84.0227 42.2599 84.086 42.6549 84.086V82.086C42.474 82.086 42.3416 82.0573 42.2436 82.0185L41.5063 83.8776ZM42.6549 84.086C42.9927 84.086 43.3287 84.0488 43.6432 83.9505L43.0467 82.0416C42.9772 82.0633 42.8532 82.086 42.6549 82.086V84.086ZM43.6553 83.9466C43.8874 83.8709 44.1071 83.7838 44.3063 83.6813L43.3916 81.9028C43.3108 81.9443 43.1945 81.9932 43.0345 82.0454L43.6553 83.9466ZM44.3063 83.6813C44.4649 83.5997 44.6131 83.5165 44.7432 83.4317L43.6507 81.7564C43.5968 81.7916 43.5129 81.8403 43.3916 81.9028L44.3063 83.6813ZM44.7516 83.4261C44.7571 83.4225 44.7371 83.4368 44.694 83.4536C44.6516 83.4702 44.564 83.498 44.4429 83.498V81.498C44.0829 81.498 43.8005 81.6565 43.6422 81.762L44.7516 83.4261ZM44.4429 83.498C44.3562 83.498 44.2379 83.4806 44.1127 83.418C43.9855 83.3543 43.8919 83.2645 43.83 83.1767L45.4639 82.0234C45.2162 81.6725 44.8339 81.498 44.4429 81.498V83.498ZM43.8543 83.2098L44.1543 83.5998L45.7396 82.3803L45.4396 81.9903L43.8543 83.2098ZM55.8811 82.144L55.1463 82.8223L55.148 82.8242L55.8811 82.144ZM56.3431 82.642L57.1003 83.2953L57.6847 82.6178L57.0762 81.9619L56.3431 82.642ZM55.0591 83.596L54.6469 82.6849L54.6442 82.6862L55.0591 83.596ZM51.5611 83.62L51.1672 84.5392L51.1734 84.5418L51.5611 83.62ZM50.2711 82.72L49.5343 83.3961L49.5378 83.3999L50.2711 82.72ZM49.4431 81.328L50.3831 80.9869V80.9869L49.4431 81.328ZM49.4551 77.764L50.3906 78.1174L49.4551 77.764ZM50.3131 76.372L49.5913 75.68L49.5875 75.6839L50.3131 76.372ZM51.6451 75.472L52.0251 76.397L52.0312 76.3945L51.6451 75.472ZM54.9751 75.442L55.3614 74.5197L54.9751 75.442ZM56.2111 76.24L57.023 76.8239L57.5339 76.1134L56.8975 75.5128L56.2111 76.24ZM55.8271 76.774L55.0152 76.1902L54.991 76.2239L54.9696 76.2595L55.8271 76.774ZM55.7311 76.876L56.2858 77.7081L56.2953 77.7018L56.3046 77.6953L55.7311 76.876ZM55.3171 76.798L54.7074 77.5907L54.7171 77.5982L54.7271 77.6054L55.3171 76.798ZM54.9091 76.534L55.4052 75.6658V75.6658L54.9091 76.534ZM54.2791 76.276L53.9765 77.2292L53.9834 77.2314L53.9904 77.2334L54.2791 76.276ZM52.1311 76.39L52.5129 77.3143L52.5214 77.3107L52.1311 76.39ZM51.1771 77.056L50.4403 76.3798L50.4353 76.3854L51.1771 77.056ZM50.5651 80.98L49.6248 81.3204L49.6277 81.3282L50.5651 80.98ZM51.1951 82.048L50.4533 82.7187L50.4581 82.724L50.463 82.7293L51.1951 82.048ZM52.1371 82.708L51.7481 83.6293L51.7518 83.6308L52.1371 82.708ZM54.0031 82.894L54.1391 83.8848L54.1471 83.8836L54.1552 83.8824L54.0031 82.894ZM54.5731 82.75L54.2313 81.8102L54.2244 81.8128L54.5731 82.75ZM55.0591 82.51L55.6033 83.349L55.6087 83.3455L55.0591 82.51ZM55.5091 82.156L54.8475 81.4062L54.8399 81.4129L54.8325 81.4197L55.5091 82.156ZM55.7131 83.066C55.6051 83.066 55.4908 83.0431 55.382 82.9925C55.2754 82.9431 55.1981 82.8784 55.1463 82.8223L56.6159 81.4658C56.4008 81.2328 56.0874 81.066 55.7131 81.066V83.066ZM55.148 82.8242L55.61 83.3222L57.0762 81.9619L56.6142 81.4639L55.148 82.8242ZM55.5859 81.9888C55.3314 82.2838 55.0222 82.5152 54.6469 82.6849L55.4713 84.5071C56.104 84.2209 56.6508 83.8162 57.1003 83.2953L55.5859 81.9888ZM54.6442 82.6862C54.3069 82.84 53.8506 82.938 53.2411 82.938V84.938C54.0556 84.938 54.8113 84.8081 55.474 84.5059L54.6442 82.6862ZM53.2411 82.938C52.7414 82.938 52.3155 82.8525 51.9488 82.6983L51.1734 84.5418C51.8147 84.8116 52.5088 84.938 53.2411 84.938V82.938ZM51.955 82.7009C51.5735 82.5374 51.2608 82.3167 51.0044 82.0402L49.5378 83.3999C49.9934 83.8914 50.5407 84.2707 51.1672 84.5392L51.955 82.7009ZM51.0079 82.044C50.7489 81.7616 50.5382 81.4143 50.3831 80.9869L48.5031 81.6692C48.74 82.3218 49.0813 82.9025 49.5343 83.3961L51.0079 82.044ZM50.3831 80.9869C50.2315 80.5693 50.1491 80.0924 50.1491 79.546H48.1491C48.1491 80.2956 48.2627 81.0068 48.5031 81.6692L50.3831 80.9869ZM50.1491 79.546C50.1491 79.0041 50.2341 78.5315 50.3906 78.1174L48.5196 77.4106C48.2681 78.0766 48.1491 78.792 48.1491 79.546H50.1491ZM50.3906 78.1174C50.5513 77.6919 50.7693 77.3442 51.0387 77.0602L49.5875 75.6839C49.1209 76.1758 48.7669 76.7562 48.5196 77.4106L50.3906 78.1174ZM51.0349 77.0641C51.3068 76.7805 51.6331 76.5581 52.0251 76.397L51.2651 74.5471C50.6251 74.81 50.0634 75.1875 49.5913 75.68L51.0349 77.0641ZM52.0312 76.3945C52.4116 76.2353 52.8484 76.148 53.3551 76.148V74.148C52.6138 74.148 51.9106 74.2768 51.259 74.5496L52.0312 76.3945ZM53.3551 76.148C53.8612 76.148 54.2656 76.2291 54.5888 76.3644L55.3614 74.5197C54.7486 74.263 54.073 74.148 53.3551 74.148V76.148ZM54.5888 76.3644C54.95 76.5157 55.2594 76.7168 55.5247 76.9673L56.8975 75.5128C56.4508 75.0912 55.9362 74.7604 55.3614 74.5197L54.5888 76.3644ZM55.3992 75.6562L55.0152 76.1902L56.639 77.3579L57.023 76.8239L55.3992 75.6562ZM54.9696 76.2595C55.0212 76.1735 55.0881 76.1055 55.1576 76.0568L56.3046 77.6953C56.4541 77.5906 56.585 77.4545 56.6846 77.2885L54.9696 76.2595ZM55.1764 76.044C55.3659 75.9177 55.5369 75.912 55.5811 75.912V77.912C55.7533 77.912 56.0243 77.8824 56.2858 77.7081L55.1764 76.044ZM55.5811 75.912C55.7186 75.912 55.8157 75.9474 55.8575 75.9655C55.9008 75.9841 55.918 75.9986 55.9071 75.9906L54.7271 77.6054C54.8835 77.7197 55.1862 77.912 55.5811 77.912V75.912ZM55.9268 76.0054C55.7742 75.888 55.5961 75.7749 55.4052 75.6658L54.413 77.4023C54.5581 77.4852 54.652 77.5481 54.7074 77.5907L55.9268 76.0054ZM55.4052 75.6658C55.153 75.5217 54.8681 75.4092 54.5678 75.3186L53.9904 77.2334C54.1941 77.2949 54.3292 77.3544 54.413 77.4023L55.4052 75.6658ZM54.5817 75.3229C54.2019 75.2023 53.7827 75.156 53.3491 75.156V77.156C53.6515 77.156 53.8523 77.1897 53.9765 77.2292L54.5817 75.3229ZM53.3491 75.156C52.7859 75.156 52.2453 75.2555 51.7408 75.4693L52.5214 77.3107C52.7529 77.2126 53.0243 77.156 53.3491 77.156V75.156ZM51.7493 75.4658C51.247 75.6733 50.8076 75.9797 50.4404 76.3799L51.9138 77.7322C52.0826 77.5484 52.2792 77.4108 52.5129 77.3143L51.7493 75.4658ZM50.4353 76.3854C50.0715 76.7878 49.8022 77.263 49.6159 77.7917L51.5023 78.4564C51.612 78.145 51.7547 77.9083 51.9189 77.7267L50.4353 76.3854ZM49.6159 77.7917C49.4241 78.3362 49.3371 78.9253 49.3371 79.546H51.3371C51.3371 79.1108 51.3981 78.7519 51.5023 78.4564L49.6159 77.7917ZM49.3371 79.546C49.3371 80.1755 49.4263 80.7719 49.6248 81.3203L51.5054 80.6397C51.3999 80.3482 51.3371 79.9886 51.3371 79.546H49.3371ZM49.6277 81.3282C49.8218 81.8509 50.0933 82.3205 50.4533 82.7187L51.9369 81.3774C51.7689 81.1916 51.6204 80.9492 51.5025 80.6319L49.6277 81.3282ZM50.463 82.7293C50.8265 83.1199 51.2572 83.422 51.7481 83.6293L52.5261 81.7868C52.297 81.6901 52.0997 81.5522 51.9272 81.3668L50.463 82.7293ZM51.7518 83.6308C52.2456 83.837 52.7695 83.936 53.3131 83.936V81.936C53.0167 81.936 52.7566 81.883 52.5224 81.7853L51.7518 83.6308ZM53.3131 83.936C53.6042 83.936 53.8807 83.9202 54.1391 83.8848L53.8671 81.9033C53.7175 81.9239 53.5341 81.936 53.3131 81.936V83.936ZM54.1552 83.8824C54.4207 83.8416 54.6777 83.7781 54.9218 83.6873L54.2244 81.8128C54.1245 81.85 54.0015 81.8825 53.851 81.9057L54.1552 83.8824ZM54.9148 83.6898C55.1576 83.6016 55.3881 83.4886 55.6033 83.349L54.5149 81.6711C54.4341 81.7235 54.3406 81.7705 54.2314 81.8102L54.9148 83.6898ZM55.6087 83.3455C55.81 83.213 56.0022 83.061 56.1857 82.8924L54.8325 81.4197C54.72 81.5231 54.6122 81.6071 54.5095 81.6746L55.6087 83.3455ZM56.1707 82.9059C56.1178 82.9525 55.9602 83.066 55.7131 83.066V81.066C55.33 81.066 55.0364 81.2395 54.8475 81.4062L56.1707 82.9059ZM58.5147 78.574H57.5147V81.094L59.2426 79.2597L58.5147 78.574ZM59.3787 77.914L58.9181 77.0265L59.3787 77.914ZM61.3467 77.836L60.9406 78.7499L60.9493 78.7537L60.958 78.7574L61.3467 77.836ZM61.9827 78.304L61.2108 78.9397L61.2176 78.948L61.2245 78.9561L61.9827 78.304ZM62.3727 79.03L63.3279 78.7341L62.3727 79.03ZM62.5047 83.842V84.842H63.5047V83.842H62.5047ZM61.4307 83.842H60.4307V84.842H61.4307V83.842ZM61.1127 78.904L60.3366 79.5346L60.342 79.5413L60.3475 79.5478L61.1127 78.904ZM59.2707 78.748L58.7883 77.8721L58.7829 77.8751L59.2707 78.748ZM58.5147 79.366L57.7686 78.7003L57.5147 78.9847V79.366H58.5147ZM58.5147 83.842V84.842H59.5147V83.842H58.5147ZM57.4407 83.842H56.4407V84.842H57.4407V83.842ZM57.4407 75.004V74.004H56.4407V75.004H57.4407ZM58.5147 75.004H59.5147V74.004H58.5147V75.004ZM59.2426 79.2597C59.4306 79.0602 59.6295 78.9106 59.8394 78.8016L58.9181 77.0265C58.496 77.2455 58.1189 77.5359 57.7868 77.8883L59.2426 79.2597ZM59.8394 78.8016C59.9922 78.7223 60.1938 78.668 60.4707 78.668V76.668C59.9237 76.668 59.3973 76.7778 58.9181 77.0265L59.8394 78.8016ZM60.4707 78.668C60.6908 78.668 60.8398 78.705 60.9406 78.7499L61.7529 76.9222C61.3497 76.743 60.9146 76.668 60.4707 76.668V78.668ZM60.958 78.7574C61.073 78.8059 61.1509 78.867 61.2108 78.9397L62.7547 77.6683C62.4786 77.3331 62.1325 77.0822 61.7354 76.9147L60.958 78.7574ZM61.2245 78.9561C61.2965 79.0397 61.3649 79.1563 61.4175 79.326L63.3279 78.7341C63.2045 78.3358 63.013 77.9684 62.7409 77.652L61.2245 78.9561ZM61.4175 79.326C61.4716 79.5005 61.5047 79.713 61.5047 79.972H63.5047C63.5047 79.5431 63.4499 79.1276 63.3279 78.7341L61.4175 79.326ZM61.5047 79.972V83.842H63.5047V79.972H61.5047ZM62.5047 82.842H61.4307V84.842H62.5047V82.842ZM62.4307 83.842V79.972H60.4307V83.842H62.4307ZM62.4307 79.972C62.4307 79.3691 62.2921 78.7526 61.878 78.2603L60.3475 79.5478C60.3574 79.5595 60.4307 79.655 60.4307 79.972H62.4307ZM61.8888 78.2734C61.4374 77.7178 60.7911 77.52 60.1587 77.52V79.52C60.2755 79.52 60.33 79.5377 60.3448 79.5437C60.3516 79.5464 60.351 79.547 60.3465 79.5437C60.3418 79.5403 60.3382 79.5366 60.3366 79.5346L61.8888 78.2734ZM60.1587 77.52C59.6745 77.52 59.2125 77.6385 58.7883 77.8721L59.7531 79.624C59.8809 79.5536 60.0109 79.52 60.1587 79.52V77.52ZM58.7829 77.8751C58.4031 78.0873 58.0659 78.367 57.7686 78.7003L59.2609 80.0318C59.4275 79.845 59.5943 79.7128 59.7585 79.621L58.7829 77.8751ZM57.5147 79.366V83.842H59.5147V79.366H57.5147ZM58.5147 82.842H57.4407V84.842H58.5147V82.842ZM58.4407 83.842V75.004H56.4407V83.842H58.4407ZM57.4407 76.004H58.5147V74.004H57.4407V76.004ZM57.5147 75.004V78.574H59.5147V75.004H57.5147ZM67.8941 77.89L67.5103 78.8134V78.8134L67.8941 77.89ZM68.8061 78.52L68.0726 79.1997V79.1997L68.8061 78.52ZM69.3821 79.51L68.4353 79.8321L68.4395 79.8439L69.3821 79.51ZM69.3821 82.096L68.4395 81.7622L68.4364 81.771L69.3821 82.096ZM68.8061 83.08L68.0726 82.4004V82.4004L68.8061 83.08ZM67.8941 83.71L68.2691 84.6371L68.278 84.6334L67.8941 83.71ZM65.4821 83.71L65.0982 84.6335L65.1107 84.6385L65.4821 83.71ZM64.5701 83.08L65.3037 82.4004L64.5701 83.08ZM63.9881 82.096L63.0424 82.4211L63.0455 82.4299L63.9881 82.096ZM63.9881 79.51L63.0444 79.1793L63.0424 79.185L63.9881 79.51ZM64.5701 78.52L65.3037 79.1997V79.1997L64.5701 78.52ZM65.4821 77.89L65.1019 76.9651L65.0983 76.9667L65.4821 77.89ZM68.0381 82.492L68.842 83.0869L68.8448 83.0831L68.0381 82.492ZM65.8961 78.664L65.4811 77.7542L65.475 77.757L65.8961 78.664ZM65.3321 79.114L64.5418 78.5012L64.5341 78.5114L65.3321 79.114ZM64.9961 79.84L64.0292 79.5849L64.0268 79.5943L64.9961 79.84ZM65.3321 82.492L64.5254 83.0831L64.5321 83.092L65.3321 82.492ZM66.6941 78.668C67.0262 78.668 67.293 78.7231 67.5103 78.8134L68.278 76.9667C67.7833 76.761 67.2501 76.668 66.6941 76.668V78.668ZM67.5103 78.8134C67.7389 78.9085 67.9222 79.0373 68.0726 79.1997L69.5397 77.8404C69.1861 77.4588 68.7613 77.1676 68.278 76.9667L67.5103 78.8134ZM68.0726 79.1997C68.2196 79.3584 68.3438 79.5629 68.4354 79.8321L70.3288 79.188C70.1565 78.6812 69.8967 78.2257 69.5397 77.8404L68.0726 79.1997ZM68.4395 79.8439C68.5317 80.1043 68.5861 80.419 68.5861 80.8H70.5861C70.5861 80.2291 70.5045 79.6838 70.3248 79.1762L68.4395 79.8439ZM68.5861 80.8C68.5861 81.1861 68.5314 81.5026 68.4395 81.7622L70.3248 82.4299C70.5048 81.9215 70.5861 81.374 70.5861 80.8H68.5861ZM68.4364 81.771C68.3454 82.0359 68.2213 82.2399 68.0726 82.4004L69.5397 83.7597C69.895 83.3762 70.1549 82.9241 70.3278 82.4211L68.4364 81.771ZM68.0726 82.4004C67.9222 82.5628 67.7389 82.6916 67.5103 82.7867L68.278 84.6334C68.7613 84.4325 69.1861 84.1413 69.5397 83.7597L68.0726 82.4004ZM67.5192 82.783C67.2994 82.8719 67.0294 82.926 66.6941 82.926V84.926C67.2468 84.926 67.7769 84.8362 68.2691 84.6371L67.5192 82.783ZM66.6941 82.926C66.3538 82.926 66.0785 82.8716 65.8535 82.7816L65.1107 84.6385C65.6057 84.8365 66.1385 84.926 66.6941 84.926V82.926ZM65.866 82.7867C65.6373 82.6916 65.4541 82.5628 65.3037 82.4004L63.8366 83.7597C64.1902 84.1413 64.6149 84.4325 65.0983 84.6334L65.866 82.7867ZM65.3037 82.4004C65.1529 82.2377 65.0258 82.0306 64.9308 81.7622L63.0455 82.4299C63.2224 82.9294 63.4833 83.3784 63.8366 83.7597L65.3037 82.4004ZM64.9338 81.771C64.8437 81.5087 64.7901 81.1891 64.7901 80.8H62.7901C62.7901 81.371 62.8686 81.9154 63.0424 82.4211L64.9338 81.771ZM64.7901 80.8C64.7901 80.416 64.8434 80.0982 64.9338 79.8351L63.0424 79.185C62.8689 79.6898 62.7901 80.232 62.7901 80.8H64.7901ZM64.9318 79.8408C65.0274 79.5681 65.1546 79.3606 65.3037 79.1997L63.8366 77.8404C63.4817 78.2235 63.2208 78.6759 63.0444 79.1793L64.9318 79.8408ZM65.3037 79.1997C65.4541 79.0373 65.6373 78.9085 65.866 78.8134L65.0983 76.9667C64.6149 77.1676 64.1902 77.4588 63.8366 77.8404L65.3037 79.1997ZM65.8624 78.8149C66.0849 78.7234 66.3571 78.668 66.6941 78.668V76.668C66.1352 76.668 65.5993 76.7606 65.1019 76.9651L65.8624 78.8149ZM66.6941 84.092C67.5378 84.092 68.3176 83.7955 68.842 83.0869L67.2343 81.8972C67.1666 81.9886 67.0505 82.092 66.6941 82.092V84.092ZM68.8448 83.0831C69.3107 82.4472 69.4821 81.649 69.4821 80.806H67.4821C67.4821 81.4031 67.3576 81.7289 67.2315 81.901L68.8448 83.0831ZM69.4821 80.806C69.4821 79.9606 69.3113 79.1597 68.8448 78.523L67.2315 79.7051C67.357 79.8764 67.4821 80.2035 67.4821 80.806H69.4821ZM68.8448 78.523C68.3219 77.8094 67.5415 77.508 66.6941 77.508V79.508C67.0467 79.508 67.1623 79.6107 67.2315 79.7051L68.8448 78.523ZM66.6941 77.508C66.2769 77.508 65.8641 77.5795 65.4811 77.7542L66.3111 79.5739C66.3841 79.5406 66.5034 79.508 66.6941 79.508V77.508ZM65.475 77.757C65.1056 77.9285 64.7913 78.1797 64.5419 78.5012L66.1224 79.7269C66.177 79.6564 66.2386 79.6075 66.3172 79.571L65.475 77.757ZM64.5341 78.5114C64.293 78.8307 64.1315 79.1973 64.0292 79.5849L65.963 80.0952C66.0127 79.9068 66.0753 79.7894 66.1302 79.7166L64.5341 78.5114ZM64.0268 79.5943C63.9304 79.9744 63.8881 80.3813 63.8881 80.806H65.8881C65.8881 80.5108 65.9178 80.2736 65.9655 80.0858L64.0268 79.5943ZM63.8881 80.806C63.8881 81.649 64.0596 82.4472 64.5255 83.0831L66.1388 81.901C66.0127 81.7289 65.8881 81.4031 65.8881 80.806H63.8881ZM64.5321 83.092C65.0624 83.7991 65.8475 84.092 66.6941 84.092V82.092C66.3248 82.092 66.2019 81.985 66.1321 81.892L64.5321 83.092ZM72.0687 77.764H73.0687V76.764H72.0687V77.764ZM72.0687 83.842V84.842H73.0687V83.842H72.0687ZM71.0007 83.842H70.0007V84.842H71.0007V83.842ZM71.0007 77.764V76.764H70.0007V77.764H71.0007ZM72.2307 76.15L71.3286 75.7186L71.3244 75.7274L71.3204 75.7362L72.2307 76.15ZM72.0627 76.39L71.3556 75.6829L71.3556 75.6829L72.0627 76.39ZM71.8167 76.552L71.4321 75.629L71.425 75.6319L71.418 75.635L71.8167 76.552ZM71.2287 76.552L70.8149 77.4624L70.8224 77.4658L70.83 77.4691L71.2287 76.552ZM70.9947 76.39L70.2677 77.0767L70.2775 77.087L70.2876 77.0971L70.9947 76.39ZM70.8327 76.15L69.9157 76.5488L69.9189 76.5563L69.9224 76.5638L70.8327 76.15ZM70.8327 75.562L71.7498 75.9608L71.7529 75.9537L71.7558 75.9467L70.8327 75.562ZM70.9947 75.316L71.7018 76.0231L71.7119 76.013L71.7217 76.0027L70.9947 75.316ZM71.2287 75.148L70.83 74.231L70.8224 74.2343L70.8149 74.2377L71.2287 75.148ZM71.8167 75.148L71.418 76.0651L71.425 76.0682L71.4321 76.0711L71.8167 75.148ZM72.0627 75.316L71.3357 76.0027L71.3553 76.0234L71.3761 76.0431L72.0627 75.316ZM72.2307 75.562L71.3077 75.9467L71.3175 75.9703L71.3286 75.9935L72.2307 75.562ZM71.0687 77.764V83.842H73.0687V77.764H71.0687ZM72.0687 82.842H71.0007V84.842H72.0687V82.842ZM72.0007 83.842V77.764H70.0007V83.842H72.0007ZM71.0007 78.764H72.0687V76.764H71.0007V78.764ZM71.2967 75.856C71.2967 75.837 71.2988 75.8139 71.3045 75.7885C71.3102 75.763 71.3187 75.7394 71.3286 75.7186L73.1329 76.5815C73.2426 76.3521 73.2967 76.1063 73.2967 75.856H71.2967ZM71.3204 75.7362C71.326 75.7238 71.3326 75.7124 71.3395 75.7026C71.3463 75.6929 71.3522 75.6864 71.3556 75.6829L72.7698 77.0971C72.9221 76.9449 73.0489 76.7667 73.1411 76.5638L71.3204 75.7362ZM71.3556 75.6829C71.3873 75.6513 71.4174 75.6351 71.4321 75.629L72.2013 77.4751C72.408 77.389 72.6022 77.2648 72.7698 77.0971L71.3556 75.6829ZM71.418 75.635C71.4357 75.6273 71.4548 75.6212 71.4743 75.6172C71.4936 75.6133 71.5102 75.612 71.5227 75.612V77.612C71.7588 77.612 71.993 77.5658 72.2155 77.4691L71.418 75.635ZM71.5227 75.612C71.5352 75.612 71.5518 75.6133 71.5712 75.6172C71.5907 75.6212 71.6098 75.6273 71.6275 75.635L70.83 77.4691C71.0525 77.5658 71.2867 77.612 71.5227 77.612V75.612ZM71.6425 75.6417C71.6518 75.6459 71.6624 75.6517 71.6734 75.6593C71.6844 75.667 71.694 75.6751 71.7018 75.6829L70.2876 77.0971C70.4409 77.2504 70.6183 77.373 70.8149 77.4624L71.6425 75.6417ZM71.7217 75.7034C71.7241 75.7059 71.7279 75.7103 71.7321 75.7166C71.7363 75.7228 71.7401 75.7296 71.7431 75.7362L69.9224 76.5638C70.0091 76.7547 70.1259 76.9265 70.2677 77.0767L71.7217 75.7034ZM71.7498 75.7513C71.7575 75.769 71.7636 75.7881 71.7675 75.8076C71.7715 75.8269 71.7727 75.8435 71.7727 75.856H69.7727C69.7727 76.0921 69.8189 76.3263 69.9157 76.5488L71.7498 75.7513ZM71.7727 75.856C71.7727 75.8685 71.7715 75.8851 71.7675 75.9045C71.7636 75.924 71.7575 75.9431 71.7498 75.9608L69.9157 75.1633C69.8189 75.3858 69.7727 75.62 69.7727 75.856H71.7727ZM71.7558 75.9467C71.7497 75.9613 71.7335 75.9915 71.7018 76.0231L70.2876 74.6089C70.12 74.7766 69.9958 74.9708 69.9096 75.1774L71.7558 75.9467ZM71.7217 76.0027C71.703 76.0225 71.6754 76.0435 71.6425 76.0584L70.8149 74.2377C70.6061 74.3326 70.4224 74.4656 70.2677 74.6294L71.7217 76.0027ZM71.6275 76.0651C71.6098 76.0728 71.5907 76.0789 71.5712 76.0828C71.5518 76.0868 71.5352 76.088 71.5227 76.088V74.088C71.2867 74.088 71.0525 74.1343 70.83 74.231L71.6275 76.0651ZM71.5227 76.088C71.5102 76.088 71.4936 76.0868 71.4743 76.0828C71.4548 76.0789 71.4357 76.0728 71.418 76.0651L72.2155 74.231C71.993 74.1343 71.7588 74.088 71.5227 74.088V76.088ZM71.4321 76.0711C71.4053 76.0599 71.3688 76.0377 71.3357 76.0027L72.7897 74.6294C72.6206 74.4504 72.4202 74.3161 72.2013 74.225L71.4321 76.0711ZM71.3761 76.0431C71.3411 76.01 71.3188 75.9735 71.3077 75.9467L73.1538 75.1774C73.0626 74.9586 72.9284 74.7581 72.7494 74.589L71.3761 76.0431ZM71.3286 75.9935C71.3187 75.9727 71.3102 75.949 71.3045 75.9236C71.2988 75.8982 71.2967 75.8751 71.2967 75.856H73.2967C73.2967 75.6058 73.2426 75.36 73.1329 75.1306L71.3286 75.9935ZM78.0535 78.844L77.2475 78.2521L77.2448 78.2559L78.0535 78.844ZM77.6275 78.91L77.042 79.7207L77.0572 79.7317L77.0728 79.7421L77.6275 78.91ZM77.3575 78.742L76.8578 79.6082L76.8648 79.6123L76.8719 79.6162L77.3575 78.742ZM76.9675 78.58L76.6439 79.5262L76.6586 79.5312L76.6735 79.5358L76.9675 78.58ZM75.6115 78.664L76.0265 79.5739L76.0331 79.5709L76.0396 79.5678L75.6115 78.664ZM75.0355 79.12L74.247 78.505L74.2394 78.515L75.0355 79.12ZM74.6875 79.846L73.7249 79.5749L73.7215 79.5875L74.6875 79.846ZM74.6995 81.784L73.7395 82.064L73.7406 82.0677L74.6995 81.784ZM75.0535 82.504L74.2633 83.1169L74.2703 83.1258L74.2774 83.1346L75.0535 82.504ZM75.6115 82.948L75.1777 83.849L75.1877 83.8538L75.1977 83.8584L75.6115 82.948ZM76.9915 83.008L77.3279 83.9498L77.3377 83.9463L77.3475 83.9425L76.9915 83.008ZM77.4055 82.798L76.844 81.9706L76.837 81.9753L76.83 81.9802L77.4055 82.798ZM77.6815 82.594L78.3217 83.3623L78.3257 83.359L77.6815 82.594ZM78.1075 82.6L77.2906 83.1767L77.3024 83.1935L77.3149 83.2098L78.1075 82.6ZM78.4075 82.99L79.1866 83.6171L79.6799 83.004L79.2002 82.3803L78.4075 82.99ZM77.9575 83.41L77.3893 82.5871L77.9575 83.41ZM77.4115 83.704L77.7796 84.6339L77.7894 84.6299L77.4115 83.704ZM76.8055 83.872L76.6381 82.8862H76.6381L76.8055 83.872ZM75.0955 83.716L74.6989 84.634L74.703 84.6358L75.0955 83.716ZM74.2495 83.11L73.5046 83.7772L73.5096 83.7827L74.2495 83.11ZM73.6675 79.546L72.7188 79.2298L72.7159 79.2387L73.6675 79.546ZM74.2195 78.556L73.4656 77.8991L73.4649 77.8999L74.2195 78.556ZM75.1135 77.902L74.7122 76.9861L74.7084 76.9878L75.1135 77.902ZM77.4655 77.878L77.0689 78.796L77.0757 78.7989L77.0825 78.8018L77.4655 77.878ZM78.3355 78.46L79.1415 79.052L79.6497 78.36L79.0426 77.7529L78.3355 78.46ZM77.2448 78.2559C77.2519 78.2462 77.2869 78.199 77.3575 78.146L78.5575 79.746C78.6921 79.6451 78.7912 79.5299 78.8623 79.4322L77.2448 78.2559ZM77.3575 78.146C77.5558 77.9973 77.7496 77.982 77.8255 77.982V79.982C78.0135 79.982 78.2953 79.9427 78.5575 79.746L77.3575 78.146ZM77.8255 77.982C78.0323 77.982 78.1592 78.0626 78.1822 78.078L77.0728 79.7421C77.2399 79.8535 77.4988 79.982 77.8255 79.982V77.982ZM78.213 78.0994C78.0994 78.0173 77.9734 77.9403 77.8432 77.8679L76.8719 79.6162C76.9576 79.6638 77.0117 79.6988 77.042 79.7207L78.213 78.0994ZM77.8573 77.8759C77.6698 77.7677 77.4656 77.687 77.2616 77.6243L76.6735 79.5358C76.7815 79.5691 76.8372 79.5964 76.8578 79.6082L77.8573 77.8759ZM77.2912 77.6339C77.0029 77.5352 76.6976 77.502 76.4035 77.502V79.502C76.5575 79.502 76.6282 79.5208 76.6439 79.5262L77.2912 77.6339ZM76.4035 77.502C75.9832 77.502 75.5682 77.578 75.1835 77.7603L76.0396 79.5678C76.1109 79.534 76.2239 79.502 76.4035 79.502V77.502ZM75.1965 77.7542C74.8203 77.9258 74.5008 78.1797 74.247 78.505L75.824 79.7351C75.8823 79.6603 75.9468 79.6102 76.0265 79.5739L75.1965 77.7542ZM74.2394 78.515C73.9994 78.8307 73.8332 79.1908 73.725 79.5749L75.6501 80.1172C75.7019 79.9332 75.7676 79.8094 75.8317 79.7251L74.2394 78.515ZM73.7215 79.5875C73.619 79.9705 73.5735 80.3773 73.5735 80.8H75.5735C75.5735 80.5187 75.604 80.2896 75.6535 80.1046L73.7215 79.5875ZM73.5735 80.8C73.5735 81.2422 73.6238 81.6672 73.7395 82.064L75.6595 81.504C75.6073 81.3249 75.5735 81.0939 75.5735 80.8H73.5735ZM73.7406 82.0677C73.8532 82.4483 74.0219 82.8055 74.2633 83.1169L75.8438 81.8912C75.7812 81.8106 75.7139 81.6878 75.6585 81.5004L73.7406 82.0677ZM74.2774 83.1346C74.5232 83.4371 74.8248 83.6791 75.1777 83.849L76.0454 82.047C75.9663 82.009 75.8959 81.955 75.8297 81.8734L74.2774 83.1346ZM75.1977 83.8584C75.5631 84.0245 75.9528 84.098 76.3495 84.098V82.098C76.2023 82.098 76.1 82.0716 76.0253 82.0377L75.1977 83.8584ZM76.3495 84.098C76.6765 84.098 77.0147 84.0616 77.3279 83.9498L76.6552 82.0663C76.6324 82.0744 76.5426 82.098 76.3495 82.098V84.098ZM77.3475 83.9425C77.5674 83.8588 77.7856 83.7534 77.981 83.6158L76.83 81.9802C76.8095 81.9947 76.7517 82.0293 76.6355 82.0736L77.3475 83.9425ZM77.967 83.6255C78.0954 83.5384 78.2161 83.4503 78.3217 83.3623L77.0414 81.8258C77.0029 81.8578 76.9397 81.9057 76.844 81.9706L77.967 83.6255ZM78.3257 83.359C78.2896 83.3894 78.1432 83.498 77.9035 83.498V81.498C77.5199 81.498 77.2255 81.6707 77.0374 81.8291L78.3257 83.359ZM77.9035 83.498C77.8168 83.498 77.6985 83.4806 77.5733 83.418C77.4461 83.3543 77.3525 83.2645 77.2906 83.1767L78.9245 82.0234C78.6768 81.6725 78.2945 81.498 77.9035 81.498V83.498ZM77.3149 83.2098L77.6149 83.5998L79.2002 82.3803L78.9002 81.9903L77.3149 83.2098ZM77.6285 82.363C77.5551 82.4543 77.4755 82.5276 77.3893 82.5871L78.5257 84.2329C78.7755 84.0605 78.996 83.8538 79.1866 83.6171L77.6285 82.363ZM77.3893 82.5871C77.283 82.6606 77.1651 82.7245 77.0336 82.7782L77.7894 84.6299C78.0499 84.5236 78.2961 84.3915 78.5257 84.2329L77.3893 82.5871ZM77.0435 82.7742C76.9189 82.8236 76.7843 82.8613 76.6381 82.8862L76.973 84.8579C77.2508 84.8108 77.5202 84.7365 77.7796 84.6338L77.0435 82.7742ZM76.6381 82.8862C76.4827 82.9125 76.3227 82.926 76.1575 82.926V84.926C76.4323 84.926 76.7044 84.9035 76.973 84.8579L76.6381 82.8862ZM76.1575 82.926C75.9035 82.926 75.684 82.8799 75.4881 82.7963L74.703 84.6358C75.1631 84.8321 75.6516 84.926 76.1575 84.926V82.926ZM75.4922 82.7981C75.3002 82.7151 75.1349 82.5973 74.9895 82.4374L73.5096 83.7827C73.8442 84.1508 74.2429 84.437 74.6989 84.634L75.4922 82.7981ZM74.9945 82.4429C74.8539 82.2859 74.7279 82.0768 74.6292 81.7953L72.7418 82.4568C72.9152 82.9513 73.1652 83.3982 73.5046 83.7772L74.9945 82.4429ZM74.6292 81.7953C74.5373 81.5329 74.4815 81.2059 74.4815 80.8H72.4815C72.4815 81.3862 72.5618 81.9432 72.7418 82.4568L74.6292 81.7953ZM74.4815 80.8C74.4815 80.44 74.5308 80.1269 74.6192 79.8533L72.7159 79.2387C72.5563 79.7332 72.4815 80.2561 72.4815 80.8H74.4815ZM74.6162 79.8623C74.707 79.5899 74.8294 79.3787 74.9741 79.2122L73.4649 77.8999C73.1297 78.2854 72.8841 78.7342 72.7189 79.2298L74.6162 79.8623ZM74.9734 79.213C75.1179 79.0473 75.2953 78.9153 75.5187 78.8163L74.7084 76.9878C74.2277 77.2008 73.8092 77.5048 73.4656 77.8991L74.9734 79.213ZM75.5149 78.818C75.7233 78.7266 75.9907 78.668 76.3375 78.668V76.668C75.7644 76.668 75.2158 76.7654 74.7122 76.9861L75.5149 78.818ZM76.3375 78.668C76.6575 78.668 76.8938 78.7203 77.0689 78.796L77.8622 76.9601C77.3893 76.7557 76.8736 76.668 76.3375 76.668V78.668ZM77.0825 78.8018C77.2889 78.8873 77.4689 79.0076 77.6284 79.1671L79.0426 77.7529C78.6982 77.4085 78.2982 77.1407 77.8486 76.9543L77.0825 78.8018ZM77.5295 77.8681L77.2475 78.2521L78.8595 79.436L79.1415 79.052L77.5295 77.8681ZM83.5165 80.14V81.14H84.5165V80.14H83.5165ZM83.4085 79.462L82.458 79.7728L82.4617 79.7839L82.4655 79.7949L83.4085 79.462ZM83.1025 78.928L82.3475 79.5837L82.3567 79.5943L82.3662 79.6047L83.1025 78.928ZM82.6165 78.58L82.2157 79.4962L82.2238 79.4997L82.2319 79.5031L82.6165 78.58ZM80.7445 78.904L81.4516 79.6111V79.6111L80.7445 78.904ZM80.1925 80.14L79.2017 80.0049L79.0469 81.14H80.1925V80.14ZM84.3805 82.99L85.1519 83.6264L85.6589 83.0118L85.1732 82.3803L84.3805 82.99ZM83.9065 83.41L84.4398 84.256L84.4464 84.2519L84.4528 84.2477L83.9065 83.41ZM83.3125 83.698L82.9751 82.7567L82.9693 82.7588L83.3125 83.698ZM82.6645 83.866L82.5059 82.8787L82.4973 82.8801L82.4887 82.8816L82.6645 83.866ZM80.8345 83.716L80.4559 84.6417L80.4686 84.6467L80.8345 83.716ZM79.9165 83.092L79.1834 83.7721L79.1885 83.7776L79.1937 83.783L79.9165 83.092ZM79.2925 79.492L78.3512 79.1544L78.348 79.1635L79.2925 79.492ZM79.8565 78.538L80.596 79.2113L80.6009 79.2058L79.8565 78.538ZM80.7505 77.902L81.147 78.8201L81.1557 78.8163L80.7505 77.902ZM82.9465 77.854L82.5731 78.7817L82.5803 78.7846L82.5876 78.7874L82.9465 77.854ZM83.7505 78.382L83.0311 79.0766L83.0372 79.0829L83.0434 79.0891L83.7505 78.382ZM84.2845 79.234L83.3487 79.5864L83.3501 79.59L84.2845 79.234ZM80.1565 80.806V79.806H79.1248L79.157 80.8373L80.1565 80.806ZM80.3125 81.808L79.3611 82.1162L79.3652 82.1283L80.3125 81.808ZM80.7085 82.522L79.9559 83.1806L79.9629 83.1884L80.7085 82.522ZM81.3085 82.948L80.9262 83.8721L80.933 83.8749L80.9399 83.8776L81.3085 82.948ZM82.7785 82.996L83.0768 83.9506L83.0889 83.9466L82.7785 82.996ZM83.2825 82.792L82.8252 81.9028L82.8252 81.9028L83.2825 82.792ZM83.6305 82.594L84.1768 83.4317L84.1852 83.4261L83.6305 82.594ZM84.0805 82.6L83.2636 83.1767L83.2754 83.1935L83.2879 83.2098L84.0805 82.6ZM84.5165 80.14C84.5165 79.795 84.4663 79.4545 84.3515 79.1292L82.4655 79.7949C82.4947 79.8776 82.5165 79.9891 82.5165 80.14H84.5165ZM84.359 79.1513C84.2506 78.8196 84.0799 78.5137 83.8389 78.2514L82.3662 79.6047C82.3972 79.6384 82.4305 79.6884 82.458 79.7728L84.359 79.1513ZM83.8576 78.2724C83.621 77.9999 83.3307 77.7943 83.0012 77.657L82.2319 79.5031C82.2864 79.5258 82.3201 79.5522 82.3475 79.5837L83.8576 78.2724ZM83.0174 77.6639C82.6799 77.5162 82.3221 77.454 81.9625 77.454V79.454C82.091 79.454 82.1692 79.4758 82.2157 79.4962L83.0174 77.6639ZM81.9625 77.454C81.2439 77.454 80.5627 77.6717 80.0374 78.1969L81.4516 79.6111C81.5264 79.5364 81.6572 79.454 81.9625 79.454V77.454ZM80.0374 78.1969C79.5491 78.6853 79.2951 79.3201 79.2017 80.0049L81.1834 80.2752C81.234 79.904 81.348 79.7148 81.4516 79.6111L80.0374 78.1969ZM80.1925 81.14H83.5165V79.14H80.1925V81.14ZM83.6092 82.3537C83.5453 82.4311 83.4645 82.5045 83.3603 82.5724L84.4528 84.2477C84.7166 84.0756 84.9518 83.869 85.1519 83.6264L83.6092 82.3537ZM83.3732 82.5641C83.253 82.6399 83.1209 82.7044 82.9751 82.7567L83.65 84.6394C83.9281 84.5397 84.1921 84.4122 84.4398 84.256L83.3732 82.5641ZM82.9693 82.7588C82.8226 82.8124 82.6685 82.8526 82.5059 82.8787L82.8232 84.8534C83.1086 84.8075 83.3865 84.7357 83.6557 84.6373L82.9693 82.7588ZM82.4887 82.8816C82.3208 82.9116 82.1576 82.926 81.9985 82.926V84.926C82.2795 84.926 82.5603 84.9005 82.8403 84.8505L82.4887 82.8816ZM81.9985 82.926C81.6915 82.926 81.429 82.8753 81.2005 82.7854L80.4686 84.6467C80.952 84.8368 81.4656 84.926 81.9985 84.926V82.926ZM81.2132 82.7905C80.9897 82.6991 80.8013 82.5705 80.6394 82.4011L79.1937 83.783C79.5517 84.1576 79.9754 84.445 80.4559 84.6416L81.2132 82.7905ZM80.6497 82.412C80.4979 82.2483 80.3633 82.0303 80.2585 81.7363L78.3746 82.4078C78.5578 82.9218 78.8232 83.3837 79.1834 83.7721L80.6497 82.412ZM80.2585 81.7363C80.1604 81.461 80.1005 81.1141 80.1005 80.68H78.1005C78.1005 81.2939 78.1847 81.8751 78.3746 82.4078L80.2585 81.7363ZM80.1005 80.68C80.1005 80.358 80.1489 80.074 80.237 79.8206L78.348 79.1635C78.1802 79.6461 78.1005 80.1541 78.1005 80.68H80.1005ZM80.2338 79.8297C80.3249 79.5759 80.4475 79.3743 80.596 79.2113L79.1171 77.8648C78.7776 78.2377 78.5242 78.6722 78.3513 79.1544L80.2338 79.8297ZM80.6009 79.2058C80.7436 79.0467 80.921 78.9177 81.147 78.8201L80.3541 76.984C79.8761 77.1904 79.4574 77.4854 79.1122 77.8703L80.6009 79.2058ZM81.1557 78.8163C81.3631 78.7244 81.6182 78.668 81.9385 78.668V76.668C81.3788 76.668 80.8419 76.7677 80.3454 76.9878L81.1557 78.8163ZM81.9385 78.668C82.1869 78.668 82.3947 78.7099 82.5731 78.7817L83.32 76.9264C82.8823 76.7502 82.4181 76.668 81.9385 76.668V78.668ZM82.5876 78.7874C82.7686 78.857 82.9122 78.9534 83.0311 79.0766L84.4699 77.6874C84.1409 77.3467 83.7485 77.0911 83.3055 76.9207L82.5876 78.7874ZM83.0434 79.0891C83.1588 79.2045 83.2644 79.3626 83.3487 79.5864L85.2204 78.8817C85.0486 78.4254 84.7983 78.0156 84.4576 77.6749L83.0434 79.0891ZM83.3501 79.59C83.427 79.792 83.4765 80.0518 83.4765 80.386H85.4765C85.4765 79.8563 85.3981 79.3481 85.219 78.878L83.3501 79.59ZM83.4765 80.386C83.4765 80.4396 83.4733 80.4523 83.4757 80.4374C83.4771 80.4287 83.4818 80.402 83.4941 80.3635C83.5059 80.3269 83.531 80.2596 83.5814 80.1813L85.2637 81.2628C85.3911 81.0647 85.4328 80.8642 85.4504 80.7547C85.4708 80.6278 85.4765 80.5005 85.4765 80.386H83.4765ZM83.5814 80.1813C83.6855 80.0193 83.8293 79.9157 83.9638 79.8604C84.0856 79.8102 84.182 79.806 84.2185 79.806V81.806C84.4768 81.806 84.9632 81.7303 85.2637 81.2628L83.5814 80.1813ZM84.2185 79.806H80.1565V81.806H84.2185V79.806ZM79.157 80.8373C79.1712 81.2899 79.2333 81.7212 79.3612 82.1162L81.2639 81.4999C81.2078 81.3268 81.1659 81.0902 81.1561 80.7748L79.157 80.8373ZM79.3652 82.1283C79.496 82.5153 79.6877 82.874 79.956 83.1805L81.4611 81.8635C81.3934 81.7861 81.3211 81.6688 81.2599 81.4878L79.3652 82.1283ZM79.9629 83.1884C80.2306 83.488 80.5546 83.7183 80.9262 83.8721L81.6909 82.024C81.5984 81.9858 81.5224 81.9321 81.4542 81.8557L79.9629 83.1884ZM80.9399 83.8776C81.3059 84.0227 81.6935 84.086 82.0885 84.086V82.086C81.9076 82.086 81.7752 82.0573 81.6772 82.0185L80.9399 83.8776ZM82.0885 84.086C82.4263 84.086 82.7623 84.0488 83.0768 83.9505L82.4803 82.0416C82.4108 82.0633 82.2868 82.086 82.0885 82.086V84.086ZM83.0889 83.9466C83.3209 83.8709 83.5407 83.7838 83.7399 83.6813L82.8252 81.9028C82.7443 81.9443 82.6281 81.9932 82.4681 82.0454L83.0889 83.9466ZM83.7399 83.6813C83.8985 83.5997 84.0467 83.5165 84.1768 83.4317L83.0843 81.7564C83.0303 81.7916 82.9465 81.8403 82.8252 81.9028L83.7399 83.6813ZM84.1852 83.4261C84.1907 83.4225 84.1707 83.4368 84.1276 83.4536C84.0852 83.4702 83.9976 83.498 83.8765 83.498V81.498C83.5165 81.498 83.234 81.6565 83.0758 81.762L84.1852 83.4261ZM83.8765 83.498C83.7898 83.498 83.6715 83.4806 83.5463 83.418C83.4191 83.3543 83.3255 83.2645 83.2636 83.1767L84.8975 82.0234C84.6498 81.6725 84.2675 81.498 83.8765 81.498V83.498ZM83.2879 83.2098L83.5879 83.5998L85.1732 82.3803L84.8732 81.9903L83.2879 83.2098Z" fill="#9C9C9C" />
	<path d="M26 36.3541V33.3555H31V36.3541H26Z" fill="#9C9C9C" stroke="#9C9C9C" />
	<path d="M26 44.3514V41.3528H31V44.3514H26Z" fill="#9C9C9C" stroke="#9C9C9C" />
	<path d="M26 52.3486V49.35H31V52.3486H26Z" fill="#9C9C9C" stroke="#9C9C9C" />
	<path d="M35 36.3541V33.3555H40V36.3541H35Z" fill="#9C9C9C" stroke="#9C9C9C" />
	<path d="M35 44.3514V41.3528H40V44.3514H35Z" fill="#9C9C9C" stroke="#9C9C9C" />
	<path d="M35 52.3486V49.35H40V52.3486H35Z" fill="#9C9C9C" stroke="#9C9C9C" />
	<path d="M72 42.8521C72 49.2009 66.8514 54.3479 60.5 54.3479C54.1486 54.3479 49 49.2009 49 42.8521C49 36.5032 54.1486 31.3562 60.5 31.3562C66.8514 31.3562 72 36.5032 72 42.8521Z" stroke="#9C9C9C" />
	<path d="M60.5 53.8484C66.5751 53.8484 71.5 48.9252 71.5 42.8522C71.5 36.7791 66.5751 31.856 60.5 31.856C54.4249 31.856 49.5 36.7791 49.5 42.8522C49.5 48.9252 54.4249 53.8484 60.5 53.8484Z" stroke="#9C9C9C" stroke-width="2" />
	<path d="M65 42.8521C65 45.3362 62.9854 47.3503 60.5 47.3503C58.0146 47.3503 56 45.3362 56 42.8521C56 40.3679 58.0146 38.3538 60.5 38.3538C62.9854 38.3538 65 40.3679 65 42.8521Z" fill="#3E4244" stroke="#9C9C9C" />
</svg>
