<svg width="98" height="94" viewBox="0 0 98 94" fill="none" xmlns="http://www.w3.org/2000/svg">
	<path opacity="0.5" d="M2.96907 1.1699C1.99128 1.57517 1.20913 2.35696 0.803615 3.33435L1.26544 3.52596C1.09456 3.93783 1 4.38985 1 4.8652V6.79636H0.5V10.6587H1V14.521H0.5V18.3833H1V22.2456H0.5V26.1079H1V29.9702H0.5V33.8325H1V37.6948H0.5V41.5571H1V45.4194H0.5V49.2817H1V53.1441H0.5V57.0064H1V60.8687H0.5V64.731H1V68.5933H0.5V72.4556H1V76.3179H0.5V80.1802H1V84.0425H0.5V87.9048H1V89.836C1 90.3113 1.09456 90.7633 1.26544 91.1752L0.803615 91.3668C1.20913 92.3442 1.99128 93.126 2.96907 93.5313L3.16052 93.0694C3.57246 93.2401 4.02456 93.3346 4.5 93.3346H6.52273V93.8346H10.5682V93.3346H14.6136V93.8346H18.6591V93.3346H22.7045V93.8346H26.75V93.3346H30.7955V93.8346H34.8409V93.3346H38.8864V93.8346H42.9318V93.3346H46.9773V93.8346H51.0227V93.3346H55.0682V93.8346H59.1136V93.3346H63.1591V93.8346H67.2046V93.3346H71.25V93.8346H75.2955V93.3346H79.3409V93.8346H83.3864V93.3346H87.4318V93.8346H91.4773V93.3346H93.5C93.9754 93.3346 94.4275 93.2401 94.8395 93.0694L95.0309 93.5313C96.0087 93.126 96.7909 92.3442 97.1964 91.3668L96.7346 91.1752C96.9054 90.7633 97 90.3113 97 89.836V87.9048H97.5V84.0425H97V80.1802H97.5V76.3179H97V72.4556H97.5V68.5933H97V64.731H97.5V60.8687H97V57.0063H97.5V53.144H97V49.2817H97.5V45.4194H97V41.5571H97.5V37.6948H97V33.8325H97.5V29.9702H97V26.1079H97.5V22.2456H97V18.3833H97.5V14.521H97V10.6587H97.5V6.79635H97V4.8652C97 4.38985 96.9054 3.93783 96.7346 3.52596L97.1964 3.33435C96.7909 2.35696 96.0087 1.57517 95.0309 1.1699L94.8395 1.6318C94.4275 1.46106 93.9754 1.36658 93.5 1.36658H91.4773V0.866577H87.4318V1.36658H83.3864V0.866577H79.3409V1.36658H75.2955V0.866577H71.25V1.36658H67.2045V0.866577H63.1591V1.36658H59.1136V0.866577H55.0682V1.36658H51.0227V0.866577H46.9773V1.36658H42.9318V0.866577H38.8864V1.36658H34.8409V0.866577H30.7955V1.36658H26.75V0.866577H22.7045V1.36658H18.6591V0.866577H14.6136V1.36658H10.5682V0.866577H6.52271V1.36658H4.5C4.02456 1.36658 3.57246 1.46106 3.16052 1.6318L2.96907 1.1699Z" fill="#F2F2F2" stroke="#9C9C9C" stroke-dasharray="4 4" />
	<path d="M30.3146 79.546C30.3146 80.19 30.2126 80.776 30.0086 81.304C29.8046 81.832 29.5166 82.284 29.1446 82.66C28.7726 83.036 28.3246 83.328 27.8006 83.536C27.2806 83.74 26.7046 83.842 26.0726 83.842H22.8626V75.244H26.0726C26.7046 75.244 27.2806 75.348 27.8006 75.556C28.3246 75.76 28.7726 76.052 29.1446 76.432C29.5166 76.808 29.8046 77.26 30.0086 77.788C30.2126 78.316 30.3146 78.902 30.3146 79.546ZM29.1206 79.546C29.1206 79.018 29.0486 78.546 28.9046 78.13C28.7606 77.714 28.5566 77.362 28.2926 77.074C28.0286 76.786 27.7086 76.566 27.3326 76.414C26.9566 76.262 26.5366 76.186 26.0726 76.186H24.0266V82.9H26.0726C26.5366 82.9 26.9566 82.824 27.3326 82.672C27.7086 82.52 28.0286 82.302 28.2926 82.018C28.5566 81.73 28.7606 81.378 28.9046 80.962C29.0486 80.546 29.1206 80.074 29.1206 79.546ZM32.6246 78.982C32.8166 78.566 33.0526 78.242 33.3326 78.01C33.6126 77.774 33.9546 77.656 34.3586 77.656C34.4866 77.656 34.6086 77.67 34.7246 77.698C34.8446 77.726 34.9506 77.77 35.0426 77.83L34.9646 78.628C34.9406 78.728 34.8806 78.778 34.7846 78.778C34.7286 78.778 34.6466 78.766 34.5386 78.742C34.4306 78.718 34.3086 78.706 34.1726 78.706C33.9806 78.706 33.8086 78.734 33.6566 78.79C33.5086 78.846 33.3746 78.93 33.2546 79.042C33.1386 79.15 33.0326 79.286 32.9366 79.45C32.8446 79.61 32.7606 79.794 32.6846 80.002V83.842H31.6106V77.764H32.2226C32.3386 77.764 32.4186 77.786 32.4626 77.83C32.5066 77.874 32.5366 77.95 32.5526 78.058L32.6246 78.982ZM38.2976 77.668C38.7416 77.668 39.1416 77.742 39.4976 77.89C39.8536 78.038 40.1576 78.248 40.4096 78.52C40.6616 78.792 40.8536 79.122 40.9856 79.51C41.1216 79.894 41.1896 80.324 41.1896 80.8C41.1896 81.28 41.1216 81.712 40.9856 82.096C40.8536 82.48 40.6616 82.808 40.4096 83.08C40.1576 83.352 39.8536 83.562 39.4976 83.71C39.1416 83.854 38.7416 83.926 38.2976 83.926C37.8496 83.926 37.4456 83.854 37.0856 83.71C36.7296 83.562 36.4256 83.352 36.1736 83.08C35.9216 82.808 35.7276 82.48 35.5916 82.096C35.4596 81.712 35.3936 81.28 35.3936 80.8C35.3936 80.324 35.4596 79.894 35.5916 79.51C35.7276 79.122 35.9216 78.792 36.1736 78.52C36.4256 78.248 36.7296 78.038 37.0856 77.89C37.4456 77.742 37.8496 77.668 38.2976 77.668ZM38.2976 83.092C38.8976 83.092 39.3456 82.892 39.6416 82.492C39.9376 82.088 40.0856 81.526 40.0856 80.806C40.0856 80.082 39.9376 79.518 39.6416 79.114C39.3456 78.71 38.8976 78.508 38.2976 78.508C37.9936 78.508 37.7276 78.56 37.4996 78.664C37.2756 78.768 37.0876 78.918 36.9356 79.114C36.7876 79.31 36.6756 79.552 36.5996 79.84C36.5276 80.124 36.4916 80.446 36.4916 80.806C36.4916 81.526 36.6396 82.088 36.9356 82.492C37.2356 82.892 37.6896 83.092 38.2976 83.092ZM43.6182 82.378C43.8142 82.642 44.0282 82.828 44.2602 82.936C44.4922 83.044 44.7522 83.098 45.0402 83.098C45.6082 83.098 46.0442 82.896 46.3482 82.492C46.6522 82.088 46.8042 81.512 46.8042 80.764C46.8042 80.368 46.7682 80.028 46.6962 79.744C46.6282 79.46 46.5282 79.228 46.3962 79.048C46.2642 78.864 46.1022 78.73 45.9102 78.646C45.7182 78.562 45.5002 78.52 45.2562 78.52C44.9082 78.52 44.6022 78.6 44.3382 78.76C44.0782 78.92 43.8382 79.146 43.6182 79.438V82.378ZM43.5642 78.706C43.8202 78.39 44.1162 78.136 44.4522 77.944C44.7882 77.752 45.1722 77.656 45.6042 77.656C45.9562 77.656 46.2742 77.724 46.5582 77.86C46.8422 77.992 47.0842 78.19 47.2842 78.454C47.4842 78.714 47.6382 79.038 47.7462 79.426C47.8542 79.814 47.9082 80.26 47.9082 80.764C47.9082 81.212 47.8482 81.63 47.7282 82.018C47.6082 82.402 47.4342 82.736 47.2062 83.02C46.9822 83.3 46.7062 83.522 46.3782 83.686C46.0542 83.846 45.6882 83.926 45.2802 83.926C44.9082 83.926 44.5882 83.864 44.3202 83.74C44.0562 83.612 43.8222 83.436 43.6182 83.212V85.9H42.5442V77.764H43.1862C43.3382 77.764 43.4322 77.838 43.4682 77.986L43.5642 78.706ZM53.2308 79.21C53.0308 78.942 52.8148 78.756 52.5828 78.652C52.3508 78.544 52.0908 78.49 51.8028 78.49C51.2388 78.49 50.8048 78.692 50.5008 79.096C50.1968 79.5 50.0448 80.076 50.0448 80.824C50.0448 81.22 50.0788 81.56 50.1468 81.844C50.2148 82.124 50.3148 82.356 50.4468 82.54C50.5788 82.72 50.7408 82.852 50.9328 82.936C51.1248 83.02 51.3428 83.062 51.5868 83.062C51.9388 83.062 52.2448 82.982 52.5048 82.822C52.7688 82.662 53.0108 82.436 53.2308 82.144V79.21ZM54.2988 75.004V83.842H53.6628C53.5108 83.842 53.4148 83.768 53.3748 83.62L53.2788 82.882C53.0188 83.194 52.7228 83.446 52.3908 83.638C52.0588 83.83 51.6748 83.926 51.2388 83.926C50.8908 83.926 50.5748 83.86 50.2908 83.728C50.0068 83.592 49.7648 83.394 49.5648 83.134C49.3648 82.874 49.2108 82.55 49.1028 82.162C48.9948 81.774 48.9408 81.328 48.9408 80.824C48.9408 80.376 49.0008 79.96 49.1208 79.576C49.2408 79.188 49.4128 78.852 49.6368 78.568C49.8608 78.284 50.1348 78.062 50.4588 77.902C50.7868 77.738 51.1548 77.656 51.5628 77.656C51.9348 77.656 52.2528 77.72 52.5168 77.848C52.7848 77.972 53.0228 78.146 53.2308 78.37V75.004H54.2988ZM58.5476 77.668C58.9916 77.668 59.3916 77.742 59.7476 77.89C60.1036 78.038 60.4076 78.248 60.6596 78.52C60.9116 78.792 61.1036 79.122 61.2356 79.51C61.3716 79.894 61.4396 80.324 61.4396 80.8C61.4396 81.28 61.3716 81.712 61.2356 82.096C61.1036 82.48 60.9116 82.808 60.6596 83.08C60.4076 83.352 60.1036 83.562 59.7476 83.71C59.3916 83.854 58.9916 83.926 58.5476 83.926C58.0996 83.926 57.6956 83.854 57.3356 83.71C56.9796 83.562 56.6756 83.352 56.4236 83.08C56.1716 82.808 55.9776 82.48 55.8416 82.096C55.7096 81.712 55.6436 81.28 55.6436 80.8C55.6436 80.324 55.7096 79.894 55.8416 79.51C55.9776 79.122 56.1716 78.792 56.4236 78.52C56.6756 78.248 56.9796 78.038 57.3356 77.89C57.6956 77.742 58.0996 77.668 58.5476 77.668ZM58.5476 83.092C59.1476 83.092 59.5956 82.892 59.8916 82.492C60.1876 82.088 60.3356 81.526 60.3356 80.806C60.3356 80.082 60.1876 79.518 59.8916 79.114C59.5956 78.71 59.1476 78.508 58.5476 78.508C58.2436 78.508 57.9776 78.56 57.7496 78.664C57.5256 78.768 57.3376 78.918 57.1856 79.114C57.0376 79.31 56.9256 79.552 56.8496 79.84C56.7776 80.124 56.7416 80.446 56.7416 80.806C56.7416 81.526 56.8896 82.088 57.1856 82.492C57.4856 82.892 57.9396 83.092 58.5476 83.092ZM71.0825 77.764L69.1145 83.842H68.2685C68.1645 83.842 68.0925 83.774 68.0525 83.638L66.7085 79.516C66.6765 79.424 66.6505 79.332 66.6305 79.24C66.6105 79.144 66.5905 79.05 66.5705 78.958C66.5505 79.05 66.5305 79.144 66.5105 79.24C66.4905 79.332 66.4645 79.426 66.4325 79.522L65.0645 83.638C65.0285 83.774 64.9485 83.842 64.8245 83.842H64.0205L62.0525 77.764H62.8925C62.9765 77.764 63.0465 77.786 63.1025 77.83C63.1625 77.874 63.2025 77.926 63.2225 77.986L64.3865 81.898C64.4545 82.186 64.5085 82.458 64.5485 82.714C64.5845 82.582 64.6205 82.448 64.6565 82.312C64.6965 82.176 64.7385 82.038 64.7825 81.898L66.0665 77.962C66.0865 77.902 66.1205 77.852 66.1685 77.812C66.2205 77.772 66.2825 77.752 66.3545 77.752H66.8225C66.9025 77.752 66.9685 77.772 67.0205 77.812C67.0725 77.852 67.1085 77.902 67.1285 77.962L68.3825 81.898C68.4265 82.038 68.4665 82.176 68.5025 82.312C68.5385 82.448 68.5725 82.582 68.6045 82.714C68.6245 82.582 68.6485 82.45 68.6765 82.318C68.7085 82.182 68.7425 82.042 68.7785 81.898L69.9665 77.986C69.9865 77.922 70.0245 77.87 70.0805 77.83C70.1365 77.786 70.2025 77.764 70.2785 77.764H71.0825ZM73.1304 78.646C73.2624 78.498 73.4024 78.364 73.5504 78.244C73.6984 78.124 73.8544 78.022 74.0184 77.938C74.1864 77.85 74.3624 77.784 74.5464 77.74C74.7344 77.692 74.9364 77.668 75.1524 77.668C75.4844 77.668 75.7764 77.724 76.0284 77.836C76.2844 77.944 76.4964 78.1 76.6644 78.304C76.8364 78.504 76.9664 78.746 77.0544 79.03C77.1424 79.314 77.1864 79.628 77.1864 79.972V83.842H76.1124V79.972C76.1124 79.512 76.0064 79.156 75.7944 78.904C75.5864 78.648 75.2684 78.52 74.8404 78.52C74.5244 78.52 74.2284 78.596 73.9524 78.748C73.6804 78.9 73.4284 79.106 73.1964 79.366V83.842H72.1224V77.764H72.7644C72.9164 77.764 73.0104 77.838 73.0464 77.986L73.1304 78.646Z" fill="#3E4244" />
	<path d="M29.1446 82.66L28.4338 81.9567V81.9567L29.1446 82.66ZM27.8006 83.536L28.1659 84.467L28.1696 84.4655L27.8006 83.536ZM22.8626 83.842H21.8626V84.842H22.8626V83.842ZM22.8626 75.244V74.244H21.8626V75.244H22.8626ZM27.8006 75.556L27.4292 76.4846L27.4379 76.4879L27.8006 75.556ZM29.1446 76.432L28.43 77.1316L28.4338 77.1354L29.1446 76.432ZM30.0086 77.788L30.9414 77.4276L30.0086 77.788ZM27.3326 76.414L26.9579 77.3412L27.3326 76.414ZM24.0266 76.186V75.186H23.0266V76.186H24.0266ZM24.0266 82.9H23.0266V83.9H24.0266V82.9ZM27.3326 82.672L26.9579 81.7449L27.3326 82.672ZM28.2926 82.018L29.0251 82.6989L29.0298 82.6938L28.2926 82.018ZM28.9046 80.962L29.8496 81.2892L28.9046 80.962ZM29.3146 79.546C29.3146 80.0836 29.2297 80.5453 29.0759 80.9436L30.9414 81.6644C31.1955 81.0068 31.3146 80.2965 31.3146 79.546H29.3146ZM29.0759 80.9436C28.9179 81.3524 28.7023 81.6853 28.4338 81.9567L29.8555 83.3634C30.331 82.8828 30.6914 82.3117 30.9414 81.6644L29.0759 80.9436ZM28.4338 81.9567C28.1652 82.2282 27.8359 82.4461 27.4317 82.6066L28.1696 84.4655C28.8134 84.2099 29.3801 83.8439 29.8555 83.3634L28.4338 81.9567ZM27.4354 82.6051C27.0461 82.7579 26.596 82.842 26.0726 82.842V84.842C26.8133 84.842 27.5152 84.7222 28.1659 84.467L27.4354 82.6051ZM26.0726 82.842H22.8626V84.842H26.0726V82.842ZM23.8626 83.842V75.244H21.8626V83.842H23.8626ZM22.8626 76.244H26.0726V74.244H22.8626V76.244ZM26.0726 76.244C26.5937 76.244 27.0416 76.3294 27.4293 76.4845L28.172 74.6276C27.5197 74.3666 26.8156 74.244 26.0726 74.244V76.244ZM27.4379 76.4879C27.8372 76.6434 28.1631 76.8589 28.4301 77.1316L29.8592 75.7325C29.3822 75.2451 28.8121 74.8767 28.1634 74.6242L27.4379 76.4879ZM28.4338 77.1354C28.7023 77.4068 28.9179 77.7397 29.0759 78.1484L30.9414 77.4276C30.6914 76.7804 30.331 76.2093 29.8555 75.7287L28.4338 77.1354ZM29.0759 78.1484C29.2297 78.5468 29.3146 79.0085 29.3146 79.546H31.3146C31.3146 78.7956 31.1955 78.0853 30.9414 77.4276L29.0759 78.1484ZM30.1206 79.546C30.1206 78.9282 30.0365 78.3427 29.8496 77.8029L27.9597 78.4572C28.0608 78.7493 28.1206 79.1078 28.1206 79.546H30.1206ZM29.8496 77.8029C29.6666 77.2741 29.3972 76.7991 29.0298 76.3983L27.5555 77.7498C27.7161 77.925 27.8547 78.154 27.9597 78.4572L29.8496 77.8029ZM29.0298 76.3983C28.6614 75.9964 28.216 75.6925 27.7074 75.4869L26.9579 77.3412C27.2013 77.4396 27.3959 77.5757 27.5555 77.7498L29.0298 76.3983ZM27.7074 75.4869C27.1964 75.2804 26.6468 75.186 26.0726 75.186V77.186C26.4265 77.186 26.7169 77.2437 26.9579 77.3412L27.7074 75.4869ZM26.0726 75.186H24.0266V77.186H26.0726V75.186ZM23.0266 76.186V82.9H25.0266V76.186H23.0266ZM24.0266 83.9H26.0726V81.9H24.0266V83.9ZM26.0726 83.9C26.6468 83.9 27.1964 83.8057 27.7074 83.5992L26.9579 81.7449C26.7169 81.8424 26.4265 81.9 26.0726 81.9V83.9ZM27.7074 83.5992C28.2129 83.3948 28.6567 83.0951 29.0251 82.6989L27.5602 81.3372C27.4006 81.509 27.2044 81.6452 26.9579 81.7449L27.7074 83.5992ZM29.0298 82.6938C29.3972 82.293 29.6666 81.818 29.8496 81.2892L27.9597 80.6349C27.8547 80.9381 27.7161 81.1671 27.5555 81.3423L29.0298 82.6938ZM29.8496 81.2892C30.0365 80.7493 30.1206 80.1638 30.1206 79.546H28.1206C28.1206 79.9842 28.0608 80.3427 27.9597 80.6349L29.8496 81.2892ZM32.6246 78.982L31.6277 79.0597L31.9256 82.883L33.5326 79.4011L32.6246 78.982ZM33.3326 78.01L33.9707 78.7801L33.9771 78.7747L33.3326 78.01ZM34.7246 77.698L34.49 78.6702L34.4974 78.6719L34.7246 77.698ZM35.0426 77.83L36.0379 77.9273L36.0969 77.3237L35.5889 76.9924L35.0426 77.83ZM34.9646 78.628L35.937 78.8614L35.9532 78.7942L35.9599 78.7253L34.9646 78.628ZM34.5386 78.742L34.3217 79.7182L34.3217 79.7182L34.5386 78.742ZM33.6566 78.79L33.3109 77.8517L33.3028 77.8548L33.6566 78.79ZM33.2546 79.042L33.9361 79.7739L33.937 79.7731L33.2546 79.042ZM32.9366 79.45L32.0736 78.9448L32.0697 78.9516L32.9366 79.45ZM32.6846 80.002L31.7454 79.6588L31.6846 79.8251V80.002H32.6846ZM32.6846 83.842V84.842H33.6846V83.842H32.6846ZM31.6106 83.842H30.6106V84.842H31.6106V83.842ZM31.6106 77.764V76.764H30.6106V77.764H31.6106ZM32.4626 77.83L33.1698 77.1229L33.1698 77.1229L32.4626 77.83ZM32.5526 78.058L33.5496 77.9804L33.5469 77.9458L33.5419 77.9115L32.5526 78.058ZM33.5326 79.4011C33.6778 79.0865 33.8316 78.8952 33.9707 78.7801L32.6946 77.24C32.2736 77.5888 31.9555 78.0456 31.7167 78.563L33.5326 79.4011ZM33.9771 78.7747C34.0578 78.7067 34.1644 78.656 34.3586 78.656V76.656C33.7449 76.656 33.1675 76.8414 32.6882 77.2454L33.9771 78.7747ZM34.3586 78.656C34.4133 78.656 34.4562 78.662 34.49 78.6701L34.9593 76.726C34.7611 76.6781 34.56 76.656 34.3586 76.656V78.656ZM34.4974 78.6719C34.508 78.6743 34.5119 78.6761 34.5108 78.6756C34.5095 78.6751 34.5042 78.6727 34.4964 78.6677L35.5889 76.9924C35.3882 76.8615 35.1716 76.7755 34.9519 76.7242L34.4974 78.6719ZM34.0474 77.7328L33.9694 78.5308L35.9599 78.7253L36.0379 77.9273L34.0474 77.7328ZM33.9923 78.3947C34.0147 78.3014 34.0805 78.1231 34.2615 77.9723C34.4496 77.8155 34.6542 77.778 34.7846 77.778V79.778C35.0111 79.778 35.2937 79.7156 35.5418 79.5088C35.7828 79.3079 35.8906 79.0547 35.937 78.8614L33.9923 78.3947ZM34.7846 77.778C34.8054 77.778 34.8193 77.7791 34.8244 77.7796C34.8299 77.78 34.8307 77.7803 34.8259 77.7796C34.8213 77.7789 34.8131 77.7776 34.8009 77.7753C34.7888 77.773 34.7738 77.7699 34.7556 77.7659L34.3217 79.7182C34.4461 79.7459 34.6153 79.778 34.7846 79.778V77.778ZM34.7556 77.7659C34.5623 77.7229 34.3657 77.706 34.1726 77.706V79.706C34.2516 79.706 34.299 79.7132 34.3217 79.7182L34.7556 77.7659ZM34.1726 77.706C33.884 77.706 33.592 77.7481 33.3109 77.8517L34.0024 79.7284C34.0253 79.7199 34.0773 79.706 34.1726 79.706V77.706ZM33.3028 77.8548C33.0285 77.9585 32.7839 78.1136 32.5723 78.311L33.937 79.7731C33.9654 79.7465 33.9888 79.7335 34.0105 79.7253L33.3028 77.8548ZM32.5732 78.3101C32.3735 78.4961 32.2094 78.713 32.0736 78.9449L33.7997 79.9552C33.8559 79.8591 33.9038 79.804 33.9361 79.7739L32.5732 78.3101ZM32.0697 78.9516C31.9443 79.1698 31.8373 79.4074 31.7454 79.6588L33.6239 80.3452C33.684 80.1807 33.745 80.0503 33.8036 79.9485L32.0697 78.9516ZM31.6846 80.002V83.842H33.6846V80.002H31.6846ZM32.6846 82.842H31.6106V84.842H32.6846V82.842ZM32.6106 83.842V77.764H30.6106V83.842H32.6106ZM31.6106 78.764H32.2226V76.764H31.6106V78.764ZM32.2226 78.764C32.2207 78.764 32.2097 78.764 32.1914 78.7619C32.1733 78.7599 32.1432 78.7554 32.1045 78.7447C32.0312 78.7246 31.8903 78.6719 31.7555 78.5371L33.1698 77.1229C32.8307 76.7839 32.398 76.764 32.2226 76.764V78.764ZM31.7555 78.5371C31.6555 78.4371 31.6083 78.3386 31.588 78.2872C31.5772 78.2597 31.5711 78.2384 31.5679 78.2256C31.5646 78.2126 31.5635 78.2052 31.5634 78.2046L33.5419 77.9115C33.5155 77.7336 33.4428 77.396 33.1698 77.1229L31.7555 78.5371ZM31.5557 78.1357L31.6277 79.0597L33.6216 78.9044L33.5496 77.9804L31.5557 78.1357ZM39.4976 77.89L39.1138 78.8134V78.8134L39.4976 77.89ZM40.4096 78.52L39.6761 79.1997L39.6761 79.1997L40.4096 78.52ZM40.9856 79.51L40.0389 79.8321L40.043 79.8439L40.9856 79.51ZM40.9856 82.096L40.043 81.7622L40.04 81.771L40.9856 82.096ZM40.4096 83.08L39.6761 82.4004V82.4004L40.4096 83.08ZM39.4976 83.71L39.8726 84.6371L39.8815 84.6334L39.4976 83.71ZM37.0856 83.71L36.7017 84.6335L36.7143 84.6385L37.0856 83.71ZM36.1736 83.08L36.9072 82.4004L36.1736 83.08ZM35.5916 82.096L34.6459 82.4211L34.649 82.4299L35.5916 82.096ZM35.5916 79.51L34.6479 79.1793L34.646 79.185L35.5916 79.51ZM36.1736 78.52L36.9072 79.1997V79.1997L36.1736 78.52ZM37.0856 77.89L36.7054 76.9651L36.7018 76.9667L37.0856 77.89ZM39.6416 82.492L40.4455 83.0869L40.4483 83.0831L39.6416 82.492ZM37.4996 78.664L37.0846 77.7542L37.0785 77.757L37.4996 78.664ZM36.9356 79.114L36.1454 78.5012L36.1376 78.5114L36.9356 79.114ZM36.5996 79.84L35.6327 79.5849L35.6303 79.5943L36.5996 79.84ZM36.9356 82.492L36.1289 83.0831L36.1356 83.092L36.9356 82.492ZM38.2976 78.668C38.6297 78.668 38.8965 78.7231 39.1138 78.8134L39.8815 76.9667C39.3868 76.761 38.8536 76.668 38.2976 76.668V78.668ZM39.1138 78.8134C39.3425 78.9085 39.5257 79.0373 39.6761 79.1997L41.1432 77.8404C40.7896 77.4588 40.3648 77.1676 39.8815 76.9667L39.1138 78.8134ZM39.6761 79.1997C39.8231 79.3584 39.9473 79.5629 40.0389 79.8321L41.9324 79.188C41.76 78.6812 41.5002 78.2257 41.1432 77.8404L39.6761 79.1997ZM40.043 79.8439C40.1353 80.1043 40.1896 80.419 40.1896 80.8H42.1896C42.1896 80.2291 42.108 79.6838 41.9283 79.1762L40.043 79.8439ZM40.1896 80.8C40.1896 81.1861 40.135 81.5026 40.043 81.7622L41.9283 82.4299C42.1083 81.9215 42.1896 81.374 42.1896 80.8H40.1896ZM40.04 81.771C39.9489 82.0359 39.8248 82.2399 39.6761 82.4004L41.1432 83.7597C41.4985 83.3762 41.7584 82.9241 41.9313 82.4211L40.04 81.771ZM39.6761 82.4004C39.5257 82.5628 39.3425 82.6916 39.1138 82.7867L39.8815 84.6334C40.3648 84.4325 40.7896 84.1413 41.1432 83.7597L39.6761 82.4004ZM39.1227 82.783C38.9029 82.8719 38.633 82.926 38.2976 82.926V84.926C38.8503 84.926 39.3804 84.8362 39.8726 84.6371L39.1227 82.783ZM38.2976 82.926C37.9573 82.926 37.682 82.8716 37.457 82.7816L36.7143 84.6385C37.2093 84.8365 37.742 84.926 38.2976 84.926V82.926ZM37.4695 82.7867C37.2408 82.6916 37.0576 82.5628 36.9072 82.4004L35.4401 83.7597C35.7937 84.1413 36.2185 84.4325 36.7018 84.6334L37.4695 82.7867ZM36.9072 82.4004C36.7565 82.2377 36.6294 82.0306 36.5343 81.7622L34.649 82.4299C34.8259 82.9294 35.0868 83.3784 35.4401 83.7597L36.9072 82.4004ZM36.5373 81.771C36.4472 81.5087 36.3936 81.1891 36.3936 80.8H34.3936C34.3936 81.371 34.4721 81.9154 34.646 82.4211L36.5373 81.771ZM36.3936 80.8C36.3936 80.416 36.4469 80.0982 36.5373 79.8351L34.646 79.185C34.4724 79.6898 34.3936 80.232 34.3936 80.8H36.3936ZM36.5354 79.8408C36.6309 79.5681 36.7581 79.3606 36.9072 79.1997L35.4401 77.8404C35.0852 78.2235 34.8244 78.6759 34.6479 79.1793L36.5354 79.8408ZM36.9072 79.1997C37.0576 79.0373 37.2408 78.9085 37.4695 78.8134L36.7018 76.9667C36.2185 77.1676 35.7937 77.4588 35.4401 77.8404L36.9072 79.1997ZM37.4659 78.8149C37.6884 78.7234 37.9606 78.668 38.2976 78.668V76.668C37.7387 76.668 37.2029 76.7606 36.7054 76.9651L37.4659 78.8149ZM38.2976 84.092C39.1413 84.092 39.9211 83.7955 40.4455 83.0869L38.8378 81.8972C38.7702 81.9886 38.654 82.092 38.2976 82.092V84.092ZM40.4483 83.0831C40.9142 82.4472 41.0856 81.649 41.0856 80.806H39.0856C39.0856 81.4031 38.9611 81.7289 38.835 81.901L40.4483 83.0831ZM41.0856 80.806C41.0856 79.9606 40.9148 79.1597 40.4483 78.523L38.835 79.7051C38.9605 79.8764 39.0856 80.2035 39.0856 80.806H41.0856ZM40.4483 78.523C39.9255 77.8094 39.1451 77.508 38.2976 77.508V79.508C38.6502 79.508 38.7658 79.6107 38.835 79.7051L40.4483 78.523ZM38.2976 77.508C37.8804 77.508 37.4676 77.5795 37.0846 77.7542L37.9147 79.5739C37.9877 79.5406 38.1069 79.508 38.2976 79.508V77.508ZM37.0785 77.757C36.7091 77.9285 36.3948 78.1797 36.1454 78.5012L37.7259 79.7269C37.7805 79.6564 37.8422 79.6075 37.9208 79.571L37.0785 77.757ZM36.1376 78.5114C35.8965 78.8307 35.735 79.1973 35.6327 79.5849L37.5665 80.0952C37.6163 79.9068 37.6788 79.7894 37.7337 79.7166L36.1376 78.5114ZM35.6303 79.5943C35.5339 79.9744 35.4916 80.3813 35.4916 80.806H37.4916C37.4916 80.5108 37.5214 80.2736 37.569 80.0858L35.6303 79.5943ZM35.4916 80.806C35.4916 81.649 35.6631 82.4472 36.129 83.0831L37.7423 81.901C37.6162 81.7289 37.4916 81.4031 37.4916 80.806H35.4916ZM36.1356 83.092C36.6659 83.7991 37.451 84.092 38.2976 84.092V82.092C37.9283 82.092 37.8054 81.985 37.7356 81.892L36.1356 83.092ZM43.6182 82.378H42.6182V82.7087L42.8153 82.9741L43.6182 82.378ZM44.2602 82.936L44.6823 82.0295L44.2602 82.936ZM46.3482 82.492L45.5492 81.8908L46.3482 82.492ZM46.6962 79.744L45.7236 79.9769L45.7269 79.9898L46.6962 79.744ZM46.3962 79.048L45.5837 79.631L45.5898 79.6394L46.3962 79.048ZM45.9102 78.646L46.3111 77.7299L45.9102 78.646ZM44.3382 78.76L43.8199 77.9048L43.8141 77.9084L44.3382 78.76ZM43.6182 79.438L42.8196 78.8363L42.6182 79.1035V79.438H43.6182ZM43.5642 78.706L42.573 78.8382L42.8798 81.1395L44.3413 79.3355L43.5642 78.706ZM44.4522 77.944L43.9561 77.0758L44.4522 77.944ZM46.5582 77.86L46.1263 78.762L46.1368 78.7669L46.5582 77.86ZM47.2842 78.454L46.4871 79.0579L46.4916 79.0638L47.2842 78.454ZM47.7462 79.426L46.7829 79.6942V79.6942L47.7462 79.426ZM47.7282 82.018L48.6827 82.3163L48.6836 82.3135L47.7282 82.018ZM47.2062 83.02L46.4264 82.394L46.4254 82.3953L47.2062 83.02ZM46.3782 83.686L46.821 84.5827L46.8255 84.5805L46.3782 83.686ZM44.3202 83.74L43.884 84.6399L43.8921 84.6438L43.9003 84.6476L44.3202 83.74ZM43.6182 83.212L44.3576 82.5387L42.6182 80.6288V83.212H43.6182ZM43.6182 85.9V86.9H44.6182V85.9H43.6182ZM42.5442 85.9H41.5442V86.9H42.5442V85.9ZM42.5442 77.764V76.764H41.5442V77.764H42.5442ZM43.4682 77.986L44.4595 77.8539L44.4525 77.8013L44.4399 77.7497L43.4682 77.986ZM42.8153 82.9741C43.083 83.3346 43.4185 83.6472 43.8382 83.8426L44.6823 82.0295C44.638 82.0089 44.5455 81.9494 44.4212 81.7819L42.8153 82.9741ZM43.8382 83.8426C44.2181 84.0195 44.6248 84.098 45.0402 84.098V82.098C44.8797 82.098 44.7664 82.0686 44.6823 82.0295L43.8382 83.8426ZM45.0402 84.098C45.878 84.098 46.6292 83.7819 47.1473 83.0933L45.5492 81.8908C45.4593 82.0102 45.3385 82.098 45.0402 82.098V84.098ZM47.1473 83.0933C47.631 82.4505 47.8042 81.6295 47.8042 80.764H45.8042C45.8042 81.3945 45.6735 81.7255 45.5492 81.8908L47.1473 83.0933ZM47.8042 80.764C47.8042 80.3121 47.7636 79.8851 47.6656 79.4983L45.7269 79.9898C45.7728 80.171 45.8042 80.424 45.8042 80.764H47.8042ZM47.6688 79.5112C47.5789 79.1358 47.4335 78.7715 47.2026 78.4567L45.5898 79.6394C45.623 79.6846 45.6776 79.7843 45.7237 79.9769L47.6688 79.5112ZM47.2088 78.4651C46.9807 78.1472 46.681 77.8917 46.3111 77.7299L45.5094 79.5622C45.5235 79.5684 45.5478 79.5808 45.5837 79.6309L47.2088 78.4651ZM46.3111 77.7299C45.9736 77.5822 45.6158 77.52 45.2562 77.52V79.52C45.3847 79.52 45.4629 79.5418 45.5094 79.5622L46.3111 77.7299ZM45.2562 77.52C44.7493 77.52 44.2594 77.6385 43.8199 77.9048L44.8565 79.6152C44.9451 79.5616 45.0672 79.52 45.2562 79.52V77.52ZM43.8141 77.9084C43.4291 78.1453 43.1002 78.4638 42.8196 78.8363L44.4169 80.0398C44.5763 79.8283 44.7274 79.6947 44.8623 79.6117L43.8141 77.9084ZM42.6182 79.438V82.378H44.6182V79.438H42.6182ZM44.3413 79.3355C44.5233 79.1109 44.7254 78.9397 44.9484 78.8123L43.9561 77.0758C43.5071 77.3324 43.1172 77.6692 42.7872 78.0766L44.3413 79.3355ZM44.9484 78.8123C45.1163 78.7163 45.3256 78.656 45.6042 78.656V76.656C45.0189 76.656 44.4602 76.7877 43.9561 77.0758L44.9484 78.8123ZM45.6042 78.656C45.8245 78.656 45.9923 78.6978 46.1263 78.762L46.9901 76.9581C46.5562 76.7503 46.088 76.656 45.6042 76.656V78.656ZM46.1368 78.7669C46.2642 78.8261 46.3799 78.9163 46.4872 79.0579L48.0813 77.8502C47.7886 77.4638 47.4203 77.158 46.9797 76.9532L46.1368 78.7669ZM46.4916 79.0638C46.5977 79.2016 46.7017 79.4026 46.7829 79.6942L48.7096 79.1579C48.5748 78.6735 48.3708 78.2265 48.0769 77.8443L46.4916 79.0638ZM46.7829 79.6942C46.8614 79.9762 46.9082 80.329 46.9082 80.764H48.9082C48.9082 80.1911 48.8471 79.6519 48.7096 79.1579L46.7829 79.6942ZM46.9082 80.764C46.9082 81.1221 46.8604 81.4396 46.7729 81.7226L48.6836 82.3135C48.8361 81.8205 48.9082 81.302 48.9082 80.764H46.9082ZM46.7738 81.7198C46.6871 81.997 46.5685 82.2171 46.4264 82.394L47.986 83.6461C48.3 83.255 48.5294 82.807 48.6827 82.3163L46.7738 81.7198ZM46.4254 82.3953C46.2939 82.5597 46.1326 82.6908 45.931 82.7916L46.8255 84.5805C47.2799 84.3533 47.6706 84.0403 47.9871 83.6447L46.4254 82.3953ZM45.9355 82.7894C45.766 82.8731 45.5546 82.926 45.2802 82.926V84.926C45.8218 84.926 46.3425 84.819 46.821 84.5827L45.9355 82.7894ZM45.2802 82.926C45.0167 82.926 44.847 82.8819 44.7402 82.8325L43.9003 84.6476C44.3295 84.8462 44.7997 84.926 45.2802 84.926V82.926ZM44.7565 82.8402C44.6108 82.7696 44.4787 82.6718 44.3576 82.5387L42.8789 83.8854C43.1657 84.2003 43.5017 84.4545 43.884 84.6399L44.7565 82.8402ZM42.6182 83.212V85.9H44.6182V83.212H42.6182ZM43.6182 84.9H42.5442V86.9H43.6182V84.9ZM43.5442 85.9V77.764H41.5442V85.9H43.5442ZM42.5442 78.764H43.1862V76.764H42.5442V78.764ZM43.1862 78.764C43.0995 78.764 42.9245 78.7409 42.7522 78.6053C42.5801 78.4698 42.5168 78.3056 42.4966 78.2224L44.4399 77.7497C44.3837 77.5185 44.2554 77.2433 43.9893 77.0338C43.723 76.8242 43.425 76.764 43.1862 76.764V78.764ZM42.477 78.1182L42.573 78.8382L44.5555 78.5739L44.4595 77.8539L42.477 78.1182ZM53.2308 79.21H54.2308V78.878L54.0322 78.612L53.2308 79.21ZM52.5828 78.652L52.1608 79.5586L52.1672 79.5616L52.1737 79.5645L52.5828 78.652ZM50.5008 79.096L51.2999 79.6973L50.5008 79.096ZM50.1468 81.844L49.1743 82.0769L49.1751 82.08L50.1468 81.844ZM50.4468 82.54L49.6342 83.123L49.6404 83.1314L50.4468 82.54ZM52.5048 82.822L51.9865 81.9668L51.9807 81.9704L52.5048 82.822ZM53.2308 82.144L54.0295 82.7458L54.2308 82.4786V82.144H53.2308ZM54.2988 75.004H55.2988V74.004H54.2988V75.004ZM54.2988 83.842V84.842H55.2988V83.842H54.2988ZM53.3748 83.62L52.3832 83.749L52.3919 83.8159L52.4094 83.8809L53.3748 83.62ZM53.2788 82.882L54.2705 82.753L53.9753 80.4842L52.5106 82.2419L53.2788 82.882ZM52.3908 83.638L51.8902 82.7724L52.3908 83.638ZM50.2908 83.728L49.8589 84.63L49.8693 84.6349L50.2908 83.728ZM49.5648 83.134L50.3574 82.5243L49.5648 83.134ZM49.1028 82.162L50.0662 81.8939L49.1028 82.162ZM49.1208 79.576L50.0753 79.8743L50.0762 79.8715L49.1208 79.576ZM49.6368 78.568L48.8516 77.9488V77.9488L49.6368 78.568ZM50.4588 77.902L50.9016 78.7987L50.906 78.7965L50.4588 77.902ZM52.5168 77.848L52.0805 78.7479L52.0887 78.7518L52.0969 78.7556L52.5168 77.848ZM53.2308 78.37L52.498 79.0505L54.2308 80.9166V78.37H53.2308ZM53.2308 75.004V74.004H52.2308V75.004H53.2308ZM54.0322 78.612C53.7615 78.2491 53.4207 77.9318 52.9919 77.7395L52.1737 79.5645C52.2089 79.5803 52.3001 79.635 52.4294 79.8081L54.0322 78.612ZM53.0048 77.7455C52.625 77.5686 52.2182 77.49 51.8028 77.49V79.49C51.9634 79.49 52.0767 79.5195 52.1608 79.5586L53.0048 77.7455ZM51.8028 77.49C50.9663 77.49 50.2184 77.8082 49.7018 78.4948L51.2999 79.6973C51.3912 79.5759 51.5113 79.49 51.8028 79.49V77.49ZM49.7018 78.4948C49.2181 79.1375 49.0448 79.9585 49.0448 80.824H51.0448C51.0448 80.1935 51.1755 79.8625 51.2999 79.6973L49.7018 78.4948ZM49.0448 80.824C49.0448 81.2727 49.0829 81.6951 49.1743 82.0769L51.1193 81.6112C51.0747 81.425 51.0448 81.1674 51.0448 80.824H49.0448ZM49.1751 82.08C49.2654 82.4522 49.4101 82.8104 49.6343 83.1229L51.2593 81.9571C51.2195 81.9016 51.1642 81.7959 51.1186 81.608L49.1751 82.08ZM49.6404 83.1314C49.8696 83.4439 50.168 83.6929 50.532 83.8522L51.3336 82.0199C51.3136 82.0111 51.288 81.9962 51.2532 81.9487L49.6404 83.1314ZM50.532 83.8522C50.8694 83.9998 51.2273 84.062 51.5868 84.062V82.062C51.4583 82.062 51.3802 82.0402 51.3336 82.0199L50.532 83.8522ZM51.5868 84.062C52.095 84.062 52.5884 83.9448 53.0289 83.6737L51.9807 81.9704C51.9012 82.0193 51.7826 82.062 51.5868 82.062V84.062ZM53.0231 83.6772C53.4139 83.4404 53.7468 83.121 54.0295 82.7458L52.4321 81.5423C52.2748 81.7511 52.1237 81.8837 51.9865 81.9668L53.0231 83.6772ZM54.2308 82.144V79.21H52.2308V82.144H54.2308ZM53.2988 75.004V83.842H55.2988V75.004H53.2988ZM54.2988 82.842H53.6628V84.842H54.2988V82.842ZM53.6628 82.842C53.7506 82.842 53.92 82.8655 54.0873 82.9945C54.2538 83.1229 54.3184 83.2787 54.3402 83.3591L52.4094 83.8809C52.4712 84.1094 52.6038 84.3762 52.8663 84.5786C53.1296 84.7815 53.423 84.842 53.6628 84.842V82.842ZM54.3665 83.491L54.2705 82.753L52.2872 83.011L52.3832 83.749L54.3665 83.491ZM52.5106 82.2419C52.3214 82.4689 52.1145 82.6426 51.8902 82.7724L52.8914 84.5037C53.3311 84.2495 53.7162 83.9192 54.047 83.5222L52.5106 82.2419ZM51.8902 82.7724C51.7302 82.8649 51.5235 82.926 51.2388 82.926V84.926C51.8261 84.926 52.3874 84.7952 52.8914 84.5037L51.8902 82.7724ZM51.2388 82.926C51.0201 82.926 50.8502 82.8853 50.7123 82.8212L49.8693 84.6349C50.2994 84.8348 50.7615 84.926 51.2388 84.926V82.926ZM50.7227 82.8261C50.5862 82.7607 50.4659 82.6653 50.3574 82.5243L48.7722 83.7438C49.0637 84.1227 49.4274 84.4233 49.8589 84.63L50.7227 82.8261ZM50.3574 82.5243C50.2514 82.3865 50.1473 82.1855 50.0662 81.8939L48.1394 82.4302C48.2743 82.9146 48.4782 83.3616 48.7722 83.7438L50.3574 82.5243ZM50.0662 81.8939C49.9877 81.6119 49.9408 81.2591 49.9408 80.824H47.9408C47.9408 81.397 48.0019 81.9362 48.1394 82.4302L50.0662 81.8939ZM49.9408 80.824C49.9408 80.4658 49.9887 80.1515 50.0753 79.8743L48.1663 79.2778C48.0129 79.7686 47.9408 80.2862 47.9408 80.824H49.9408ZM50.0762 79.8715C50.1643 79.5866 50.2829 79.3636 50.422 79.1873L48.8516 77.9488C48.5427 78.3404 48.3173 78.7894 48.1655 79.2806L50.0762 79.8715ZM50.422 79.1873C50.554 79.02 50.7111 78.8928 50.9016 78.7987L50.016 77.0054C49.5586 77.2313 49.1676 77.5481 48.8516 77.9488L50.422 79.1873ZM50.906 78.7965C51.0802 78.7094 51.2924 78.656 51.5628 78.656V76.656C51.0173 76.656 50.4935 76.7667 50.0116 77.0076L50.906 78.7965ZM51.5628 78.656C51.823 78.656 51.9839 78.701 52.0805 78.7479L52.9531 76.9482C52.5217 76.7391 52.0466 76.656 51.5628 76.656V78.656ZM52.0969 78.7556C52.2427 78.823 52.3754 78.9184 52.498 79.0505L53.9636 77.6896C53.6702 77.3737 53.327 77.121 52.9367 76.9405L52.0969 78.7556ZM54.2308 78.37V75.004H52.2308V78.37H54.2308ZM53.2308 76.004H54.2988V74.004H53.2308V76.004ZM59.7477 77.89L59.3638 78.8134V78.8134L59.7477 77.89ZM60.6596 78.52L59.9261 79.1997V79.1997L60.6596 78.52ZM61.2356 79.51L60.2889 79.8321L60.293 79.8439L61.2356 79.51ZM61.2356 82.096L60.293 81.7622L60.29 81.771L61.2356 82.096ZM60.6596 83.08L59.9261 82.4004V82.4004L60.6596 83.08ZM59.7477 83.71L60.1226 84.6371L60.1315 84.6334L59.7477 83.71ZM57.3356 83.71L56.9517 84.6335L56.9643 84.6385L57.3356 83.71ZM56.4236 83.08L57.1572 82.4004L56.4236 83.08ZM55.8416 82.096L54.8959 82.4211L54.899 82.4299L55.8416 82.096ZM55.8416 79.51L54.8979 79.1793L54.896 79.185L55.8416 79.51ZM56.4236 78.52L57.1572 79.1997V79.1997L56.4236 78.52ZM57.3356 77.89L56.9554 76.9651L56.9518 76.9667L57.3356 77.89ZM59.8916 82.492L60.6955 83.0869L60.6983 83.0831L59.8916 82.492ZM57.7496 78.664L57.3346 77.7542L57.3285 77.757L57.7496 78.664ZM57.1856 79.114L56.3954 78.5012L56.3876 78.5114L57.1856 79.114ZM56.8496 79.84L55.8827 79.5849L55.8803 79.5943L56.8496 79.84ZM57.1856 82.492L56.3789 83.0831L56.3856 83.092L57.1856 82.492ZM58.5476 78.668C58.8797 78.668 59.1465 78.7231 59.3638 78.8134L60.1315 76.9667C59.6368 76.761 59.1036 76.668 58.5476 76.668V78.668ZM59.3638 78.8134C59.5925 78.9085 59.7757 79.0373 59.9261 79.1997L61.3932 77.8404C61.0396 77.4588 60.6148 77.1676 60.1315 76.9667L59.3638 78.8134ZM59.9261 79.1997C60.0731 79.3584 60.1973 79.5629 60.2889 79.8321L62.1824 79.188C62.01 78.6812 61.7502 78.2257 61.3932 77.8404L59.9261 79.1997ZM60.293 79.8439C60.3853 80.1043 60.4396 80.419 60.4396 80.8H62.4396C62.4396 80.2291 62.358 79.6838 62.1783 79.1762L60.293 79.8439ZM60.4396 80.8C60.4396 81.1861 60.385 81.5026 60.293 81.7622L62.1783 82.4299C62.3583 81.9215 62.4396 81.374 62.4396 80.8H60.4396ZM60.29 81.771C60.1989 82.0359 60.0748 82.2399 59.9261 82.4004L61.3932 83.7597C61.7485 83.3762 62.0084 82.9241 62.1813 82.4211L60.29 81.771ZM59.9261 82.4004C59.7757 82.5628 59.5925 82.6916 59.3638 82.7867L60.1315 84.6334C60.6148 84.4325 61.0396 84.1413 61.3932 83.7597L59.9261 82.4004ZM59.3727 82.783C59.1529 82.8719 58.883 82.926 58.5476 82.926V84.926C59.1003 84.926 59.6304 84.8362 60.1226 84.6371L59.3727 82.783ZM58.5476 82.926C58.2073 82.926 57.932 82.8716 57.707 82.7816L56.9643 84.6385C57.4593 84.8365 57.992 84.926 58.5476 84.926V82.926ZM57.7195 82.7867C57.4908 82.6916 57.3076 82.5628 57.1572 82.4004L55.6901 83.7597C56.0437 84.1413 56.4685 84.4325 56.9518 84.6334L57.7195 82.7867ZM57.1572 82.4004C57.0065 82.2377 56.8794 82.0306 56.7843 81.7622L54.899 82.4299C55.0759 82.9294 55.3368 83.3784 55.6901 83.7597L57.1572 82.4004ZM56.7873 81.771C56.6972 81.5087 56.6437 81.1891 56.6437 80.8H54.6437C54.6437 81.371 54.7221 81.9154 54.896 82.4211L56.7873 81.771ZM56.6437 80.8C56.6437 80.416 56.6969 80.0982 56.7873 79.8351L54.896 79.185C54.7224 79.6898 54.6437 80.232 54.6437 80.8H56.6437ZM56.7854 79.8408C56.8809 79.5681 57.0081 79.3606 57.1572 79.1997L55.6901 77.8404C55.3352 78.2235 55.0744 78.6759 54.8979 79.1793L56.7854 79.8408ZM57.1572 79.1997C57.3076 79.0373 57.4908 78.9085 57.7195 78.8134L56.9518 76.9667C56.4685 77.1676 56.0437 77.4588 55.6901 77.8404L57.1572 79.1997ZM57.7159 78.8149C57.9384 78.7234 58.2106 78.668 58.5476 78.668V76.668C57.9887 76.668 57.4529 76.7606 56.9554 76.9651L57.7159 78.8149ZM58.5476 84.092C59.3913 84.092 60.1711 83.7955 60.6955 83.0869L59.0878 81.8972C59.0202 81.9886 58.904 82.092 58.5476 82.092V84.092ZM60.6983 83.0831C61.1642 82.4472 61.3356 81.649 61.3356 80.806H59.3356C59.3356 81.4031 59.2111 81.7289 59.085 81.901L60.6983 83.0831ZM61.3356 80.806C61.3356 79.9606 61.1648 79.1597 60.6983 78.523L59.085 79.7051C59.2105 79.8764 59.3356 80.2035 59.3356 80.806H61.3356ZM60.6983 78.523C60.1755 77.8094 59.3951 77.508 58.5476 77.508V79.508C58.9002 79.508 59.0158 79.6107 59.085 79.7051L60.6983 78.523ZM58.5476 77.508C58.1304 77.508 57.7176 77.5795 57.3346 77.7542L58.1647 79.5739C58.2377 79.5406 58.3569 79.508 58.5476 79.508V77.508ZM57.3285 77.757C56.9591 77.9285 56.6448 78.1797 56.3954 78.5012L57.9759 79.7269C58.0305 79.6564 58.0922 79.6075 58.1708 79.571L57.3285 77.757ZM56.3876 78.5114C56.1465 78.8307 55.985 79.1973 55.8827 79.5849L57.8165 80.0952C57.8663 79.9068 57.9288 79.7894 57.9837 79.7166L56.3876 78.5114ZM55.8803 79.5943C55.7839 79.9744 55.7416 80.3813 55.7416 80.806H57.7416C57.7416 80.5108 57.7714 80.2736 57.819 80.0858L55.8803 79.5943ZM55.7416 80.806C55.7416 81.649 55.9131 82.4472 56.379 83.0831L57.9923 81.901C57.8662 81.7289 57.7416 81.4031 57.7416 80.806H55.7416ZM56.3856 83.092C56.9159 83.7991 57.701 84.092 58.5476 84.092V82.092C58.1783 82.092 58.0554 81.985 57.9856 81.892L56.3856 83.092ZM71.0825 77.764L72.0339 78.0721L72.4574 76.764H71.0825V77.764ZM69.1145 83.842V84.842H69.8418L70.0659 84.1501L69.1145 83.842ZM68.0525 83.638L69.0119 83.3559L69.0077 83.3419L69.0032 83.328L68.0525 83.638ZM66.7085 79.516L67.6592 79.206L67.6562 79.1968L67.653 79.1875L66.7085 79.516ZM66.6305 79.24L65.6515 79.444L65.6533 79.4525L66.6305 79.24ZM66.5705 78.958L67.5477 78.7456H65.5933L66.5705 78.958ZM66.5105 79.24L67.4877 79.4525L67.4895 79.444L66.5105 79.24ZM66.4325 79.522L65.4838 79.2058L65.4835 79.2066L66.4325 79.522ZM65.0645 83.638L64.1155 83.3226L64.1057 83.3521L64.0978 83.3821L65.0645 83.638ZM64.0205 83.842L63.0691 84.1501L63.2932 84.842H64.0205V83.842ZM62.0525 77.764V76.764H60.6776L61.1011 78.0721L62.0525 77.764ZM63.1025 77.83L62.4847 78.6164L62.4977 78.6266L62.5111 78.6364L63.1025 77.83ZM63.2225 77.986L64.181 77.7009L64.1763 77.6853L64.1712 77.6698L63.2225 77.986ZM64.3865 81.898L65.3597 81.6682L65.3531 81.6403L65.345 81.6129L64.3865 81.898ZM64.5485 82.714L63.5605 82.8684L65.5133 82.9772L64.5485 82.714ZM64.6565 82.312L63.6971 82.0299L63.6933 82.043L63.6898 82.0561L64.6565 82.312ZM64.7825 81.898L63.8317 81.5879L63.8285 81.5982L64.7825 81.898ZM66.0665 77.962L65.1178 77.6458L65.1158 77.6519L66.0665 77.962ZM66.1685 77.812L65.5588 77.0194L65.5433 77.0313L65.5283 77.0438L66.1685 77.812ZM67.0205 77.812L66.4108 78.6047L66.4108 78.6047L67.0205 77.812ZM67.1285 77.962L68.0814 77.6585L68.0772 77.6458L67.1285 77.962ZM68.3825 81.898L69.3365 81.5982L69.3353 81.5945L68.3825 81.898ZM68.5025 82.312L67.5358 82.5679L67.5358 82.5679L68.5025 82.312ZM68.6045 82.714L67.6326 82.9496L69.5932 82.8638L68.6045 82.714ZM68.6765 82.318L67.7031 82.089L67.7006 82.0997L67.6983 82.1105L68.6765 82.318ZM68.7785 81.898L67.8216 81.6075L67.8144 81.6313L67.8083 81.6555L68.7785 81.898ZM69.9665 77.986L69.012 77.6878L69.0096 77.6955L69.9665 77.986ZM70.0805 77.83L70.6617 78.6438L70.6803 78.6305L70.6983 78.6164L70.0805 77.83ZM70.1311 77.456L68.1631 83.534L70.0659 84.1501L72.0339 78.0721L70.1311 77.456ZM69.1145 82.842H68.2685V84.842H69.1145V82.842ZM68.2685 82.842C68.4577 82.842 68.6635 82.9133 68.8231 83.064C68.9596 83.193 69.0022 83.3232 69.0119 83.3559L67.0931 83.9202C67.1427 84.0889 67.2414 84.3211 67.4499 84.5181C67.6815 84.7368 67.9753 84.842 68.2685 84.842V82.842ZM69.0032 83.328L67.6592 79.206L65.7578 79.826L67.1018 83.948L69.0032 83.328ZM67.653 79.1875C67.6338 79.1322 67.6188 79.079 67.6077 79.0276L65.6533 79.4525C65.6822 79.5851 65.7192 79.7159 65.764 79.8446L67.653 79.1875ZM67.6095 79.0361C67.5889 78.9374 67.5683 78.8405 67.5477 78.7456L65.5933 79.1705C65.6127 79.2595 65.6321 79.3507 65.6515 79.444L67.6095 79.0361ZM65.5933 78.7456C65.5727 78.8405 65.5521 78.9374 65.5315 79.0361L67.4895 79.444C67.5089 79.3507 67.5283 79.2595 67.5477 79.1705L65.5933 78.7456ZM65.5333 79.0276C65.5215 79.082 65.5053 79.1414 65.4838 79.2058L67.3812 79.8383C67.4237 79.7107 67.4595 79.582 67.4877 79.4525L65.5333 79.0276ZM65.4835 79.2066L64.1155 83.3226L66.0135 83.9534L67.3815 79.8374L65.4835 79.2066ZM64.0978 83.3821C64.1146 83.3188 64.1694 83.1655 64.3298 83.0291C64.5023 82.8825 64.6943 82.842 64.8245 82.842V84.842C65.0787 84.842 65.3727 84.7675 65.6251 84.553C65.8656 84.3486 65.9784 84.0933 66.0312 83.8939L64.0978 83.3821ZM64.8245 82.842H64.0205V84.842H64.8245V82.842ZM64.9719 83.534L63.0039 77.456L61.1011 78.0721L63.0691 84.1501L64.9719 83.534ZM62.0525 78.764H62.8925V76.764H62.0525V78.764ZM62.8925 78.764C62.7943 78.764 62.6351 78.7346 62.4847 78.6164L63.7203 77.0437C63.4578 76.8375 63.1587 76.764 62.8925 76.764V78.764ZM62.5111 78.6364C62.4344 78.5802 62.3302 78.4716 62.2738 78.3023L64.1712 77.6698C64.0747 77.3805 63.8906 77.1679 63.6939 77.0236L62.5111 78.6364ZM62.264 78.2712L63.428 82.1832L65.345 81.6129L64.181 77.7009L62.264 78.2712ZM63.4133 82.1278C63.4762 82.3943 63.5249 82.641 63.5605 82.8684L65.5365 82.5597C65.492 82.2751 65.4328 81.9778 65.3597 81.6682L63.4133 82.1278ZM65.5133 82.9772C65.5499 82.8427 65.5866 82.7063 65.6232 82.5679L63.6898 82.0561C63.6544 82.1898 63.6191 82.3214 63.5837 82.4509L65.5133 82.9772ZM65.6159 82.5942C65.6541 82.4643 65.6943 82.3322 65.7365 82.1979L63.8285 81.5982C63.7827 81.7439 63.7389 81.8878 63.6971 82.0299L65.6159 82.5942ZM65.7332 82.2082L67.0172 78.2722L65.1158 77.6519L63.8318 81.5879L65.7332 82.2082ZM67.0152 78.2783C66.9771 78.3924 66.9054 78.4997 66.8087 78.5803L65.5283 77.0438C65.3356 77.2044 65.1959 77.4117 65.1178 77.6458L67.0152 78.2783ZM66.7782 78.6047C66.6382 78.7124 66.4803 78.752 66.3545 78.752V76.752C66.0847 76.752 65.8028 76.8317 65.5588 77.0194L66.7782 78.6047ZM66.3545 78.752H66.8225V76.752H66.3545V78.752ZM66.8225 78.752C66.7316 78.752 66.5692 78.7266 66.4108 78.6047L67.6302 77.0194C67.3677 76.8175 67.0734 76.752 66.8225 76.752V78.752ZM66.4108 78.6047C66.3111 78.528 66.2253 78.4146 66.1798 78.2783L68.0772 77.6458C67.9917 77.3895 67.8339 77.1761 67.6302 77.0194L66.4108 78.6047ZM66.1757 78.2656L67.4297 82.2016L69.3353 81.5945L68.0813 77.6585L66.1757 78.2656ZM67.4285 82.1979C67.4681 82.3239 67.5039 82.4473 67.5358 82.5679L69.4692 82.0561C69.4291 81.9048 69.3849 81.7521 69.3365 81.5982L67.4285 82.1979ZM67.5358 82.5679C67.5701 82.6974 67.6023 82.8247 67.6326 82.9496L69.5763 82.4784C69.5426 82.3394 69.5069 82.1987 69.4692 82.0561L67.5358 82.5679ZM69.5932 82.8638C69.6102 82.7514 69.6307 82.6386 69.6547 82.5255L67.6983 82.1105C67.6662 82.2615 67.6387 82.4127 67.6158 82.5642L69.5932 82.8638ZM69.6499 82.5471C69.6808 82.4159 69.7137 82.2804 69.7486 82.1406L67.8083 81.6555C67.7713 81.8037 67.7362 81.9482 67.7031 82.089L69.6499 82.5471ZM69.7353 82.1886L70.9233 78.2766L69.0096 77.6955L67.8216 81.6075L69.7353 82.1886ZM70.921 78.2843C70.8742 78.434 70.7779 78.5608 70.6617 78.6438L69.4993 77.0163C69.2711 77.1793 69.0988 77.4101 69.012 77.6878L70.921 78.2843ZM70.6983 78.6164C70.638 78.6637 70.5669 78.703 70.4882 78.7292C70.4103 78.7552 70.3381 78.764 70.2785 78.764V76.764C69.9945 76.764 69.7071 76.8517 69.4627 77.0437L70.6983 78.6164ZM70.2785 78.764H71.0825V76.764H70.2785V78.764ZM73.1304 78.646L72.1384 78.7723L72.4155 80.9499L73.8767 79.3117L73.1304 78.646ZM73.5504 78.244L74.1802 79.0208V79.0208L73.5504 78.244ZM74.0184 77.938L74.4743 78.8281L74.4824 78.8239L74.0184 77.938ZM74.5464 77.74L74.7789 78.7126L74.7864 78.7108L74.7937 78.709L74.5464 77.74ZM76.0284 77.836L75.6222 78.7499L75.6309 78.7537L75.6397 78.7574L76.0284 77.836ZM76.6644 78.304L75.8924 78.9397L75.8992 78.948L75.9062 78.9561L76.6644 78.304ZM77.0544 79.03L78.0096 78.7341L77.0544 79.03ZM77.1864 83.842V84.842H78.1864V83.842H77.1864ZM76.1124 83.842H75.1124V84.842H76.1124V83.842ZM75.7944 78.904L75.0182 79.5346L75.0236 79.5413L75.0291 79.5478L75.7944 78.904ZM73.9524 78.748L73.47 77.8721L73.4645 77.8751L73.9524 78.748ZM73.1964 79.366L72.4502 78.7003L72.1964 78.9847V79.366H73.1964ZM73.1964 83.842V84.842H74.1964V83.842H73.1964ZM72.1224 83.842H71.1224V84.842H72.1224V83.842ZM72.1224 77.764V76.764H71.1224V77.764H72.1224ZM73.0464 77.986L74.0384 77.8598L74.0313 77.8042L74.018 77.7497L73.0464 77.986ZM73.8767 79.3117C73.9743 79.2021 74.0756 79.1056 74.1802 79.0208L72.9206 77.4673C72.7291 77.6225 72.5504 77.7939 72.3841 77.9804L73.8767 79.3117ZM74.1802 79.0208C74.2761 78.943 74.3741 78.8794 74.4742 78.8281L73.5625 77.048C73.3347 77.1647 73.1206 77.3051 72.9206 77.4673L74.1802 79.0208ZM74.4824 78.8239C74.5773 78.7742 74.6756 78.7373 74.7789 78.7126L74.3138 76.7675C74.0492 76.8307 73.7954 76.9259 73.5544 77.0522L74.4824 78.8239ZM74.7937 78.709C74.8924 78.6838 75.0105 78.668 75.1524 78.668V76.668C74.8622 76.668 74.5764 76.7003 74.299 76.7711L74.7937 78.709ZM75.1524 78.668C75.3724 78.668 75.5214 78.705 75.6222 78.7499L76.4345 76.9222C76.0313 76.743 75.5963 76.668 75.1524 76.668V78.668ZM75.6397 78.7574C75.7546 78.8059 75.8325 78.867 75.8924 78.9397L77.4363 77.6683C77.1602 77.3331 76.8141 77.0822 76.4171 76.9147L75.6397 78.7574ZM75.9062 78.9561C75.9781 79.0397 76.0466 79.1563 76.0992 79.326L78.0096 78.7341C77.8861 78.3358 77.6946 77.9684 77.4226 77.652L75.9062 78.9561ZM76.0992 79.326C76.1532 79.5005 76.1864 79.713 76.1864 79.972H78.1864C78.1864 79.5431 78.1315 79.1276 78.0096 78.7341L76.0992 79.326ZM76.1864 79.972V83.842H78.1864V79.972H76.1864ZM77.1864 82.842H76.1124V84.842H77.1864V82.842ZM77.1124 83.842V79.972H75.1124V83.842H77.1124ZM77.1124 79.972C77.1124 79.3691 76.9737 78.7526 76.5596 78.2603L75.0291 79.5478C75.039 79.5595 75.1124 79.655 75.1124 79.972H77.1124ZM76.5705 78.2734C76.119 77.7178 75.4728 77.52 74.8404 77.52V79.52C74.9571 79.52 75.0116 79.5377 75.0265 79.5437C75.0332 79.5464 75.0326 79.547 75.0281 79.5437C75.0234 79.5403 75.0198 79.5366 75.0182 79.5346L76.5705 78.2734ZM74.8404 77.52C74.3562 77.52 73.8942 77.6385 73.47 77.8721L74.4348 79.624C74.5626 79.5536 74.6925 79.52 74.8404 79.52V77.52ZM73.4645 77.8751C73.0848 78.0873 72.7475 78.367 72.4502 78.7003L73.9425 80.0318C74.1092 79.845 74.276 79.7128 74.4402 79.621L73.4645 77.8751ZM72.1964 79.366V83.842H74.1964V79.366H72.1964ZM73.1964 82.842H72.1224V84.842H73.1964V82.842ZM73.1224 83.842V77.764H71.1224V83.842H73.1224ZM72.1224 78.764H72.7644V76.764H72.1224V78.764ZM72.7644 78.764C72.6776 78.764 72.5026 78.7409 72.3303 78.6053C72.1582 78.4698 72.0949 78.3056 72.0747 78.2224L74.018 77.7497C73.9618 77.5185 73.8335 77.2433 73.5674 77.0338C73.3011 76.8242 73.0031 76.764 72.7644 76.764V78.764ZM72.0544 78.1123L72.1384 78.7723L74.1224 78.5198L74.0384 77.8598L72.0544 78.1123Z" fill="#9C9C9C" />
	<path d="M29.5 31.856H23.5V35.8546H29.5V31.856Z" fill="#9C9C9C" />
	<path d="M29.5 39.8533H23.5V43.8519H29.5V39.8533Z" fill="#9C9C9C" />
	<path d="M29.5 47.8505H23.5V51.8491H29.5V47.8505Z" fill="#9C9C9C" />
	<path d="M38.5 31.856H32.5V35.8546H38.5V31.856Z" fill="#9C9C9C" />
	<path d="M38.5 39.8533H32.5V43.8519H38.5V39.8533Z" fill="#9C9C9C" />
	<path d="M38.5 47.8505H32.5V51.8491H38.5V47.8505Z" fill="#9C9C9C" />
	<path d="M57.9115 52.3388H72.8955C73.1185 52.3356 73.3311 52.2444 73.487 52.085C73.6429 51.9256 73.7294 51.711 73.7275 51.4881V49.3608C73.7294 49.1379 73.6429 48.9233 73.487 48.7639C73.3311 48.6045 73.1185 48.5133 72.8955 48.5101H57.9115C57.6885 48.5133 57.4758 48.6045 57.32 48.7639C57.1641 48.9233 57.0776 49.1379 57.0795 49.3608V51.4881C57.0776 51.711 57.1641 51.9256 57.32 52.085C57.4758 52.2444 57.6885 52.3356 57.9115 52.3388ZM50.4195 47.8723C49.751 47.8855 49.1144 48.1603 48.6463 48.6376C48.1782 49.1148 47.916 49.7565 47.916 50.4249C47.916 51.0933 48.1782 51.735 48.6463 52.2123C49.1144 52.6896 49.751 52.9643 50.4195 52.9775C51.088 52.9643 51.7246 52.6896 52.1927 52.2123C52.6608 51.735 52.9229 51.0933 52.9229 50.4249C52.9229 49.7565 52.6608 49.1148 52.1927 48.6376C51.7246 48.1603 51.088 47.8855 50.4195 47.8723Z" fill="black" fill-opacity="0.6" />
	<path d="M57.9115 44.2786H72.8955C73.1185 44.2755 73.3311 44.1842 73.487 44.0248C73.6429 43.8654 73.7294 43.6508 73.7275 43.4279V41.3006C73.7294 41.0777 73.6429 40.8631 73.487 40.7037C73.3311 40.5443 73.1185 40.4531 72.8955 40.4499H57.9115C57.6885 40.4531 57.4758 40.5443 57.32 40.7037C57.1641 40.8631 57.0776 41.0777 57.0795 41.3006V43.4279C57.0776 43.6508 57.1641 43.8654 57.32 44.0248C57.4758 44.1842 57.6885 44.2755 57.9115 44.2786ZM50.4195 39.8121C49.751 39.8254 49.1144 40.1001 48.6463 40.5774C48.1782 41.0547 47.916 41.6964 47.916 42.3648C47.916 43.0332 48.1782 43.6749 48.6463 44.1522C49.1144 44.6294 49.751 44.9042 50.4195 44.9174C51.088 44.9042 51.7246 44.6294 52.1927 44.1522C52.6608 43.6749 52.9229 43.0332 52.9229 42.3648C52.9229 41.6964 52.6608 41.0547 52.1927 40.5774C51.7246 40.1001 51.088 39.8254 50.4195 39.8121Z" fill="black" fill-opacity="0.6" />
	<path d="M57.9115 35.3226H72.8955C73.1185 35.3195 73.3311 35.2282 73.487 35.0688C73.6429 34.9094 73.7294 34.6949 73.7275 34.4719V32.3447C73.7294 32.1218 73.6429 31.9072 73.487 31.7478C73.3311 31.5884 73.1185 31.4971 72.8955 31.494H57.9115C57.6885 31.4971 57.4758 31.5884 57.32 31.7478C57.1641 31.9072 57.0776 32.1218 57.0795 32.3447V34.4719C57.0776 34.6949 57.1641 34.9094 57.32 35.0688C57.4758 35.2282 57.6885 35.3195 57.9115 35.3226ZM50.4195 30.8562C49.751 30.8694 49.1144 31.1442 48.6463 31.6214C48.1782 32.0987 47.916 32.7404 47.916 33.4088C47.916 34.0772 48.1782 34.7189 48.6463 35.1962C49.1144 35.6735 49.751 35.9482 50.4195 35.9614C51.088 35.9482 51.7246 35.6735 52.1927 35.1962C52.6608 34.7189 52.9229 34.0772 52.9229 33.4088C52.9229 32.7404 52.6608 32.0987 52.1927 31.6214C51.7246 31.1442 51.088 30.8694 50.4195 30.8562Z" fill="black" fill-opacity="0.6" />
</svg>
