<svg width="98" height="94" viewBox="0 0 98 94" fill="none" xmlns="http://www.w3.org/2000/svg">
	<path opacity="0.5" d="M2.96907 0.614116C1.99128 1.01938 1.20913 1.80117 0.803615 2.77857L1.26544 2.97018C1.09456 3.38204 1 3.83406 1 4.30942V6.24057H0.5V10.1029H1V13.9652H0.5V17.8275H1V21.6898H0.5V25.5521H1V29.4144H0.5V33.2767H1V37.139H0.5V41.0013H1V44.8636H0.5V48.726H1V52.5883H0.5V56.4506H1V60.3129H0.5V64.1752H1V68.0375H0.5V71.8998H1V75.7621H0.5V79.6244H1V83.4867H0.5V87.349H1V89.2802C1 89.7555 1.09456 90.2076 1.26544 90.6194L0.803615 90.811C1.20913 91.7884 1.99128 92.5702 2.96907 92.9755L3.16052 92.5136C3.57246 92.6843 4.02456 92.7788 4.5 92.7788H6.52273V93.2788H10.5682V92.7788H14.6136V93.2788H18.6591V92.7788H22.7045V93.2788H26.75V92.7788H30.7955V93.2788H34.8409V92.7788H38.8864V93.2788H42.9318V92.7788H46.9773V93.2788H51.0227V92.7788H55.0682V93.2788H59.1136V92.7788H63.1591V93.2788H67.2046V92.7788H71.25V93.2788H75.2955V92.7788H79.3409V93.2788H83.3864V92.7788H87.4318V93.2788H91.4773V92.7788H93.5C93.9754 92.7788 94.4275 92.6843 94.8395 92.5136L95.0309 92.9755C96.0087 92.5702 96.7909 91.7884 97.1964 90.811L96.7346 90.6194C96.9054 90.2076 97 89.7555 97 89.2802V87.349H97.5V83.4867H97V79.6244H97.5V75.7621H97V71.8998H97.5V68.0375H97V64.1752H97.5V60.3129H97V56.4506H97.5V52.5883H97V48.7259H97.5V44.8636H97V41.0013H97.5V37.139H97V33.2767H97.5V29.4144H97V25.5521H97.5V21.6898H97V17.8275H97.5V13.9652H97V10.1029H97.5V6.24057H97V4.30942C97 3.83406 96.9054 3.38204 96.7346 2.97018L97.1964 2.77857C96.7909 1.80117 96.0087 1.01938 95.0309 0.614116L94.8395 1.07601C94.4275 0.905276 93.9754 0.810791 93.5 0.810791H91.4773V0.310791H87.4318V0.810791H83.3864V0.310791H79.3409V0.810791H75.2955V0.310791H71.25V0.810791H67.2045V0.310791H63.1591V0.810791H59.1136V0.310791H55.0682V0.810791H51.0227V0.310791H46.9773V0.810791H42.9318V0.310791H38.8864V0.810791H34.8409V0.310791H30.7955V0.810791H26.75V0.310791H22.7045V0.810791H18.6591V0.310791H14.6136V0.810791H10.5682V0.310791H6.52271V0.810791H4.5C4.02456 0.810791 3.57246 0.905276 3.16052 1.07601L2.96907 0.614116Z" fill="#F2F2F2" stroke="#9C9C9C" stroke-dasharray="4 4" />
	<path d="M37.3167 79.1464C37.6487 79.1464 37.9407 79.1024 38.1927 79.0144C38.4487 78.9264 38.6627 78.8044 38.8347 78.6484C39.0107 78.4884 39.1427 78.2984 39.2307 78.0784C39.3187 77.8584 39.3627 77.6164 39.3627 77.3524C39.3627 76.8044 39.1927 76.3764 38.8527 76.0684C38.5167 75.7604 38.0047 75.6064 37.3167 75.6064H35.9367V79.1464H37.3167ZM37.3167 74.6884C37.8607 74.6884 38.3327 74.7524 38.7327 74.8804C39.1367 75.0044 39.4707 75.1824 39.7347 75.4144C39.9987 75.6464 40.1947 75.9264 40.3227 76.2544C40.4547 76.5824 40.5207 76.9484 40.5207 77.3524C40.5207 77.7524 40.4507 78.1184 40.3107 78.4504C40.1707 78.7824 39.9647 79.0684 39.6927 79.3084C39.4247 79.5484 39.0907 79.7364 38.6907 79.8724C38.2947 80.0044 37.8367 80.0704 37.3167 80.0704H35.9367V83.2864H34.7787V74.6884H37.3167ZM42.7725 78.0184C43.0325 77.7424 43.3205 77.5224 43.6365 77.3584C43.9525 77.1944 44.3165 77.1124 44.7285 77.1124C45.0605 77.1124 45.3525 77.1684 45.6045 77.2804C45.8605 77.3884 46.0725 77.5444 46.2405 77.7484C46.4125 77.9484 46.5425 78.1904 46.6305 78.4744C46.7185 78.7584 46.7625 79.0724 46.7625 79.4164V83.2864H45.6885V79.4164C45.6885 78.9564 45.5825 78.6004 45.3705 78.3484C45.1625 78.0924 44.8445 77.9644 44.4165 77.9644C44.1005 77.9644 43.8045 78.0404 43.5285 78.1924C43.2565 78.3444 43.0045 78.5504 42.7725 78.8104V83.2864H41.6985V74.4484H42.7725V78.0184ZM50.9519 77.1124C51.3959 77.1124 51.7959 77.1864 52.1519 77.3344C52.5079 77.4824 52.8119 77.6924 53.0639 77.9644C53.3159 78.2364 53.5079 78.5664 53.6399 78.9544C53.7759 79.3384 53.8439 79.7684 53.8439 80.2444C53.8439 80.7244 53.7759 81.1564 53.6399 81.5404C53.5079 81.9244 53.3159 82.2524 53.0639 82.5244C52.8119 82.7964 52.5079 83.0064 52.1519 83.1544C51.7959 83.2984 51.3959 83.3704 50.9519 83.3704C50.5039 83.3704 50.0999 83.2984 49.7399 83.1544C49.3839 83.0064 49.0799 82.7964 48.8279 82.5244C48.5759 82.2524 48.3819 81.9244 48.2459 81.5404C48.1139 81.1564 48.0479 80.7244 48.0479 80.2444C48.0479 79.7684 48.1139 79.3384 48.2459 78.9544C48.3819 78.5664 48.5759 78.2364 48.8279 77.9644C49.0799 77.6924 49.3839 77.4824 49.7399 77.3344C50.0999 77.1864 50.5039 77.1124 50.9519 77.1124ZM50.9519 82.5364C51.5519 82.5364 51.9999 82.3364 52.2959 81.9364C52.5919 81.5324 52.7399 80.9704 52.7399 80.2504C52.7399 79.5264 52.5919 78.9624 52.2959 78.5584C51.9999 78.1544 51.5519 77.9524 50.9519 77.9524C50.6479 77.9524 50.3819 78.0044 50.1539 78.1084C49.9299 78.2124 49.7419 78.3624 49.5899 78.5584C49.4419 78.7544 49.3299 78.9964 49.2539 79.2844C49.1819 79.5684 49.1459 79.8904 49.1459 80.2504C49.1459 80.9704 49.2939 81.5324 49.5899 81.9364C49.8899 82.3364 50.3439 82.5364 50.9519 82.5364ZM56.9591 83.3824C56.4791 83.3824 56.1091 83.2484 55.8491 82.9804C55.5931 82.7124 55.4651 82.3264 55.4651 81.8224V78.1024H54.7331C54.6691 78.1024 54.6151 78.0844 54.5711 78.0484C54.5271 78.0084 54.5051 77.9484 54.5051 77.8684V77.4424L55.5011 77.3164L55.7471 75.4384C55.7591 75.3784 55.7851 75.3304 55.8251 75.2944C55.8691 75.2544 55.9251 75.2344 55.9931 75.2344H56.5331V77.3284H58.2911V78.1024H56.5331V81.7504C56.5331 82.0064 56.5951 82.1964 56.7191 82.3204C56.8431 82.4444 57.0031 82.5064 57.1991 82.5064C57.3111 82.5064 57.4071 82.4924 57.4871 82.4644C57.5711 82.4324 57.6431 82.3984 57.7031 82.3624C57.7631 82.3264 57.8131 82.2944 57.8531 82.2664C57.8971 82.2344 57.9351 82.2184 57.9671 82.2184C58.0231 82.2184 58.0731 82.2524 58.1171 82.3204L58.4291 82.8304C58.2451 83.0024 58.0231 83.1384 57.7631 83.2384C57.5031 83.3344 57.2351 83.3824 56.9591 83.3824ZM61.9207 77.1124C62.3647 77.1124 62.7647 77.1864 63.1207 77.3344C63.4767 77.4824 63.7807 77.6924 64.0327 77.9644C64.2847 78.2364 64.4767 78.5664 64.6087 78.9544C64.7447 79.3384 64.8127 79.7684 64.8127 80.2444C64.8127 80.7244 64.7447 81.1564 64.6087 81.5404C64.4767 81.9244 64.2847 82.2524 64.0327 82.5244C63.7807 82.7964 63.4767 83.0064 63.1207 83.1544C62.7647 83.2984 62.3647 83.3704 61.9207 83.3704C61.4727 83.3704 61.0687 83.2984 60.7087 83.1544C60.3527 83.0064 60.0487 82.7964 59.7967 82.5244C59.5447 82.2524 59.3507 81.9244 59.2147 81.5404C59.0827 81.1564 59.0167 80.7244 59.0167 80.2444C59.0167 79.7684 59.0827 79.3384 59.2147 78.9544C59.3507 78.5664 59.5447 78.2364 59.7967 77.9644C60.0487 77.6924 60.3527 77.4824 60.7087 77.3344C61.0687 77.1864 61.4727 77.1124 61.9207 77.1124ZM61.9207 82.5364C62.5207 82.5364 62.9687 82.3364 63.2647 81.9364C63.5607 81.5324 63.7087 80.9704 63.7087 80.2504C63.7087 79.5264 63.5607 78.9624 63.2647 78.5584C62.9687 78.1544 62.5207 77.9524 61.9207 77.9524C61.6167 77.9524 61.3507 78.0044 61.1227 78.1084C60.8987 78.2124 60.7107 78.3624 60.5587 78.5584C60.4107 78.7544 60.2987 78.9964 60.2227 79.2844C60.1507 79.5684 60.1147 79.8904 60.1147 80.2504C60.1147 80.9704 60.2627 81.5324 60.5587 81.9364C60.8587 82.3364 61.3127 82.5364 61.9207 82.5364Z" fill="#3E4244" />
	<path d="M38.1927 79.0144L37.8676 78.0687L37.863 78.0703L38.1927 79.0144ZM38.8347 78.6484L39.5065 79.3891L39.5073 79.3883L38.8347 78.6484ZM39.2307 78.0784L40.1591 78.4498L40.1591 78.4498L39.2307 78.0784ZM38.8527 76.0684L38.1769 76.8055L38.1813 76.8095L38.8527 76.0684ZM35.9367 75.6064V74.6064H34.9367V75.6064H35.9367ZM35.9367 79.1464H34.9367V80.1464H35.9367V79.1464ZM38.7327 74.8804L38.4279 75.8329L38.4392 75.8364L38.7327 74.8804ZM39.7347 75.4144L39.0745 76.1655L39.0746 76.1655L39.7347 75.4144ZM40.3227 76.2544L39.391 76.6179L39.395 76.6277L40.3227 76.2544ZM40.3107 78.4504L39.3892 78.0618L39.3892 78.0618L40.3107 78.4504ZM39.6927 79.3084L39.031 78.5585L39.0255 78.5634L39.6927 79.3084ZM38.6907 79.8724L39.0069 80.8211L39.0126 80.8191L38.6907 79.8724ZM35.9367 80.0704V79.0704H34.9367V80.0704H35.9367ZM35.9367 83.2864V84.2864H36.9367V83.2864H35.9367ZM34.7787 83.2864H33.7787V84.2864H34.7787V83.2864ZM34.7787 74.6884V73.6884H33.7787V74.6884H34.7787ZM37.3167 80.1464C37.7346 80.1464 38.1421 80.0912 38.5223 79.9585L37.863 78.0703C37.7392 78.1135 37.5627 78.1464 37.3167 78.1464V80.1464ZM38.5177 79.9601C38.881 79.8352 39.2187 79.6501 39.5065 79.3891L38.1628 77.9077C38.1066 77.9587 38.0163 78.0176 37.8676 78.0687L38.5177 79.9601ZM39.5073 79.3883C39.795 79.1268 40.0147 78.811 40.1591 78.4498L38.3022 77.707C38.2707 77.7858 38.2264 77.8499 38.162 77.9084L39.5073 79.3883ZM40.1591 78.4498C40.2995 78.0989 40.3627 77.7291 40.3627 77.3524H38.3627C38.3627 77.5037 38.3378 77.6179 38.3022 77.707L40.1591 78.4498ZM40.3627 77.3524C40.3627 76.5818 40.1139 75.8616 39.524 75.3273L38.1813 76.8095C38.2715 76.8912 38.3627 77.0269 38.3627 77.3524H40.3627ZM39.5284 75.3312C38.9334 74.7858 38.1308 74.6064 37.3167 74.6064V76.6064C37.8785 76.6064 38.1 76.735 38.1769 76.8055L39.5284 75.3312ZM37.3167 74.6064H35.9367V76.6064H37.3167V74.6064ZM34.9367 75.6064V79.1464H36.9367V75.6064H34.9367ZM35.9367 80.1464H37.3167V78.1464H35.9367V80.1464ZM37.3167 75.6884C37.7861 75.6884 38.1506 75.7441 38.4279 75.8328L39.0374 73.928C38.5148 73.7607 37.9353 73.6884 37.3167 73.6884V75.6884ZM38.4392 75.8364C38.7348 75.9271 38.9362 76.044 39.0745 76.1655L40.3948 74.6632C40.0051 74.3208 39.5385 74.0817 39.0261 73.9244L38.4392 75.8364ZM39.0746 76.1655C39.2181 76.2917 39.3211 76.4387 39.3911 76.6179L41.2542 75.8908C41.0682 75.4141 40.7792 75.001 40.3948 74.6632L39.0746 76.1655ZM39.395 76.6277C39.4729 76.8213 39.5207 77.0582 39.5207 77.3524H41.5207C41.5207 76.8385 41.4364 76.3434 41.2504 75.881L39.395 76.6277ZM39.5207 77.3524C39.5207 77.6336 39.4719 77.8657 39.3892 78.0618L41.2321 78.8389C41.4294 78.3711 41.5207 77.8711 41.5207 77.3524H39.5207ZM39.3892 78.0618C39.308 78.2544 39.1912 78.4172 39.031 78.5585L40.3543 80.0582C40.7381 79.7195 41.0333 79.3103 41.2321 78.8389L39.3892 78.0618ZM39.0255 78.5634C38.8738 78.6993 38.6632 78.8255 38.3688 78.9256L39.0126 80.8191C39.5181 80.6473 39.9756 80.3974 40.3598 80.0533L39.0255 78.5634ZM38.3744 78.9237C38.1019 79.0145 37.7545 79.0704 37.3167 79.0704V81.0704C37.9189 81.0704 38.4874 80.9942 39.0069 80.8211L38.3744 78.9237ZM37.3167 79.0704H35.9367V81.0704H37.3167V79.0704ZM34.9367 80.0704V83.2864H36.9367V80.0704H34.9367ZM35.9367 82.2864H34.7787V84.2864H35.9367V82.2864ZM35.7787 83.2864V74.6884H33.7787V83.2864H35.7787ZM34.7787 75.6884H37.3167V73.6884H34.7787V75.6884ZM42.7725 78.0184H41.7725V80.5383L43.5004 78.7041L42.7725 78.0184ZM43.6365 77.3584L43.1759 76.4708L43.6365 77.3584ZM45.6045 77.2804L45.1984 78.1942L45.2071 78.198L45.2158 78.2017L45.6045 77.2804ZM46.2405 77.7484L45.4686 78.3841L45.4754 78.3923L45.4824 78.4004L46.2405 77.7484ZM46.6305 78.4744L47.5857 78.1784L46.6305 78.4744ZM46.7625 83.2864V84.2864H47.7625V83.2864H46.7625ZM45.6885 83.2864H44.6885V84.2864H45.6885V83.2864ZM45.3705 78.3484L44.5944 78.979L44.5998 78.9856L44.6053 78.9921L45.3705 78.3484ZM43.5285 78.1924L43.0461 77.3164L43.0407 77.3194L43.5285 78.1924ZM42.7725 78.8104L42.0264 78.1446L41.7725 78.4291V78.8104H42.7725ZM42.7725 83.2864V84.2864H43.7725V83.2864H42.7725ZM41.6985 83.2864H40.6985V84.2864H41.6985V83.2864ZM41.6985 74.4484V73.4484H40.6985V74.4484H41.6985ZM42.7725 74.4484H43.7725V73.4484H42.7725V74.4484ZM43.5004 78.7041C43.6884 78.5046 43.8873 78.3549 44.0972 78.246L43.1759 76.4708C42.7538 76.6899 42.3767 76.9802 42.0446 77.3327L43.5004 78.7041ZM44.0972 78.246C44.25 78.1667 44.4516 78.1124 44.7285 78.1124V76.1124C44.1815 76.1124 43.6551 76.2221 43.1759 76.4708L44.0972 78.246ZM44.7285 78.1124C44.9486 78.1124 45.0976 78.1494 45.1984 78.1942L46.0107 76.3666C45.6075 76.1874 45.1725 76.1124 44.7285 76.1124V78.1124ZM45.2158 78.2017C45.3308 78.2502 45.4087 78.3113 45.4686 78.3841L47.0125 77.1127C46.7364 76.7774 46.3903 76.5265 45.9932 76.359L45.2158 78.2017ZM45.4824 78.4004C45.5543 78.484 45.6228 78.6007 45.6753 78.7704L47.5857 78.1784C47.4623 77.7801 47.2708 77.4127 46.9987 77.0963L45.4824 78.4004ZM45.6753 78.7704C45.7294 78.9448 45.7625 79.1573 45.7625 79.4164H47.7625C47.7625 78.9874 47.7077 78.5719 47.5857 78.1784L45.6753 78.7704ZM45.7625 79.4164V83.2864H47.7625V79.4164H45.7625ZM46.7625 82.2864H45.6885V84.2864H46.7625V82.2864ZM46.6885 83.2864V79.4164H44.6885V83.2864H46.6885ZM46.6885 79.4164C46.6885 78.8135 46.5499 78.1969 46.1358 77.7046L44.6053 78.9921C44.6152 79.0039 44.6885 79.0993 44.6885 79.4164H46.6885ZM46.1467 77.7178C45.6952 77.1621 45.0489 76.9644 44.4165 76.9644V78.9644C44.5333 78.9644 44.5878 78.9821 44.6026 78.988C44.6094 78.9908 44.6088 78.9913 44.6043 78.988C44.5996 78.9846 44.596 78.9809 44.5944 78.979L46.1467 77.7178ZM44.4165 76.9644C43.9324 76.9644 43.4703 77.0828 43.0461 77.3164L44.0109 79.0683C44.1387 78.9979 44.2687 78.9644 44.4165 78.9644V76.9644ZM43.0407 77.3194C42.6609 77.5317 42.3237 77.8114 42.0264 78.1446L43.5187 79.4762C43.6854 79.2894 43.8521 79.1571 44.0164 79.0653L43.0407 77.3194ZM41.7725 78.8104V83.2864H43.7725V78.8104H41.7725ZM42.7725 82.2864H41.6985V84.2864H42.7725V82.2864ZM42.6985 83.2864V74.4484H40.6985V83.2864H42.6985ZM41.6985 75.4484H42.7725V73.4484H41.6985V75.4484ZM41.7725 74.4484V78.0184H43.7725V74.4484H41.7725ZM52.1519 77.3344L51.7681 78.2578V78.2578L52.1519 77.3344ZM53.0639 77.9644L52.3304 78.644L52.3304 78.644L53.0639 77.9644ZM53.6399 78.9544L52.6932 79.2765L52.6973 79.2882L53.6399 78.9544ZM53.6399 81.5404L52.6973 81.2065L52.6943 81.2153L53.6399 81.5404ZM53.0639 82.5244L52.3304 81.8448V81.8448L53.0639 82.5244ZM52.1519 83.1544L52.5269 84.0815L52.5358 84.0778L52.1519 83.1544ZM49.7399 83.1544L49.356 84.0778L49.3686 84.0829L49.7399 83.1544ZM48.8279 82.5244L49.5615 81.8448L48.8279 82.5244ZM48.2459 81.5404L47.3002 81.8655L47.3033 81.8742L48.2459 81.5404ZM48.2459 78.9544L47.3022 78.6236L47.3003 78.6293L48.2459 78.9544ZM48.8279 77.9644L49.5615 78.644L49.5615 78.644L48.8279 77.9644ZM49.7399 77.3344L49.3597 76.4095L49.3561 76.411L49.7399 77.3344ZM52.2959 81.9364L53.0998 82.5312L53.1026 82.5274L52.2959 81.9364ZM50.1539 78.1084L49.7389 77.1985L49.7328 77.2014L50.1539 78.1084ZM49.5899 78.5584L48.7997 77.9455L48.7919 77.9558L49.5899 78.5584ZM49.2539 79.2844L48.287 79.0292L48.2846 79.0386L49.2539 79.2844ZM49.5899 81.9364L48.7832 82.5274L48.7899 82.5364L49.5899 81.9364ZM50.9519 78.1124C51.284 78.1124 51.5508 78.1674 51.7681 78.2578L52.5358 76.411C52.0411 76.2053 51.5079 76.1124 50.9519 76.1124V78.1124ZM51.7681 78.2578C51.9968 78.3528 52.18 78.4817 52.3304 78.644L53.7975 77.2848C53.4439 76.9031 53.0191 76.6119 52.5358 76.411L51.7681 78.2578ZM52.3304 78.644C52.4774 78.8027 52.6016 79.0072 52.6932 79.2765L54.5867 78.6323C54.4143 78.1256 54.1545 77.67 53.7975 77.2848L52.3304 78.644ZM52.6973 79.2882C52.7896 79.5487 52.8439 79.8633 52.8439 80.2444H54.8439C54.8439 79.6734 54.7623 79.1281 54.5826 78.6205L52.6973 79.2882ZM52.8439 80.2444C52.8439 80.6304 52.7893 80.9469 52.6973 81.2065L54.5826 81.8742C54.7626 81.3658 54.8439 80.8183 54.8439 80.2444H52.8439ZM52.6943 81.2153C52.6032 81.4803 52.4791 81.6842 52.3304 81.8448L53.7975 83.204C54.1528 82.8205 54.4127 82.3685 54.5856 81.8655L52.6943 81.2153ZM52.3304 81.8448C52.18 82.0071 51.9968 82.1359 51.7681 82.231L52.5358 84.0778C53.0191 83.8768 53.4439 83.5857 53.7975 83.204L52.3304 81.8448ZM51.777 82.2273C51.5572 82.3162 51.2873 82.3704 50.9519 82.3704V84.3704C51.5046 84.3704 52.0347 84.2805 52.5269 84.0814L51.777 82.2273ZM50.9519 82.3704C50.6116 82.3704 50.3363 82.3159 50.1113 82.2259L49.3686 84.0829C49.8636 84.2809 50.3963 84.3704 50.9519 84.3704V82.3704ZM50.1238 82.231C49.8951 82.1359 49.7119 82.0071 49.5615 81.8448L48.0944 83.204C48.448 83.5857 48.8728 83.8768 49.3561 84.0778L50.1238 82.231ZM49.5615 81.8448C49.4108 81.682 49.2836 81.475 49.1886 81.2065L47.3033 81.8742C47.4802 82.3738 47.7411 82.8227 48.0944 83.204L49.5615 81.8448ZM49.1916 81.2153C49.1015 80.953 49.0479 80.6334 49.0479 80.2444H47.0479C47.0479 80.8154 47.1264 81.3598 47.3003 81.8655L49.1916 81.2153ZM49.0479 80.2444C49.0479 79.8604 49.1012 79.5426 49.1916 79.2795L47.3003 78.6293C47.1267 79.1342 47.0479 79.6764 47.0479 80.2444H49.0479ZM49.1897 79.2852C49.2852 79.0125 49.4124 78.8049 49.5615 78.644L48.0944 77.2848C47.7395 77.6678 47.4787 78.1203 47.3022 78.6236L49.1897 79.2852ZM49.5615 78.644C49.7119 78.4817 49.8951 78.3528 50.1238 78.2578L49.3561 76.411C48.8728 76.6119 48.448 76.9031 48.0944 77.2848L49.5615 78.644ZM50.1202 78.2593C50.3427 78.1678 50.6149 78.1124 50.9519 78.1124V76.1124C50.393 76.1124 49.8572 76.205 49.3597 76.4095L50.1202 78.2593ZM50.9519 83.5364C51.7956 83.5364 52.5754 83.2398 53.0998 82.5312L51.4921 81.3415C51.4244 81.433 51.3083 81.5364 50.9519 81.5364V83.5364ZM53.1026 82.5274C53.5685 81.8915 53.7399 81.0933 53.7399 80.2504H51.7399C51.7399 80.8475 51.6154 81.1732 51.4893 81.3454L53.1026 82.5274ZM53.7399 80.2504C53.7399 79.4049 53.5691 78.604 53.1026 77.9674L51.4893 79.1494C51.6148 79.3207 51.7399 79.6479 51.7399 80.2504H53.7399ZM53.1026 77.9674C52.5798 77.2537 51.7994 76.9524 50.9519 76.9524V78.9524C51.3045 78.9524 51.4201 79.055 51.4893 79.1494L53.1026 77.9674ZM50.9519 76.9524C50.5347 76.9524 50.1219 77.0239 49.7389 77.1986L50.569 79.0182C50.642 78.9849 50.7612 78.9524 50.9519 78.9524V76.9524ZM49.7328 77.2014C49.3634 77.3729 49.0491 77.624 48.7997 77.9456L50.3802 79.1712C50.4348 79.1007 50.4965 79.0519 50.5751 79.0154L49.7328 77.2014ZM48.7919 77.9558C48.5508 78.2751 48.3893 78.6416 48.287 79.0292L50.2208 79.5395C50.2706 79.3512 50.3331 79.2337 50.388 79.161L48.7919 77.9558ZM48.2846 79.0386C48.1882 79.4188 48.1459 79.8256 48.1459 80.2504H50.1459C50.1459 79.9552 50.1757 79.718 50.2233 79.5301L48.2846 79.0386ZM48.1459 80.2504C48.1459 81.0933 48.3174 81.8915 48.7833 82.5274L50.3966 81.3454C50.2705 81.1732 50.1459 80.8475 50.1459 80.2504H48.1459ZM48.7899 82.5364C49.3202 83.2434 50.1053 83.5364 50.9519 83.5364V81.5364C50.5826 81.5364 50.4597 81.4293 50.3899 81.3364L48.7899 82.5364ZM55.8491 82.9804L55.1259 83.6711L55.1313 83.6767L55.8491 82.9804ZM55.4651 78.1024H56.4651V77.1024H55.4651V78.1024ZM54.5711 78.0484L53.8984 78.7883L53.9177 78.8058L53.9378 78.8223L54.5711 78.0484ZM54.5051 77.4424L54.3796 76.4503L53.5051 76.5609V77.4424H54.5051ZM55.5011 77.3164L55.6266 78.3085L56.3923 78.2116L56.4926 77.4463L55.5011 77.3164ZM55.7471 75.4384L54.7665 75.2423L54.7599 75.2752L54.7555 75.3085L55.7471 75.4384ZM55.8251 75.2944L56.494 76.0377L56.4977 76.0343L55.8251 75.2944ZM56.5331 75.2344H57.5331V74.2344H56.5331V75.2344ZM56.5331 77.3284H55.5331V78.3284H56.5331V77.3284ZM58.2911 77.3284H59.2911V76.3284H58.2911V77.3284ZM58.2911 78.1024V79.1024H59.2911V78.1024H58.2911ZM56.5331 78.1024V77.1024H55.5331V78.1024H56.5331ZM56.7191 82.3204L57.4262 81.6133H57.4262L56.7191 82.3204ZM57.4871 82.4644L57.8174 83.4082L57.8303 83.4037L57.8431 83.3989L57.4871 82.4644ZM57.7031 82.3624L57.1886 81.5049L57.1886 81.5049L57.7031 82.3624ZM57.8531 82.2664L58.4265 83.0856L58.4339 83.0804L58.4412 83.0751L57.8531 82.2664ZM58.1171 82.3204L58.9701 81.7985L58.9635 81.7877L58.9566 81.7771L58.1171 82.3204ZM58.4291 82.8304L59.112 83.5609L59.7076 83.0041L59.2821 82.3085L58.4291 82.8304ZM57.7631 83.2384L58.1095 84.1766L58.122 84.1717L57.7631 83.2384ZM56.9591 82.3824C56.6684 82.3824 56.5886 82.3065 56.5668 82.2841L55.1313 83.6767C55.6296 84.1902 56.2898 84.3824 56.9591 84.3824V82.3824ZM56.5722 82.2896C56.5498 82.2662 56.4651 82.1634 56.4651 81.8224H54.4651C54.4651 82.4893 54.6363 83.1585 55.126 83.6711L56.5722 82.2896ZM56.4651 81.8224V78.1024H54.4651V81.8224H56.4651ZM55.4651 77.1024H54.7331V79.1024H55.4651V77.1024ZM54.7331 77.1024C54.8691 77.1024 55.0472 77.1459 55.2043 77.2744L53.9378 78.8223C54.1829 79.0229 54.469 79.1024 54.7331 79.1024V77.1024ZM55.2437 77.3084C55.4732 77.517 55.5051 77.7684 55.5051 77.8684H53.5051C53.5051 78.1284 53.581 78.4997 53.8984 78.7883L55.2437 77.3084ZM55.5051 77.8684V77.4424H53.5051V77.8684H55.5051ZM54.6306 78.4345L55.6266 78.3085L55.3756 76.3243L54.3796 76.4503L54.6306 78.4345ZM56.4926 77.4463L56.7386 75.5683L54.7555 75.3085L54.5095 77.1865L56.4926 77.4463ZM56.7277 75.6345C56.7035 75.7555 56.6356 75.9103 56.494 76.0377L55.1561 74.5511C54.9345 74.7505 54.8147 75.0013 54.7665 75.2423L56.7277 75.6345ZM56.4977 76.0343C56.4221 76.1031 56.3327 76.1567 56.2364 76.1911C56.1422 76.2248 56.0575 76.2344 55.9931 76.2344V74.2344C55.7145 74.2344 55.4069 74.323 55.1524 74.5544L56.4977 76.0343ZM55.9931 76.2344H56.5331V74.2344H55.9931V76.2344ZM55.5331 75.2344V77.3284H57.5331V75.2344H55.5331ZM56.5331 78.3284H58.2911V76.3284H56.5331V78.3284ZM57.2911 77.3284V78.1024H59.2911V77.3284H57.2911ZM58.2911 77.1024H56.5331V79.1024H58.2911V77.1024ZM55.5331 78.1024V81.7504H57.5331V78.1024H55.5331ZM55.5331 81.7504C55.5331 82.1498 55.629 82.6445 56.012 83.0275L57.4262 81.6133C57.4901 81.6772 57.5193 81.7411 57.5302 81.7747C57.5396 81.8034 57.5331 81.8011 57.5331 81.7504H55.5331ZM56.012 83.0275C56.3463 83.3619 56.772 83.5064 57.1991 83.5064V81.5064C57.2073 81.5064 57.243 81.5079 57.2934 81.5274C57.346 81.5478 57.3921 81.5792 57.4262 81.6133L56.012 83.0275ZM57.1991 83.5064C57.3895 83.5064 57.6033 83.4832 57.8174 83.4082L57.1567 81.5205C57.1851 81.5106 57.2043 81.5073 57.2108 81.5063C57.2172 81.5054 57.214 81.5064 57.1991 81.5064V83.5064ZM57.8431 83.3989C57.9674 83.3515 58.0952 83.2933 58.2176 83.2199L57.1886 81.5049C57.1909 81.5035 57.1747 81.5133 57.1311 81.5299L57.8431 83.3989ZM58.2176 83.2199C58.2899 83.1765 58.3611 83.1314 58.4265 83.0856L57.2796 81.4471C57.265 81.4573 57.2363 81.4763 57.1886 81.5049L58.2176 83.2199ZM58.4412 83.0751C58.4196 83.0909 58.3728 83.1225 58.3026 83.152C58.2327 83.1815 58.1168 83.2184 57.9671 83.2184V81.2184C57.6212 81.2184 57.3722 81.3796 57.2649 81.4576L58.4412 83.0751ZM57.9671 83.2184C57.7784 83.2184 57.6112 83.1571 57.4843 83.0708C57.3682 82.9919 57.3048 82.9058 57.2775 82.8636L58.9566 81.7771C58.8172 81.5617 58.4986 81.2184 57.9671 81.2184V83.2184ZM57.264 82.8422L57.576 83.3522L59.2821 82.3085L58.9701 81.7985L57.264 82.8422ZM57.7462 82.0998C57.6656 82.1752 57.5568 82.2463 57.4041 82.305L58.122 84.1717C58.4893 84.0305 58.8246 83.8296 59.112 83.5609L57.7462 82.0998ZM57.4167 82.3003C57.2671 82.3555 57.1164 82.3824 56.9591 82.3824V84.3824C57.3538 84.3824 57.739 84.3132 58.1094 84.1765L57.4167 82.3003ZM63.1207 77.3344L62.7368 78.2578V78.2578L63.1207 77.3344ZM64.0327 77.9644L63.2991 78.644L63.2991 78.644L64.0327 77.9644ZM64.6087 78.9544L63.6619 79.2765L63.6661 79.2882L64.6087 78.9544ZM64.6087 81.5404L63.666 81.2065L63.663 81.2153L64.6087 81.5404ZM64.0327 82.5244L63.2991 81.8448V81.8448L64.0327 82.5244ZM63.1207 83.1544L63.4957 84.0815L63.5046 84.0778L63.1207 83.1544ZM60.7087 83.1544L60.3248 84.0778L60.3373 84.0829L60.7087 83.1544ZM59.7967 82.5244L60.5303 81.8448L59.7967 82.5244ZM59.2147 81.5404L58.269 81.8655L58.2721 81.8742L59.2147 81.5404ZM59.2147 78.9544L58.271 78.6236L58.269 78.6293L59.2147 78.9544ZM59.7967 77.9644L60.5303 78.644V78.644L59.7967 77.9644ZM60.7087 77.3344L60.3285 76.4095L60.3248 76.411L60.7087 77.3344ZM63.2647 81.9364L64.0685 82.5312L64.0714 82.5274L63.2647 81.9364ZM61.1227 78.1084L60.7077 77.1985L60.7016 77.2014L61.1227 78.1084ZM60.5587 78.5584L59.7684 77.9455L59.7607 77.9558L60.5587 78.5584ZM60.2227 79.2844L59.2557 79.0292L59.2534 79.0386L60.2227 79.2844ZM60.5587 81.9364L59.752 82.5274L59.7587 82.5364L60.5587 81.9364ZM61.9207 78.1124C62.2527 78.1124 62.5195 78.1674 62.7368 78.2578L63.5046 76.411C63.0099 76.2053 62.4767 76.1124 61.9207 76.1124V78.1124ZM62.7368 78.2578C62.9655 78.3528 63.1487 78.4817 63.2991 78.644L64.7663 77.2848C64.4127 76.9031 63.9879 76.6119 63.5046 76.411L62.7368 78.2578ZM63.2991 78.644C63.4462 78.8027 63.5704 79.0072 63.662 79.2765L65.5554 78.6323C65.383 78.1256 65.1232 77.67 64.7663 77.2848L63.2991 78.644ZM63.6661 79.2882C63.7583 79.5487 63.8127 79.8633 63.8127 80.2444H65.8127C65.8127 79.6734 65.7311 79.1281 65.5513 78.6205L63.6661 79.2882ZM63.8127 80.2444C63.8127 80.6304 63.758 80.9469 63.6661 81.2065L65.5513 81.8742C65.7314 81.3658 65.8127 80.8183 65.8127 80.2444H63.8127ZM63.663 81.2153C63.5719 81.4803 63.4478 81.6842 63.2991 81.8448L64.7663 83.204C65.1215 82.8205 65.3815 82.3685 65.5544 81.8655L63.663 81.2153ZM63.2991 81.8448C63.1487 82.0071 62.9655 82.1359 62.7368 82.231L63.5046 84.0778C63.9879 83.8768 64.4127 83.5857 64.7663 83.204L63.2991 81.8448ZM62.7457 82.2273C62.526 82.3162 62.256 82.3704 61.9207 82.3704V84.3704C62.4734 84.3704 63.0034 84.2805 63.4957 84.0814L62.7457 82.2273ZM61.9207 82.3704C61.5804 82.3704 61.3051 82.3159 61.0801 82.2259L60.3373 84.0829C60.8323 84.2809 61.365 84.3704 61.9207 84.3704V82.3704ZM61.0926 82.231C60.8639 82.1359 60.6807 82.0071 60.5303 81.8448L59.0631 83.204C59.4167 83.5857 59.8415 83.8768 60.3248 84.0778L61.0926 82.231ZM60.5303 81.8448C60.3795 81.682 60.2524 81.475 60.1573 81.2065L58.2721 81.8742C58.449 82.3738 58.7099 82.8227 59.0631 83.204L60.5303 81.8448ZM60.1604 81.2153C60.0702 80.953 60.0167 80.6334 60.0167 80.2444H58.0167C58.0167 80.8154 58.0952 81.3598 58.269 81.8655L60.1604 81.2153ZM60.0167 80.2444C60.0167 79.8604 60.0699 79.5426 60.1604 79.2795L58.269 78.6293C58.0955 79.1342 58.0167 79.6764 58.0167 80.2444H60.0167ZM60.1584 79.2852C60.254 79.0125 60.3812 78.8049 60.5303 78.644L59.0631 77.2848C58.7082 77.6678 58.4474 78.1203 58.271 78.6236L60.1584 79.2852ZM60.5303 78.644C60.6807 78.4817 60.8639 78.3528 61.0926 78.2578L60.3248 76.411C59.8415 76.6119 59.4167 76.9031 59.0631 77.2848L60.5303 78.644ZM61.0889 78.2593C61.3115 78.1678 61.5836 78.1124 61.9207 78.1124V76.1124C61.3618 76.1124 60.8259 76.205 60.3285 76.4095L61.0889 78.2593ZM61.9207 83.5364C62.7643 83.5364 63.5442 83.2398 64.0685 82.5312L62.4609 81.3415C62.3932 81.433 62.2771 81.5364 61.9207 81.5364V83.5364ZM64.0714 82.5274C64.5372 81.8915 64.7087 81.0933 64.7087 80.2504H62.7087C62.7087 80.8475 62.5842 81.1732 62.458 81.3454L64.0714 82.5274ZM64.7087 80.2504C64.7087 79.4049 64.5378 78.604 64.0714 77.9674L62.458 79.1494C62.5836 79.3207 62.7087 79.6479 62.7087 80.2504H64.7087ZM64.0714 77.9674C63.5485 77.2537 62.7681 76.9524 61.9207 76.9524V78.9524C62.2733 78.9524 62.3889 79.055 62.458 79.1494L64.0714 77.9674ZM61.9207 76.9524C61.5034 76.9524 61.0907 77.0239 60.7077 77.1986L61.5377 79.0182C61.6107 78.9849 61.73 78.9524 61.9207 78.9524V76.9524ZM60.7016 77.2014C60.3322 77.3729 60.0178 77.624 59.7685 77.9456L61.3489 79.1712C61.4036 79.1007 61.4652 79.0519 61.5438 79.0154L60.7016 77.2014ZM59.7607 77.9558C59.5196 78.2751 59.3581 78.6416 59.2558 79.0292L61.1896 79.5395C61.2393 79.3512 61.3018 79.2337 61.3567 79.161L59.7607 77.9558ZM59.2534 79.0386C59.157 79.4188 59.1147 79.8256 59.1147 80.2504H61.1147C61.1147 79.9552 61.1444 79.718 61.192 79.5301L59.2534 79.0386ZM59.1147 80.2504C59.1147 81.0933 59.2862 81.8915 59.752 82.5274L61.3654 81.3454C61.2392 81.1732 61.1147 80.8475 61.1147 80.2504H59.1147ZM59.7587 82.5364C60.289 83.2434 61.074 83.5364 61.9207 83.5364V81.5364C61.5514 81.5364 61.4284 81.4293 61.3587 81.3364L59.7587 82.5364Z" fill="#9C9C9C" />
	<path d="M23 35.7984V32.7998H28V35.7984H23Z" fill="#9C9C9C" stroke="#9C9C9C" />
	<path d="M23 43.7957V40.7971H28V43.7957H23Z" fill="#9C9C9C" stroke="#9C9C9C" />
	<path d="M23 51.7928V48.7942H28V51.7928H23Z" fill="#9C9C9C" stroke="#9C9C9C" />
	<path d="M32 35.7984V32.7998H37V35.7984H32Z" fill="#9C9C9C" stroke="#9C9C9C" />
	<path d="M32 43.7957V40.7971H37V43.7957H32Z" fill="#9C9C9C" stroke="#9C9C9C" />
	<path d="M32 51.7928V48.7942H37V51.7928H32Z" fill="#9C9C9C" stroke="#9C9C9C" />
	<path d="M45 30.8004H75.341V53.7922H45V30.8004Z" stroke="#9C9C9C" />
	<path d="M46.5 31.7997H46V32.2997V52.2929V52.7929H46.5H73.8412H74.3412V52.2929V32.2997V31.7997H73.8412H46.5ZM45 30.8004H75.3412V53.7922H45V30.8004Z" fill="#3E4244" stroke="#9C9C9C" />
	<path d="M48.3877 50.1235V34.4702H71.9527V50.1235H48.3877Z" stroke="#9C9C9C" />
	<path d="M71.4527 34.97H48.8877V49.6239H71.4527V34.97Z" stroke="#9C9C9C" stroke-width="2" />
	<path d="M54.7299 38.4857C54.7299 39.4566 53.9426 40.244 52.9709 40.244C51.9993 40.244 51.2119 39.4566 51.2119 38.4857C51.2119 37.5149 51.9993 36.7275 52.9709 36.7275C53.9426 36.7275 54.7299 37.5149 54.7299 38.4857Z" fill="#3E4244" stroke="#9C9C9C" />
	<path d="M58.9788 44.2644L62.3729 39.6118L68.0355 48.0883L51.795 48.0874L56.4332 42.6452L58.2327 44.3343L58.6453 44.7216L58.9788 44.2644Z" fill="#3E4244" stroke="#9C9C9C" />
</svg>
