<svg width="41" height="41" viewBox="0 0 41 41" fill="none" xmlns="http://www.w3.org/2000/svg">
	<rect width="41" height="41" rx="20.5" fill="#3E4244" />
	<g clip-path="url(#clip0_0_2236)">
		<path d="M13.5918 11C12.1712 11 11 12.1712 11 13.5918V17.0445C11 18.465 12.1712 19.6363 13.5918 19.6363H17.0445C18.465 19.6363 19.6363 18.4651 19.6363 17.0445V13.5918C19.6363 12.1712 18.4651 11 17.0445 11H13.5918ZM23.9557 11C22.5352 11 21.3639 12.1712 21.3639 13.5918V17.0445C21.3639 18.465 22.5351 19.6363 23.9557 19.6363H27.4114C28.832 19.6363 30.0002 18.4651 30.0002 17.0445V13.5918C30.0002 12.1712 28.8327 11 27.4114 11H23.9557ZM13.5918 12.7286H17.0445C17.5321 12.7286 17.9084 13.1049 17.9084 13.5925V17.0452C17.9084 17.5328 17.5321 17.9091 17.0445 17.9091H13.5918C13.1042 17.9091 12.7279 17.5328 12.7279 17.0452V13.5925C12.7279 13.1049 13.1042 12.7286 13.5918 12.7286ZM23.9557 12.7286H27.4114C27.8991 12.7286 28.2761 13.1049 28.2761 13.5925V17.0452C28.2761 17.5328 27.8991 17.9091 27.4114 17.9091L23.9557 17.9083C23.4681 17.9083 23.0918 17.532 23.0918 17.0444V13.5917C23.0918 13.1041 23.4681 12.7278 23.9557 12.7278V12.7286ZM13.5918 21.3639C12.1712 21.3639 11 22.5351 11 23.9557V27.4114C11 28.8319 12.1712 30.0001 13.5918 30.0001H17.0445C18.465 30.0001 19.6363 28.8327 19.6363 27.4114V23.9557C19.6363 22.5351 18.4651 21.3639 17.0445 21.3639H13.5918ZM23.9557 21.3639C22.5352 21.3639 21.3639 22.5351 21.3639 23.9557V27.4114C21.3639 28.8319 22.5351 30.0001 23.9557 30.0001H27.4114C28.832 30.0001 30.0002 28.8327 30.0002 27.4114V23.9557C30.0002 22.5351 28.8327 21.3639 27.4114 21.3639H23.9557ZM13.5918 23.0917H17.0445C17.5321 23.0917 17.9084 23.468 17.9084 23.9556V27.4113C17.9084 27.8989 17.5321 28.276 17.0445 28.276H13.5918C13.1042 28.276 12.7279 27.8989 12.7279 27.4113L12.7286 23.9556C12.7286 23.468 13.1049 23.0917 13.5925 23.0917H13.5918ZM23.9557 23.0917H27.4114C27.8991 23.0917 28.2761 23.468 28.2761 23.9556V27.4113C28.2761 27.8989 27.8991 28.276 27.4114 28.276H23.9557C23.4681 28.276 23.0918 27.8989 23.0918 27.4113V23.9556C23.0918 23.468 23.4681 23.0917 23.9557 23.0917Z" fill="white" />
	</g>
	<defs>
		<clipPath id="clip0_0_2236">
			<rect width="19" height="19" fill="white" transform="translate(11 11)" />
		</clipPath>
	</defs>
</svg>
