<svg width="27" height="33" viewBox="0 0 27 33" fill="none" xmlns="http://www.w3.org/2000/svg">
	<path d="M24.4688 9.41136V7.96867C24.4627 6.42544 23.4861 5.05128 22.0312 4.53636V4.31242C22.0312 2.29385 20.3936 0.656166 18.375 0.656166H8.625C6.60644 0.656166 4.96875 2.29385 4.96875 4.31242V4.53636C3.51385 5.05128 2.53733 6.42544 2.53125 7.96867V9.41136C1.07635 9.92628 0.099834 11.3004 0.09375 12.8437V28.6874C0.09375 30.706 1.73144 32.3437 3.75 32.3437H23.25C25.2686 32.3437 26.9062 30.706 26.9062 28.6874V12.8437C26.9002 11.3004 25.9236 9.92628 24.4688 9.41136ZM8.625 3.09375H18.375C18.698 3.09375 19.0087 3.22172 19.2372 3.45024C19.4658 3.67875 19.5937 3.98953 19.5937 4.31249H7.40623C7.40623 3.63911 7.95161 3.09374 8.62498 3.09374L8.625 3.09375ZM6.1875 6.75H20.8125C21.1355 6.75 21.4462 6.87797 21.6747 7.10649C21.9033 7.335 22.0312 7.64578 22.0312 7.96874V9.18749H4.96873V7.96874C4.96873 7.29536 5.51411 6.74999 6.18748 6.74999L6.1875 6.75ZM24.4688 28.6875C24.4688 29.0105 24.3408 29.3213 24.1123 29.5498C23.8837 29.7783 23.573 29.9062 23.25 29.9062H3.75002C3.07664 29.9062 2.53127 29.3609 2.53127 28.6875V12.8437C2.53127 12.1704 3.07664 11.625 3.75002 11.625H23.25C23.573 11.625 23.8838 11.753 24.1123 11.9815C24.3408 12.21 24.4688 12.5208 24.4688 12.8437V28.6875Z" fill="#3E4244" />
</svg>
