<svg width="22" height="22" viewBox="0 0 22 22" fill="none" xmlns="http://www.w3.org/2000/svg">
	<path d="M7.09403 7.73611H15.7391C16.2288 7.73611 16.6249 7.34791 16.6249 6.86806C16.6249 6.38818 16.2288 6 15.7391 6H7.09403C6.60436 6 6.20825 6.3882 6.20825 6.86806C6.20825 7.34793 6.60438 7.73611 7.09403 7.73611Z" fill="#3E4244" />
	<path d="M7.09403 11.2083H15.7391C16.2288 11.2083 16.6249 10.8201 16.6249 10.3402C16.6249 9.86035 16.2288 9.47217 15.7391 9.47217H7.09403C6.60436 9.47217 6.20825 9.86037 6.20825 10.3402C6.20825 10.8201 6.60438 11.2083 7.09403 11.2083Z" fill="#3E4244" />
	<path d="M7.09403 14.6804H15.7391C16.2288 14.6804 16.6249 14.2922 16.6249 13.8124C16.6249 13.3325 16.2288 12.9443 15.7391 12.9443H7.09403C6.60436 12.9443 6.20825 13.3325 6.20825 13.8124C6.20825 14.2923 6.60438 14.6804 7.09403 14.6804Z" fill="#3E4244" />
	<path d="M7.09403 18.1529H15.7391C16.2288 18.1529 16.6249 17.7647 16.6249 17.2848C16.6249 16.8049 16.2288 16.4167 15.7391 16.4167H7.09403C6.60436 16.4167 6.20825 16.805 6.20825 17.2848C6.20825 17.7647 6.60438 18.1529 7.09403 18.1529Z" fill="#3E4244" />
	<path d="M1.96181 12.7556C2.30895 13.0577 2.80744 12.9886 3.07724 12.6101L4.30125 10.8958C4.57271 10.5155 4.51513 9.96229 4.16964 9.66205C3.82579 9.35996 3.32565 9.42548 3.05421 9.80763L2.32208 10.8321L2.28753 10.8012C1.94368 10.501 1.44355 10.5646 1.17046 10.9468C0.899002 11.3271 0.958227 11.8803 1.30208 12.1824L1.96181 12.7556Z" fill="#3E4244" />
	<path d="M1.96181 19.7002C2.30895 20.0023 2.80744 19.9332 3.07724 19.5546L4.30125 17.84C4.57271 17.4595 4.51513 16.9062 4.16964 16.6059C3.82579 16.3056 3.32565 16.3693 3.05421 16.7515L2.32208 17.7763L2.28753 17.7453C1.94368 17.445 1.44355 17.5087 1.17046 17.8909C0.899002 18.2713 0.958227 18.8247 1.30208 19.1268L1.96181 19.7002Z" fill="#3E4244" />
</svg>
