<svg width="17" height="20" viewBox="0 0 17 20" fill="none" xmlns="http://www.w3.org/2000/svg">
	<path d="M14.6999 0.179199H2.29988C1.10105 0.179199 0.129883 1.15037 0.129883 2.3492V16.373L3.53988 19.783L6.01988 17.303L8.49988 19.783L10.9799 17.303L13.4599 19.783L16.8699 16.373V2.3492C16.8699 1.77399 16.641 1.22182 16.2341 0.814947C15.8273 0.408072 15.2751 0.179199 14.6999 0.179199ZM15.0099 15.6054L13.4599 17.1554L10.9799 14.6754L8.49988 17.1554L6.01988 14.6754L3.53988 17.1554L1.98988 15.6054V2.3492C1.98988 2.17846 2.12914 2.0392 2.29988 2.0392H14.6999C14.7822 2.0392 14.8609 2.0719 14.9191 2.13002C14.9772 2.18815 15.0099 2.26686 15.0099 2.3492V15.6054Z" fill="#3E4244" />
	<path d="M4.15991 5.44922H8.49991V7.30922H4.15991V5.44922Z" fill="#3E4244" />
	<path d="M4.15991 9.78931H8.49991V11.6493H4.15991V9.78931Z" fill="#3E4244" />
	<path d="M10.98 9.78931H12.84V11.6493H10.98V9.78931Z" fill="#3E4244" />
	<path d="M10.98 5.44922H12.84V7.30922H10.98V5.44922Z" fill="#3E4244" />
</svg>
