<svg width="53" height="54" viewBox="0 0 53 54" fill="none" xmlns="http://www.w3.org/2000/svg">
	<path d="M14.8399 24.8399H21.1999C22.9555 24.8399 24.3799 23.3886 24.3799 21.5999V15.1199C24.3799 13.3311 22.9555 11.8799 21.1999 11.8799H14.8399C13.0843 11.8799 11.6599 13.3311 11.6599 15.1199V21.5999C11.6599 23.3886 13.0843 24.8399 14.8399 24.8399ZM15.8999 16.1999H20.1399V20.5199H15.8999V16.1999Z" fill="#1E55A9" />
	<path d="M11.6599 38.8799C11.6599 40.6687 13.0843 42.1199 14.8399 42.1199H21.1999C22.9555 42.1199 24.3799 40.6687 24.3799 38.8799V32.3999C24.3799 30.6112 22.9555 29.1599 21.1999 29.1599H14.8399C13.0843 29.1599 11.6599 30.6112 11.6599 32.3999V38.8799ZM15.8999 33.4799H20.1399V37.7999H15.8999V33.4799Z" fill="#1E55A9" />
	<path d="M38.1599 24.8399C39.9155 24.8399 41.3399 23.3886 41.3399 21.5999V15.1199C41.3399 13.3311 39.9155 11.8799 38.1599 11.8799H31.7999C30.0442 11.8799 28.6199 13.3311 28.6199 15.1199V21.5999C28.6199 23.3886 30.0442 24.8399 31.7999 24.8399H38.1599ZM32.8599 16.1999H37.0999V20.5199H32.8599V16.1999Z" fill="#1E55A9" />
	<path d="M32.8599 33.48H37.0999V37.8H32.8599V33.48Z" fill="#1E55A9" />
	<path d="M37.0999 29.1599H41.3399V33.4799H37.0999V29.1599Z" fill="#1E55A9" />
	<path d="M28.6199 29.1599H32.8599V33.4799H28.6199V29.1599Z" fill="#1E55A9" />
	<path d="M37.0999 37.7998H41.3399V42.1198H37.0999V37.7998Z" fill="#1E55A9" />
	<path d="M28.6199 37.7998H32.8599V42.1198H28.6199V37.7998Z" fill="#1E55A9" />
</svg>
