<svg width="16" height="20" viewBox="0 0 16 20" fill="none" xmlns="http://www.w3.org/2000/svg">
	<path d="M12.8126 8.31658V5.42908C12.8126 2.77544 10.6539 0.616577 8.00011 0.616577C5.34636 0.616577 3.18761 2.77533 3.18761 5.42908V8.31658C1.8616 8.31658 0.78125 9.39682 0.78125 10.7229V16.9793C0.78125 18.3053 1.86149 19.3857 3.18761 19.3857H12.8126C14.1386 19.3857 15.219 18.3054 15.219 16.9793V10.7229C15.219 9.39519 14.1387 8.31658 12.8126 8.31658ZM4.15011 5.42732C4.15011 3.30467 5.87746 1.57732 8.00011 1.57732C10.1228 1.57732 11.8501 3.30467 11.8501 5.42732V8.31482H4.15011V5.42732ZM14.2565 16.9773C14.2565 17.774 13.6094 18.4211 12.8127 18.4211H3.18772C2.39108 18.4211 1.74397 17.774 1.74397 16.9773V10.721C1.74397 9.92431 2.39108 9.27721 3.18772 9.27721H12.8127C13.6094 9.27721 14.2565 9.92431 14.2565 10.721V16.9773Z" fill="#504B70" />
</svg>
