<svg width="22" height="22" viewBox="0 0 22 22" fill="none" xmlns="http://www.w3.org/2000/svg">
	<path d="M4.53996 21.73C2.36898 21.73 0.609961 19.971 0.609961 17.8V6.92C0.609961 4.74901 2.36898 2.99 4.53996 2.99H10.51V5.41H4.53996C3.70541 5.41 3.02996 6.08545 3.02996 6.92V17.8C3.02996 18.6345 3.70541 19.31 4.53996 19.31H15.42C15.8211 19.31 16.2045 19.1507 16.4876 18.8676C16.7707 18.5845 16.93 18.2011 16.93 17.8V11.49H19.35V17.8C19.35 19.971 17.5909 21.73 15.42 21.73H4.53996Z" fill="#3E4244" stroke="white" stroke-width="0.3" />
	<path d="M17.4597 0.459999C15.8089 0.459999 14.3214 1.45344 13.6905 2.97811C13.0583 4.5028 13.4076 6.25856 14.575 7.42462C15.7411 8.59205 17.4969 8.94133 19.0215 8.30917C20.5462 7.6783 21.5397 6.1908 21.5397 4.53993C21.5397 2.2861 19.7136 0.459999 17.4597 0.459999Z" fill="#ECA0A0" />
</svg>
