<svg width="20" height="18" viewBox="0 0 20 18" fill="none" xmlns="http://www.w3.org/2000/svg">
	<path d="M12.33 17.0991H12.12C11.6968 17.0545 11.2979 16.8676 10.9814 16.5655C10.6649 16.2635 10.4472 15.8621 10.36 15.4196L7.68 2.21706L4.92 9.02029C4.84193 9.21044 4.71323 9.37215 4.54975 9.48548C4.38627 9.59881 4.19517 9.65882 4 9.65809H1C0.734784 9.65809 0.48043 9.5461 0.292893 9.34675C0.105357 9.14739 0 8.87702 0 8.59509C0 8.31316 0.105357 8.04278 0.292893 7.84343C0.48043 7.64408 0.734784 7.53208 1 7.53208H3.34L5.85 1.37729C6.01896 0.964274 6.30695 0.618966 6.67244 0.391154C7.03793 0.163342 7.46203 0.0647979 7.88361 0.10973C8.30518 0.154661 8.70244 0.340747 9.01811 0.641157C9.33377 0.941567 9.55154 1.34078 9.64 1.78123L12.32 14.9731L15.08 8.19115C15.155 7.99702 15.2824 7.83085 15.4461 7.71356C15.6099 7.59628 15.8026 7.53313 16 7.53208H19C19.2652 7.53208 19.5196 7.64408 19.7071 7.84343C19.8946 8.04278 20 8.31316 20 8.59509C20 8.87702 19.8946 9.14739 19.7071 9.34675C19.5196 9.5461 19.2652 9.65809 19 9.65809H16.66L14.15 15.8129C13.9967 16.1919 13.7431 16.5152 13.4199 16.7436C13.0967 16.972 12.718 17.0955 12.33 17.0991Z" fill="#3E4244" />
</svg>
