<svg width="18" height="17" viewBox="0 0 18 17" fill="none" xmlns="http://www.w3.org/2000/svg">
	<g clip-path="url(#clip0_874_12803)">
		<path d="M15.0804 2.78766C14.7785 2.4988 14.2988 2.4988 13.9961 2.78766C13.6942 3.07653 13.6942 3.53539 13.9961 3.82493C16.6971 6.40876 16.6971 10.6076 13.9961 13.1923C13.6942 13.4811 13.6942 13.94 13.9961 14.2295C14.1384 14.3657 14.3335 14.4507 14.5292 14.4507C14.725 14.4507 14.9201 14.3829 15.0624 14.2295C18.3681 11.0672 18.3681 5.9327 15.0804 2.7877L15.0804 2.78766Z" fill="#1E55A9" />
		<path d="M12.539 5.20234C12.2371 4.91347 11.7574 4.91347 11.4547 5.20234C11.1528 5.4912 11.1528 5.95006 11.4547 6.23961C12.7521 7.48074 12.7695 9.52078 11.4547 10.7619C11.1528 11.0508 11.1528 11.5097 11.4547 11.7992C11.597 11.9354 11.7921 12.0204 11.9879 12.0204C12.1836 12.0204 12.3787 11.9526 12.521 11.7992C14.4583 9.97903 14.4404 7.02137 12.539 5.20237L12.539 5.20234Z" fill="#1E55A9" />
		<path d="M4.22221 3.8251C4.52417 3.53624 4.52417 3.07737 4.22221 2.78783C3.92025 2.49897 3.44058 2.49897 3.13792 2.78783C-0.14965 5.93283 -0.14965 11.0667 3.13792 14.2117C3.28022 14.3478 3.47527 14.4328 3.67103 14.4328C3.8668 14.4328 4.06185 14.3651 4.20415 14.2117C4.50611 13.9228 4.50611 13.4639 4.20415 13.1744C1.52114 10.6077 1.52114 6.4089 4.2222 3.82507L4.22221 3.8251Z" fill="#1E55A9" />
		<path d="M6.74548 6.23883C7.04744 5.94997 7.04744 5.4911 6.74548 5.20156C6.44352 4.91269 5.96386 4.91269 5.66119 5.20156C3.75991 7.02039 3.75991 9.9789 5.66119 11.7977C5.80349 11.9339 5.99855 12.0189 6.19431 12.0189C6.39007 12.0189 6.58512 11.9511 6.72743 11.7977C7.02939 11.5089 7.02939 11.05 6.72743 10.7605C5.44808 9.51998 5.44808 7.47996 6.74547 6.23879L6.74548 6.23883Z" fill="#1E55A9" />
		<path d="M10.4066 8.5C10.4066 9.18531 9.82555 9.74114 9.10917 9.74114C8.39278 9.74114 7.81177 9.18532 7.81177 8.5C7.81177 7.81468 8.39278 7.25887 9.10917 7.25887C9.82555 7.25887 10.4066 7.81468 10.4066 8.5Z" fill="#1E55A9" />
	</g>
	<defs>
		<clipPath id="clip0_874_12803">
			<rect width="17.7706" height="17" fill="white" transform="translate(0.223877)" />
		</clipPath>
	</defs>
</svg>
