<svg width="18" height="17" viewBox="0 0 18 17" fill="none" xmlns="http://www.w3.org/2000/svg">
	<g clip-path="url(#clip0_897_9068)">
		<path d="M15.0804 2.78763C14.7785 2.49877 14.2988 2.49877 13.9961 2.78763C13.6942 3.0765 13.6942 3.53536 13.9961 3.8249C16.6971 6.40873 16.6971 10.6076 13.9961 13.1922C13.6942 13.4811 13.6942 13.94 13.9961 14.2295C14.1384 14.3656 14.3335 14.4506 14.5292 14.4506C14.725 14.4506 14.9201 14.3829 15.0624 14.2295C18.3681 11.0672 18.3681 5.93266 15.0804 2.78767L15.0804 2.78763Z" fill="#3E4244" />
		<path d="M12.539 5.2023C12.2371 4.91344 11.7574 4.91344 11.4547 5.2023C11.1528 5.49117 11.1528 5.95003 11.4547 6.23958C12.7521 7.48071 12.7695 9.52075 11.4547 10.7619C11.1528 11.0508 11.1528 11.5096 11.4547 11.7992C11.597 11.9353 11.7921 12.0203 11.9879 12.0203C12.1836 12.0203 12.3787 11.9526 12.521 11.7992C14.4583 9.979 14.4404 7.02134 12.539 5.20234L12.539 5.2023Z" fill="#3E4244" />
		<path d="M4.22221 3.82509C4.52417 3.53622 4.52417 3.07736 4.22221 2.78781C3.92025 2.49895 3.44058 2.49895 3.13792 2.78781C-0.14965 5.93281 -0.14965 11.0666 3.13792 14.2116C3.28022 14.3478 3.47527 14.4328 3.67103 14.4328C3.8668 14.4328 4.06185 14.365 4.20415 14.2116C4.50611 13.9228 4.50611 13.4639 4.20415 13.1744C1.52114 10.6077 1.52114 6.40888 4.2222 3.82505L4.22221 3.82509Z" fill="#3E4244" />
		<path d="M6.74548 6.23878C7.04744 5.94992 7.04744 5.49106 6.74548 5.20151C6.44352 4.91265 5.96386 4.91265 5.66119 5.20151C3.75991 7.02034 3.75991 9.97885 5.66119 11.7977C5.80349 11.9338 5.99855 12.0188 6.19431 12.0188C6.39007 12.0188 6.58512 11.9511 6.72743 11.7977C7.02939 11.5088 7.02939 11.05 6.72743 10.7604C5.44808 9.51994 5.44808 7.47992 6.74547 6.23875L6.74548 6.23878Z" fill="#3E4244" />
		<path d="M10.4066 8.49999C10.4066 9.18529 9.82555 9.74112 9.10917 9.74112C8.39278 9.74112 7.81177 9.18531 7.81177 8.49999C7.81177 7.81467 8.39278 7.25885 9.10917 7.25885C9.82555 7.25885 10.4066 7.81467 10.4066 8.49999Z" fill="#3E4244" />
	</g>
	<defs>
		<clipPath id="clip0_897_9068">
			<rect width="17.7706" height="17" fill="white" transform="translate(0.223877)" />
		</clipPath>
	</defs>
</svg>
