<svg width="53" height="52" viewBox="0 0 53 52" fill="none" xmlns="http://www.w3.org/2000/svg">
	<g clip-path="url(#clip0_4102_39)">
		<rect x="0.353149" width="52" height="52" rx="8" fill="white" />
		<rect x="0.353149" width="52" height="52" rx="8" fill="#1E55A9" fill-opacity="0.08" />
		<path d="M27.3531 19.1152C26.6383 19.1152 25.9762 19.291 25.3668 19.6426C24.7692 19.9941 24.2946 20.4746 23.943 21.084C23.5914 21.6816 23.4156 22.3379 23.4156 23.0527C23.4156 23.7324 23.568 24.3652 23.8727 24.9512C24.1891 25.5254 24.6168 25.9824 25.1559 26.3223C24.4879 26.5801 23.8903 26.9668 23.3629 27.4824C22.8473 27.998 22.443 28.5957 22.15 29.2754C21.8688 29.9551 21.7281 30.6758 21.7281 31.4375H22.8531C22.8531 30.6289 23.0524 29.8789 23.4508 29.1875C23.861 28.4961 24.4117 27.9512 25.1031 27.5527C25.7946 27.1426 26.5446 26.9375 27.3531 26.9375C27.5758 26.9375 27.8746 26.9727 28.2496 27.043L28.3375 26.9551C28.0211 27.3418 27.775 27.7754 27.5992 28.2559C27.4352 28.7363 27.3531 29.2344 27.3531 29.75C27.3531 30.5586 27.5524 31.3086 27.9508 32C28.361 32.6914 28.9117 33.2363 29.6031 33.6348C30.2946 34.0449 31.0446 34.25 31.8531 34.25C32.6617 34.25 33.4117 34.0449 34.1031 33.6348C34.7946 33.2363 35.3395 32.6914 35.7379 32C36.1481 31.3086 36.3531 30.5586 36.3531 29.75C36.3531 28.9414 36.1481 28.1914 35.7379 27.5C35.3395 26.8086 34.7946 26.2637 34.1031 25.8652C33.4117 25.4551 32.6617 25.25 31.8531 25.25C31.3727 25.25 30.8981 25.332 30.4293 25.4961C30.6989 25.1562 30.9098 24.7754 31.0621 24.3535C31.2145 23.9199 31.2906 23.4863 31.2906 23.0527C31.2906 22.3379 31.1149 21.6816 30.7633 21.084C30.4117 20.4746 29.9313 19.9941 29.3219 19.6426C28.7242 19.291 28.068 19.1152 27.3531 19.1152ZM27.3531 20.1875C27.8688 20.1875 28.3375 20.3164 28.7594 20.5742C29.193 20.8203 29.5328 21.1602 29.7789 21.5938C30.0367 22.0156 30.1656 22.4844 30.1656 23C30.1656 23.5156 30.0367 23.9902 29.7789 24.4238C29.5328 24.8457 29.193 25.1855 28.7594 25.4434C28.3375 25.6895 27.8688 25.8125 27.3531 25.8125C26.8375 25.8125 26.3629 25.6895 25.9293 25.4434C25.5074 25.1855 25.1676 24.8457 24.9098 24.4238C24.6637 23.9902 24.5406 23.5156 24.5406 23C24.5406 22.4844 24.6637 22.0156 24.9098 21.5938C25.1676 21.1602 25.5074 20.8203 25.9293 20.5742C26.3629 20.3164 26.8375 20.1875 27.3531 20.1875ZM29.1989 26.1289C29.1871 26.1289 29.1813 26.1348 29.1813 26.1465L29.1461 26.1641L29.1989 26.1289ZM31.8531 26.375C32.4625 26.375 33.025 26.5273 33.5406 26.832C34.0563 27.1367 34.4664 27.5469 34.7711 28.0625C35.0758 28.5781 35.2281 29.1406 35.2281 29.75C35.2281 30.3594 35.0758 30.9219 34.7711 31.4375C34.4664 31.9531 34.0563 32.3633 33.5406 32.668C33.025 32.9727 32.4625 33.125 31.8531 33.125C31.2438 33.125 30.6813 32.9727 30.1656 32.668C29.65 32.3633 29.2399 31.9531 28.9352 31.4375C28.6305 30.9219 28.4781 30.3594 28.4781 29.75C28.4781 29.1406 28.6305 28.5781 28.9352 28.0625C29.2399 27.5469 29.65 27.1367 30.1656 26.832C30.6813 26.5273 31.2438 26.375 31.8531 26.375ZM28.7594 26.498C28.6891 26.5566 28.6188 26.627 28.5485 26.709L28.7594 26.498ZM31.2906 27.5V30.084L30.3414 31.0508L31.1149 31.8242L32.4156 30.541V27.5H31.2906Z" fill="#1E55A9" />
	</g>
	<defs>
		<clipPath id="clip0_4102_39">
			<rect width="52" height="52" fill="white" transform="translate(0.353149)" />
		</clipPath>
	</defs>
</svg>
