<svg width="53" height="52" viewBox="0 0 53 52" fill="none" xmlns="http://www.w3.org/2000/svg">
	<g clip-path="url(#clip0_4102_23)">
		<rect x="0.353149" width="52" height="52" rx="8" fill="white" />
		<rect x="0.353149" width="52" height="52" rx="8" fill="#1E55A9" fill-opacity="0.08" />
		<path d="M30.7281 18.9375C30.1188 18.9375 29.5563 19.0898 29.0406 19.3945C28.525 19.6992 28.1149 20.1094 27.8102 20.625C27.5055 21.1406 27.3531 21.7031 27.3531 22.3125C27.3531 22.5703 27.4 22.8516 27.4938 23.1562C27.5641 23.4023 27.6813 23.707 27.8453 24.0703C28.1031 24.668 28.4313 25.3066 28.8297 25.9863C29.3102 26.8066 29.7906 27.5625 30.2711 28.2539L30.7281 28.9219L31.6422 27.5859C32.0055 27.0352 32.3336 26.502 32.6266 25.9863C33.025 25.3066 33.3531 24.668 33.611 24.0703C33.775 23.707 33.8922 23.4023 33.9625 23.1562C34.0563 22.8516 34.1031 22.5703 34.1031 22.3125C34.1031 21.7031 33.9508 21.1406 33.6461 20.625C33.3414 20.1094 32.9313 19.6992 32.4156 19.3945C31.9 19.0898 31.3375 18.9375 30.7281 18.9375ZM25.0856 20.0273L20.6031 21.9434V32.7363L25.1207 30.7852L29.6207 32.4727L34.1031 30.5566V25.6523C33.8102 26.2148 33.4352 26.8594 32.9781 27.5859V29.8184L30.1656 31.0137V30.0996L29.0406 28.4648V31.0664L25.6656 29.8008V21.4336L26.2809 21.6621C26.3395 21.2754 26.4391 20.9121 26.5797 20.5723L25.0856 20.0273ZM30.7281 20.0625C31.1383 20.0625 31.5133 20.1621 31.8531 20.3613C32.2047 20.5605 32.4801 20.8359 32.6793 21.1875C32.8785 21.5273 32.9781 21.9023 32.9781 22.3125C32.9781 22.4297 32.943 22.6113 32.8727 22.8574C32.8024 23.0918 32.7086 23.3438 32.5914 23.6133C32.3805 24.0938 32.0641 24.6973 31.6422 25.4238C31.3727 25.8809 31.0973 26.3203 30.816 26.7422L30.7281 26.8828L30.6403 26.7422C30.359 26.3203 30.0836 25.8809 29.8141 25.4238C29.3922 24.6973 29.0758 24.0938 28.8649 23.6133C28.7477 23.3438 28.6539 23.0918 28.5836 22.8574C28.5133 22.6113 28.4781 22.4297 28.4781 22.3125C28.4781 21.9023 28.5778 21.5273 28.777 21.1875C28.9762 20.8359 29.2457 20.5605 29.5856 20.3613C29.9371 20.1621 30.318 20.0625 30.7281 20.0625ZM24.5406 21.4688V29.8184L21.7281 31.0137V22.6816L24.5406 21.4688ZM30.7281 21.4688C30.4938 21.4688 30.2946 21.5508 30.1305 21.7148C29.9664 21.8789 29.8844 22.0781 29.8844 22.3125C29.8844 22.5469 29.9664 22.7461 30.1305 22.9102C30.2946 23.0742 30.4938 23.1562 30.7281 23.1562C30.9625 23.1562 31.1617 23.0742 31.3258 22.9102C31.4899 22.7461 31.5719 22.5469 31.5719 22.3125C31.5719 22.0781 31.4899 21.8789 31.3258 21.7148C31.1617 21.5508 30.9625 21.4688 30.7281 21.4688Z" fill="#1E55A9" />
	</g>
	<defs>
		<clipPath id="clip0_4102_23">
			<rect width="52" height="52" fill="white" transform="translate(0.353149)" />
		</clipPath>
	</defs>
</svg>
