<svg width="53" height="52" viewBox="0 0 53 52" fill="none" xmlns="http://www.w3.org/2000/svg">
	<g clip-path="url(#clip0_4102_15)">
		<rect x="0.353149" width="52" height="52" rx="8" fill="white" />
		<rect x="0.353149" width="52" height="52" rx="8" fill="#1E55A9" fill-opacity="0.08" />
		<path d="M21.7281 18.9375V33.5625H30.7281V32.4375H22.8531V20.0625H28.4781V23.4375H31.8531V24.5625H32.9781V22.6465L29.2692 18.9375H21.7281ZM29.6031 20.8535L31.0621 22.3125H29.6031V20.8535ZM23.9781 24.5625V25.6875H30.7281V24.5625H23.9781ZM33.5406 25.6875V26.8125C33.0602 26.8945 32.6559 27.1172 32.3278 27.4805C32.0114 27.8438 31.8531 28.2773 31.8531 28.7812C31.8531 29.3438 32.0406 29.8125 32.4156 30.1875C32.7906 30.5625 33.2594 30.75 33.8219 30.75H34.3844C34.6071 30.75 34.8004 30.8379 34.9645 31.0137C35.1403 31.1777 35.2281 31.3711 35.2281 31.5938C35.2281 31.8164 35.1403 32.0156 34.9645 32.1914C34.8004 32.3555 34.6071 32.4375 34.3844 32.4375H32.4156V33.5625H33.5406V34.6875H34.6656V33.5625C35.1461 33.4805 35.5446 33.2578 35.861 32.8945C36.1891 32.5312 36.3531 32.0977 36.3531 31.5938C36.3531 31.0312 36.1656 30.5625 35.7906 30.1875C35.4156 29.8125 34.9469 29.625 34.3844 29.625H33.8219C33.5992 29.625 33.4 29.543 33.2242 29.3789C33.0602 29.2031 32.9781 29.0039 32.9781 28.7812C32.9781 28.5586 33.0602 28.3652 33.2242 28.2012C33.4 28.0254 33.5992 27.9375 33.8219 27.9375H35.7906V26.8125H34.6656V25.6875H33.5406ZM23.9781 27.375V28.5H27.9156V27.375H23.9781ZM29.0406 27.375V28.5H30.7281V27.375H29.0406ZM23.9781 29.625V30.75H27.9156V29.625H23.9781ZM29.0406 29.625V30.75H30.7281V29.625H29.0406Z" fill="#1E55A9" />
	</g>
	<defs>
		<clipPath id="clip0_4102_15">
			<rect width="52" height="52" fill="white" transform="translate(0.353149)" />
		</clipPath>
	</defs>
</svg>
