<svg width="18" height="13" viewBox="0 0 18 13" fill="none" xmlns="http://www.w3.org/2000/svg">
	<path d="M2.14011 8.76159C2.94651 9.32263 3.92117 9.70691 4.736 9.89264C5.84813 10.1437 7.14114 10.2705 8.45113 10.2718C10.5001 10.2731 13.4397 9.95155 15.145 8.76156C15.8785 9.14841 15.6681 10.063 15.1969 10.387C13.7636 11.3119 11.2549 11.8511 8.65452 11.8242H8.6405C6.03901 11.8524 3.51191 11.3349 2.0981 10.387C1.3983 9.9195 1.44738 9.17913 2.14017 8.76156L2.14011 8.76159ZM8.64733 3.11652C11.5293 3.11652 13.8391 5.24925 14.0254 7.9559C13.0241 8.61302 10.755 9.10745 8.4549 9.0985C7.23057 9.09466 6.02032 8.97553 5.04142 8.7552C4.17051 8.55922 3.60534 8.26205 3.26036 7.99178C3.43006 5.26725 5.75106 3.11665 8.64708 3.11665L8.64733 3.11652ZM7.47632 3.25234e-05C7.01915 3.25234e-05 6.65169 0.335622 6.65169 0.740402C6.65169 1.14262 6.85925 1.33219 7.1145 1.33219H8.03309V1.97009C4.83276 2.24292 2.28591 4.63313 1.95346 7.62009C1.76834 7.64314 1.59444 7.6931 1.44017 7.76611C1.02224 7.96978 0.710933 8.30409 0.508949 8.69992C0.305597 9.09571 0.21865 9.57352 0.340659 10.0564C0.461268 10.5381 0.807671 11.0094 1.3602 11.3476C3.1581 12.5145 5.8605 13.0294 8.64721 12.9987C11.4338 13.0294 14.1348 12.5145 15.9328 11.3476C16.4853 11.0107 16.8317 10.5393 16.9552 10.0564C17.0758 9.57221 16.9874 9.09571 16.7869 8.69992C16.5821 8.30412 16.2736 7.96978 15.8528 7.76611C15.7014 7.6931 15.5275 7.64314 15.3424 7.62137C15.01 4.63297 12.4632 2.24288 9.26416 1.97006V1.33216H10.1799C10.4366 1.33216 10.6428 1.14259 10.6428 0.74037C10.6428 0.336869 10.2753 0 9.81813 0L7.47632 3.25234e-05Z" fill="#3E4244" />
</svg>
