<svg width="16" height="13" viewBox="0 0 16 13" fill="none" xmlns="http://www.w3.org/2000/svg">
	<path d="M1.77499 8.76159C2.54641 9.32263 3.47881 9.70691 4.2583 9.89264C5.32221 10.1437 6.55914 10.2705 7.81232 10.2718C9.77239 10.2731 12.5846 9.95155 14.2159 8.76156C14.9176 9.14841 14.7164 10.063 14.2656 10.387C12.8945 11.3119 10.4945 11.8511 8.0069 11.8242H7.99348C5.50481 11.8524 3.0873 11.3349 1.73479 10.387C1.06534 9.9195 1.11223 9.17916 1.77499 8.76159ZM8.00002 3.11652C10.757 3.11652 12.9666 5.24925 13.1449 7.9559C12.187 8.61302 10.0163 9.10745 7.81593 9.0985C6.64469 9.09465 5.48692 8.97553 4.55047 8.7552C3.71733 8.55922 3.17667 8.26205 2.84665 7.99178C3.00899 5.26725 5.22958 3.11652 8.00002 3.11652ZM6.87979 3.25234e-05C6.44244 3.25234e-05 6.09092 0.335622 6.09092 0.740402C6.09092 1.14262 6.28947 1.33219 6.53366 1.33219H7.41241V1.97009C4.35086 2.24292 1.91446 4.63313 1.59643 7.62009C1.41934 7.64314 1.25298 7.6931 1.1054 7.76611C0.705585 7.96978 0.40778 8.30409 0.214555 8.69992C0.0200217 9.09571 -0.063155 9.57352 0.053563 10.0564C0.168942 10.5381 0.500323 11.0094 1.02889 11.3476C2.74882 12.5145 5.33404 13.0294 7.9999 12.9987C10.6657 13.0294 13.2495 12.5145 14.9695 11.3476C15.4981 11.0107 15.8295 10.5393 15.9476 10.0564C16.0629 9.57221 15.9784 9.09571 15.7866 8.69992C15.5907 8.30412 15.2955 7.96978 14.8931 7.76611C14.7482 7.6931 14.5818 7.64314 14.4047 7.62137C14.0867 4.63297 11.6504 2.24288 8.5901 1.97006V1.33216H9.46617C9.71168 1.33216 9.90891 1.14259 9.90891 0.74037C9.90891 0.336869 9.55742 0 9.12004 0L6.87979 3.25234e-05Z" fill="#1E55A9" />
</svg>
