<svg width="18" height="19" viewBox="0 0 18 19" fill="none" xmlns="http://www.w3.org/2000/svg">
	<path d="M4.4377 11.0605C2.71679 10.6404 1.29914 9.41526 0.635919 7.76605C-0.0462705 6.06968 0.158015 4.14496 1.18095 2.62953L1.18098 2.62948C2.20455 1.11415 3.91342 0.205759 5.74188 0.205029L5.74196 0.205029L8.82932 0.205029C10.7978 0.205029 12.6168 1.25567 13.601 2.96001L13.601 2.96005C14.5852 4.66512 14.5852 6.76562 13.601 8.47002L4.4377 11.0605ZM4.4377 11.0605C4.45448 11.4596 4.40567 11.8588 4.29226 12.2426C4.17236 12.6405 4.30138 13.0712 4.61976 13.3383L4.62021 13.3386C4.93907 13.6045 5.3851 13.6562 5.75596 13.4687C6.58172 13.0616 7.68511 12.3377 8.39163 11.225H8.82932C10.7978 11.225 12.6166 10.1751 13.601 8.47005L4.4377 11.0605ZM5.73757 1.51417C4.3305 1.54379 3.03128 2.27546 2.27628 3.46393L2.27625 3.46397C1.51983 4.65402 1.4104 6.1448 1.98496 7.43285L1.98497 7.43286C2.55915 8.72041 3.74045 9.63504 5.13041 9.86845C5.41175 9.91074 5.63428 10.1309 5.67722 10.413C5.67726 10.4132 5.6773 10.4135 5.67734 10.4137L5.47958 10.4436L5.73757 1.51417ZM5.73757 1.51417H5.74179H8.83419C10.3385 1.51417 11.7286 2.31633 12.4804 3.61913L12.4804 3.61919C13.2329 4.92206 13.2329 6.52628 12.4804 7.82914L12.4804 7.82921C11.7286 9.13201 10.3385 9.93417 8.83419 9.93417H8.02434C7.78862 9.9308 7.57006 10.0547 7.45176 10.2589L7.45161 10.2588L7.44775 10.2662C7.0356 11.0511 6.32756 11.6306 5.67052 12.0301L5.73757 1.51417ZM13.4114 16.323C13.0376 16.0513 12.7234 15.7034 12.4904 15.3011C12.3755 15.0917 12.156 14.9628 11.9178 14.9636H11.9181L13.4114 16.323ZM13.4114 16.323C13.393 16.0395 13.406 15.7544 13.4502 15.4722C13.4933 15.1901 13.7158 14.9693 13.9984 14.9277L13.9985 14.9277C14.8428 14.8041 15.5898 14.3129 16.0376 13.5863L16.0376 13.5863C16.4854 12.8597 16.5886 11.9721 16.319 11.1621L13.4114 16.323ZM9.45213 4.79885C9.65604 4.65681 9.70666 4.37626 9.56463 4.17165C9.42189 3.96704 9.14134 3.91712 8.93674 4.05915M9.45213 4.79885L6.76464 6.06053C7.39221 5.2964 8.12356 4.62237 8.93674 4.05915M9.45213 4.79885C8.49448 5.4626 7.66268 6.29159 6.99675 7.24721M9.45213 4.79885L6.99675 7.24721M8.93674 4.05915L8.82286 3.89474M8.93674 4.05915L8.82269 3.89486C8.82275 3.89482 8.82281 3.89478 8.82286 3.89474M8.82286 3.89474C9.11788 3.69008 9.52276 3.76207 9.72866 4.05722L9.72893 4.0576C9.93388 4.35285 9.86088 4.75786 9.56645 4.96295L9.56606 4.96322C8.62792 5.61345 7.81312 6.42551 7.16084 7.36155L7.16046 7.36209C7.03905 7.5351 6.84044 7.63986 6.62761 7.63986H6.60792H6.59879L6.5988 7.63965C6.37724 7.62953 6.1753 7.50802 6.06359 7.31507L6.06336 7.31467C5.8222 6.89592 5.47561 6.54933 5.05686 6.30817L5.05628 6.30784C4.74728 6.12851 4.63898 5.73269 4.81807 5.42131L4.84182 5.38001L4.84569 5.37746M8.82286 3.89474C8.00278 4.46274 7.26441 5.14134 6.62943 5.91011C6.35865 5.62364 6.04712 5.37813 5.70502 5.18159L5.70467 5.18139C5.40921 5.01242 5.0354 5.10048 4.84569 5.37746M4.84569 5.37746C4.83603 5.39157 4.82685 5.40616 4.81818 5.42123L4.99129 5.5208L4.99155 5.52095L4.88177 5.35377L4.88165 5.35385L4.84569 5.37746ZM6.99675 7.24721C6.91238 7.36744 6.77456 7.43986 6.62761 7.43986M6.99675 7.24721L6.62761 7.43986M6.62761 7.43986H6.60792H6.62761ZM9.74409 14.4908C9.27327 14.1817 8.90373 13.7425 8.67948 13.2262C8.53617 12.8961 8.15231 12.746 7.82349 12.8891L7.82322 12.8892C7.4936 13.0332 7.34339 13.4159 7.48638 13.7455L7.48648 13.7458C7.81211 14.4937 8.3489 15.1302 9.03111 15.5776L9.03123 15.5777C9.71345 16.0245 10.5117 16.2622 11.3276 16.2615H11.3274L9.74409 14.4908ZM11.5506 16.2615C12.0921 17.0608 12.891 17.5781 13.489 17.8816L13.4892 17.8817C13.8214 18.05 14.223 18.0043 14.5093 17.7654L14.5095 17.7652C14.795 17.5263 14.9114 17.139 14.8041 16.7818C14.7387 16.5631 14.7042 16.3363 14.7014 16.1081C15.5534 15.8673 16.3088 15.3635 16.8591 14.6667C17.4261 13.9489 17.7426 13.0667 17.7632 12.1542L17.764 12.1533L17.7642 12.079C17.7672 11.2398 17.5153 10.4199 17.0433 9.72639C16.5713 9.03273 15.9005 8.49873 15.1192 8.19298L15.1051 8.18745L15.0903 8.18412C14.7796 8.11406 14.4637 8.27953 14.3447 8.57581C14.2248 8.87205 14.3391 9.2103 14.6119 9.37461L14.6261 9.38315L14.6415 9.38924C15.4352 9.70353 16.0494 10.3526 16.319 11.162L11.5506 16.2615Z" fill="#504B70" stroke="#504B70" stroke-width="0.4" />
</svg>
