<svg width="16" height="11" viewBox="0 0 16 11" fill="none" xmlns="http://www.w3.org/2000/svg">
	<g clip-path="url(#clip0_897_9534)">
		<path fill-rule="evenodd" clip-rule="evenodd" d="M14.2784 2.74999V10.0835C14.2784 10.3262 14.1498 10.5596 13.9211 10.7314C13.6924 10.9033 13.382 11 13.0585 11H3.30244C2.62845 11 2.08252 10.5896 2.08252 10.0835V2.74999C1.40909 2.74999 0.863159 2.33963 0.863159 1.83347V0.91652C0.863159 0.410344 1.4091 0 2.08252 0H14.2784C14.6014 0 14.9118 0.0966801 15.1405 0.268554C15.3692 0.440428 15.4978 0.67375 15.4978 0.91652V1.83347C15.4978 2.07624 15.3692 2.30956 15.1405 2.48143C14.9118 2.65331 14.6014 2.74999 14.2784 2.74999H14.2784ZM3.30243 10.0835H13.059L13.0585 2.74999H3.30244L3.30243 10.0835ZM14.2784 0.916949L2.08249 0.916519V1.83304H14.2778V0.916519L14.2784 0.916949ZM9.40039 6.41695H6.96109V6.41652C5.95039 6.41652 5.13176 5.8012 5.13176 5.04152C5.13176 4.28227 5.95039 3.66652 6.96109 3.66652H9.40039H9.39981C10.4105 3.66652 11.2291 4.28227 11.2291 5.04152C11.2291 5.8012 10.4105 6.41652 9.39981 6.41652L9.40039 6.41695ZM9.40039 4.58347H6.96109C6.62437 4.58347 6.35112 4.78843 6.35112 5.04152C6.35112 5.29461 6.62437 5.5 6.96109 5.5H9.40039H9.39981C9.73653 5.5 10.0098 5.29461 10.0098 5.04152C10.0098 4.78843 9.73653 4.58347 9.39981 4.58347H9.40039Z" fill="#1E55A9" />
	</g>
	<defs>
		<clipPath id="clip0_897_9534">
			<rect width="14.6346" height="11" fill="white" transform="translate(0.863037)" />
		</clipPath>
	</defs>
</svg>
