<svg width="16" height="11" viewBox="0 0 16 11" fill="none" xmlns="http://www.w3.org/2000/svg">
	<g clip-path="url(#clip0_874_12818)">
		<path fill-rule="evenodd" clip-rule="evenodd" d="M14.2784 2.75003V10.0835C14.2784 10.3263 14.1498 10.5596 13.9211 10.7315C13.6924 10.9034 13.382 11 13.0585 11H3.30244C2.62845 11 2.08252 10.5897 2.08252 10.0835V2.75003C1.40909 2.75003 0.863159 2.33968 0.863159 1.83351V0.916566C0.863159 0.41039 1.4091 4.57764e-05 2.08252 4.57764e-05H14.2784C14.6014 4.57764e-05 14.9118 0.0967259 15.1405 0.2686C15.3692 0.440474 15.4978 0.673796 15.4978 0.916566V1.83351C15.4978 2.07628 15.3692 2.30961 15.1405 2.48148C14.9118 2.65336 14.6014 2.75003 14.2784 2.75003H14.2784ZM3.30243 10.0835H13.059L13.0585 2.75003H3.30244L3.30243 10.0835ZM14.2784 0.916995L2.08249 0.916565V1.83308H14.2778V0.916565L14.2784 0.916995ZM9.40039 6.41699H6.96109V6.41656C5.95039 6.41656 5.13176 5.80125 5.13176 5.04156C5.13176 4.28231 5.95039 3.66656 6.96109 3.66656H9.40039H9.39981C10.4105 3.66656 11.2291 4.28231 11.2291 5.04156C11.2291 5.80125 10.4105 6.41656 9.39981 6.41656L9.40039 6.41699ZM9.40039 4.58351H6.96109C6.62437 4.58351 6.35112 4.78848 6.35112 5.04156C6.35112 5.29465 6.62437 5.50004 6.96109 5.50004H9.40039H9.39981C9.73653 5.50004 10.0098 5.29465 10.0098 5.04156C10.0098 4.78848 9.73653 4.58351 9.39981 4.58351H9.40039Z" fill="#3E4244" />
	</g>
	<defs>
		<clipPath id="clip0_874_12818">
			<rect width="14.6346" height="11" fill="white" transform="translate(0.863037)" />
		</clipPath>
	</defs>
</svg>
