<svg width="18" height="18" viewBox="0 0 18 18" fill="none" xmlns="http://www.w3.org/2000/svg">
	<path d="M9 0.5625C4.34736 0.5625 0.5625 4.34736 0.5625 9C0.5625 13.6526 4.34736 17.4375 9 17.4375C13.6526 17.4375 17.4375 13.6526 17.4375 9C17.4375 4.34736 13.6526 0.5625 9 0.5625ZM9 16.3125C4.96836 16.3125 1.6875 13.0316 1.6875 9C1.6875 4.96836 4.96836 1.6875 9 1.6875C13.0316 1.6875 16.3125 4.96836 16.3125 9C16.3125 13.0316 13.0316 16.3125 9 16.3125Z" fill="#1E55A9" />
	<path d="M13.6898 7.08968C13.2539 6.01602 12.4552 5.1203 11.4469 4.57184C11.4455 4.57114 11.4448 4.57044 11.4441 4.57044C11.4426 4.56973 11.4419 4.56903 11.4405 4.56833C11.4391 4.56692 11.4363 4.56692 11.4349 4.56622C9.95765 3.74286 8.02193 3.74778 6.56015 4.56833C6.30632 4.70614 6.06656 4.86574 5.84156 5.04364C5.72976 5.13293 5.62077 5.22644 5.51671 5.32489C5.51319 5.3277 5.51108 5.33121 5.50757 5.33403C5.25867 5.57028 5.03718 5.83464 4.84171 6.11731C4.63147 6.41966 4.45007 6.74451 4.31016 7.08903C4.31016 7.08973 4.31016 7.09043 4.30945 7.09043C4.06265 7.69723 3.9375 8.33988 3.9375 9.00005C3.9375 9.6617 4.06336 10.3044 4.31086 10.9111C4.39945 11.1291 4.50774 11.3358 4.62515 11.5369C5.29735 12.6893 6.40406 13.5507 7.69631 13.8895C7.69702 13.8895 7.69772 13.8895 7.69913 13.8902C7.70053 13.8909 7.70264 13.8916 7.70405 13.8916C7.70686 13.8923 7.70967 13.8923 7.71249 13.893C8.121 14.0048 8.55343 14.0625 8.9999 14.0625C9.86124 14.0625 10.7071 13.8431 11.4398 13.4311C11.6936 13.2933 11.9334 13.1344 12.1577 12.9558C12.2695 12.8672 12.3785 12.773 12.4825 12.6745C12.4854 12.6717 12.4882 12.6682 12.4917 12.6654C12.7406 12.4284 12.9628 12.1633 13.1596 11.8807C13.3692 11.5783 13.5499 11.2549 13.6898 10.9104C13.6898 10.9097 13.6898 10.909 13.6905 10.909C13.9373 10.3029 14.0625 9.66021 14.0625 9.00006C14.0625 8.33842 13.9366 7.69576 13.6898 7.08972L13.6898 7.08968ZM11.006 5.62508C11.1481 5.70805 11.2873 5.79734 11.4174 5.89718C11.4328 5.90914 11.4497 5.91828 11.4638 5.92953C11.6227 6.05679 11.7696 6.19812 11.9075 6.34929C11.9489 6.39499 11.9855 6.44491 12.0249 6.49272C12.1163 6.60382 12.2042 6.71772 12.2836 6.83796C12.3237 6.89843 12.3603 6.96031 12.3968 7.02288C12.4264 7.0735 12.4496 7.12835 12.477 7.17968L11.1509 6.84851L10.8457 5.62507L11.006 5.62508ZM5.60388 7.02148C5.63974 6.95961 5.67631 6.89844 5.71498 6.83867C5.79584 6.71633 5.88513 6.59962 5.97864 6.48712C6.01661 6.44212 6.05036 6.3943 6.09044 6.35071C6.22966 6.19884 6.37803 6.0554 6.53974 5.92672C6.54958 5.91899 6.56083 5.91336 6.56997 5.90563C6.70357 5.80156 6.84771 5.71087 6.99466 5.62438H7.15357L6.84842 6.84782L5.52232 7.17898C5.55044 7.12765 5.57365 7.07281 5.60388 7.02148H5.60388ZM7.00169 12.3849C6.88919 12.3181 6.7788 12.2471 6.67404 12.1698C6.62623 12.1346 6.57982 12.0974 6.53412 12.0601C6.4399 11.9842 6.34991 11.904 6.26271 11.8196C6.22193 11.7803 6.18115 11.7423 6.14248 11.7008C6.03842 11.5904 5.94068 11.4744 5.84858 11.3535C5.83451 11.3352 5.81904 11.3183 5.80498 11.3C5.70232 11.1573 5.60952 11.0061 5.52584 10.8493C5.52021 10.8395 5.51599 10.8282 5.51037 10.8177L6.83083 11.1481L7.08958 12.4398C7.06005 12.4215 7.03192 12.4018 7.00169 12.3849L7.00169 12.3849ZM8.32638 12.8785L7.86373 10.5765C7.82084 10.3635 7.65983 10.194 7.44888 10.142L5.19888 9.57948C5.16865 9.57245 5.13842 9.57596 5.10888 9.57385C5.08076 9.38471 5.06248 9.19416 5.06248 9.0001C5.06248 8.80815 5.08076 8.61901 5.10748 8.43199C5.13771 8.42988 5.16795 8.42777 5.19888 8.42074L7.44888 7.85824C7.64998 7.80761 7.80818 7.65012 7.8581 7.44903L8.4206 5.19903C8.42763 5.1695 8.41919 5.13926 8.422 5.10973C8.61325 5.0809 8.8052 5.06262 8.99996 5.06262C9.19472 5.06262 9.38668 5.0809 9.57793 5.10903C9.58074 5.13856 9.5723 5.16879 9.57933 5.19832L10.1418 7.44832C10.1918 7.64942 10.3492 7.80692 10.551 7.85753L12.801 8.42003C12.8313 8.42707 12.8615 8.42918 12.8925 8.43128C12.9192 8.61902 12.9375 8.80817 12.9375 9.00012C12.9375 9.19418 12.9192 9.38473 12.891 9.57387C12.8608 9.57598 12.8313 9.57246 12.801 9.5795L10.551 10.142C10.3499 10.1926 10.1917 10.3501 10.1418 10.5512L9.57933 12.8012C9.5723 12.83 9.58074 12.8589 9.57793 12.887C9.15887 12.9503 8.73277 12.9496 8.32637 12.8786L8.32638 12.8785ZM12.396 10.9786C12.3601 11.0405 12.3236 11.1017 12.2849 11.1614C12.2041 11.2838 12.1148 11.4005 12.0212 11.513C11.9833 11.558 11.9495 11.6058 11.9095 11.6494C11.7702 11.8013 11.6219 11.9447 11.4602 12.0734C11.4503 12.0811 11.4391 12.0868 11.4299 12.0945C11.2963 12.1986 11.1522 12.2893 11.0052 12.3757H10.8463L11.1515 11.1523L12.4776 10.8211C12.4494 10.8725 12.4262 10.9273 12.396 10.9786H12.396Z" fill="#1E55A9" />
	<path d="M10.6875 9C10.6875 8.06976 9.93024 7.3125 9 7.3125C8.06976 7.3125 7.3125 8.06976 7.3125 9C7.3125 9.93024 8.06976 10.6875 9 10.6875C9.93024 10.6875 10.6875 9.93024 10.6875 9ZM9 9.5625C8.68921 9.5625 8.4375 9.31009 8.4375 9C8.4375 8.68991 8.68921 8.4375 9 8.4375C9.31079 8.4375 9.5625 8.68991 9.5625 9C9.5625 9.31009 9.31079 9.5625 9 9.5625Z" fill="#1E55A9" />
</svg>
